G04 #@! TF.FileFunction,Copper,L2,Bot,Signal*
%FSLAX46Y46*%
G04 Gerber Fmt 4.6, Leading zero omitted, Abs format (unit mm)*
G04 Created by KiCad (PCBNEW (2016-01-17 BZR 6493, Git da9ca2d)-product) date 19.01.2016 21.57.00*
%MOMM*%
G01*
G04 APERTURE LIST*
%ADD10C,0.100000*%
%ADD11C,1.524000*%
%ADD12R,2.032000X1.727200*%
%ADD13O,2.032000X1.727200*%
%ADD14R,1.727200X2.032000*%
%ADD15O,1.727200X2.032000*%
%ADD16R,2.032000X2.032000*%
%ADD17O,2.032000X2.032000*%
%ADD18C,0.600000*%
%ADD19C,0.350000*%
%ADD20C,0.220000*%
%ADD21C,0.254000*%
G04 APERTURE END LIST*
D10*
D11*
X112268000Y-67310000D03*
X112268000Y-69850000D03*
X112268000Y-62230000D03*
X112268000Y-64770000D03*
X112268000Y-72390000D03*
X112268000Y-74930000D03*
X112268000Y-77470000D03*
X112268000Y-80010000D03*
X112268000Y-82550000D03*
X112268000Y-85090000D03*
X112268000Y-87630000D03*
X112268000Y-90170000D03*
X112268000Y-92710000D03*
X112268000Y-95250000D03*
X127508000Y-95250000D03*
X127508000Y-92710000D03*
X127508000Y-90170000D03*
X127508000Y-87630000D03*
X127508000Y-85090000D03*
X127508000Y-82550000D03*
X127508000Y-80010000D03*
X127508000Y-77470000D03*
X127508000Y-74930000D03*
X127508000Y-72390000D03*
X127508000Y-69850000D03*
X127508000Y-67310000D03*
X127508000Y-64770000D03*
X127508000Y-62230000D03*
X124968000Y-64770000D03*
X124968000Y-69850000D03*
X124968000Y-72390000D03*
X124968000Y-74930000D03*
X124968000Y-95250000D03*
X122428000Y-95250000D03*
X119888000Y-95250000D03*
X117348000Y-95250000D03*
X114808000Y-95250000D03*
D12*
X108458000Y-61976000D03*
D13*
X108458000Y-64516000D03*
X108458000Y-67056000D03*
D14*
X103124000Y-73660000D03*
D15*
X105664000Y-73660000D03*
X108204000Y-73660000D03*
D12*
X108204000Y-97028000D03*
D13*
X108204000Y-94488000D03*
X108204000Y-91948000D03*
D12*
X102870000Y-67056000D03*
D13*
X102870000Y-64516000D03*
X102870000Y-61976000D03*
X102870000Y-59436000D03*
X102870000Y-56896000D03*
X102870000Y-54356000D03*
D16*
X109982000Y-54864000D03*
D17*
X112522000Y-54864000D03*
D14*
X133858000Y-88392000D03*
D15*
X136398000Y-88392000D03*
X138938000Y-88392000D03*
X141478000Y-88392000D03*
D14*
X133604000Y-64770000D03*
D15*
X136144000Y-64770000D03*
X138684000Y-64770000D03*
X141224000Y-64770000D03*
D14*
X133858000Y-92710000D03*
D15*
X136398000Y-92710000D03*
X138938000Y-92710000D03*
X141478000Y-92710000D03*
D14*
X133858000Y-97028000D03*
D15*
X136398000Y-97028000D03*
X138938000Y-97028000D03*
X141478000Y-97028000D03*
D14*
X133350000Y-70358000D03*
D15*
X135890000Y-70358000D03*
X138430000Y-70358000D03*
X140970000Y-70358000D03*
D12*
X103124000Y-97028000D03*
D13*
X103124000Y-94488000D03*
X103124000Y-91948000D03*
X103124000Y-89408000D03*
X103124000Y-86868000D03*
X103124000Y-84328000D03*
X103124000Y-81788000D03*
X103124000Y-79248000D03*
D18*
X136057640Y-84140040D03*
X135636000Y-79202280D03*
X141300666Y-72870242D03*
X106553000Y-83642200D03*
X140528040Y-73924160D03*
X107746800Y-76936600D03*
X139526980Y-80060800D03*
X140380724Y-78788422D03*
X143517620Y-94823280D03*
X145633440Y-82489040D03*
X139581096Y-78813217D03*
X141252209Y-79659907D03*
X138993880Y-90520520D03*
X143658136Y-84025910D03*
X139979400Y-94996000D03*
X142889645Y-72128333D03*
X145846800Y-73660000D03*
D19*
X108458000Y-64516000D02*
X108305600Y-64516000D01*
X108305600Y-64516000D02*
X104311010Y-60521410D01*
X104311010Y-58184610D02*
X103022400Y-56896000D01*
X104311010Y-60521410D02*
X104311010Y-58184610D01*
X103022400Y-56896000D02*
X102870000Y-56896000D01*
X108204000Y-94488000D02*
X108051600Y-94488000D01*
X108051600Y-94488000D02*
X105664000Y-92100400D01*
X105664000Y-92100400D02*
X105664000Y-75026000D01*
X105664000Y-75026000D02*
X105664000Y-73660000D01*
D20*
X136057640Y-84140040D02*
X136057640Y-88051640D01*
X136057640Y-88051640D02*
X136398000Y-88392000D01*
X135636000Y-79202280D02*
X128315720Y-79202280D01*
X128315720Y-79202280D02*
X127508000Y-80010000D01*
X142067682Y-74110282D02*
X142067682Y-73405482D01*
X142067682Y-73405482D02*
X141532442Y-72870242D01*
X106553000Y-83642200D02*
X132535764Y-83642200D01*
X132535764Y-83642200D02*
X142067682Y-74110282D01*
X141532442Y-72870242D02*
X141300666Y-72870242D01*
X140228041Y-73624161D02*
X140528040Y-73924160D01*
X107746800Y-76936600D02*
X111059239Y-73624161D01*
X111059239Y-73624161D02*
X140228041Y-73624161D01*
X141478000Y-88392000D02*
X141478000Y-82011820D01*
X141478000Y-82011820D02*
X139826979Y-80360799D01*
X139826979Y-80360799D02*
X139526980Y-80060800D01*
X141224000Y-66006000D02*
X142143610Y-66925610D01*
X142928024Y-73029410D02*
X142928024Y-76241122D01*
X142143610Y-66925610D02*
X142143610Y-72244996D01*
X142143610Y-72244996D02*
X142928024Y-73029410D01*
X140680723Y-78488423D02*
X140380724Y-78788422D01*
X142928024Y-76241122D02*
X140680723Y-78488423D01*
X141224000Y-64770000D02*
X141224000Y-66006000D01*
X145633440Y-82489040D02*
X145633440Y-82913304D01*
X145633440Y-82913304D02*
X144332960Y-84213784D01*
X143517620Y-94399016D02*
X143517620Y-94823280D01*
X144332960Y-84213784D02*
X144332960Y-93583676D01*
X144332960Y-93583676D02*
X143517620Y-94399016D01*
X141564870Y-72260241D02*
X142487693Y-73183064D01*
X142487693Y-75482356D02*
X139581096Y-78388953D01*
X141034383Y-72260241D02*
X141564870Y-72260241D01*
X138684000Y-64770000D02*
X138684000Y-66006000D01*
X142487693Y-73183064D02*
X142487693Y-75482356D01*
X138684000Y-66006000D02*
X139603610Y-66925610D01*
X139603610Y-66925610D02*
X139603610Y-70829468D01*
X139603610Y-70829468D02*
X141034383Y-72260241D01*
X139581096Y-78388953D02*
X139581096Y-78813217D01*
X142677598Y-81085296D02*
X141552208Y-79959906D01*
X141183444Y-90520520D02*
X142677598Y-89026366D01*
X138993880Y-90520520D02*
X141183444Y-90520520D01*
X142677598Y-89026366D02*
X142677598Y-81085296D01*
X141552208Y-79959906D02*
X141252209Y-79659907D01*
X141130722Y-91242282D02*
X142705522Y-91242282D01*
X143097609Y-90850195D02*
X143097609Y-84586437D01*
X140279399Y-92093605D02*
X141130722Y-91242282D01*
X142705522Y-91242282D02*
X143097609Y-90850195D01*
X139979400Y-94996000D02*
X140279399Y-94696001D01*
X140279399Y-94696001D02*
X140279399Y-92093605D01*
X143358137Y-84325909D02*
X143658136Y-84025910D01*
X143097609Y-84586437D02*
X143358137Y-84325909D01*
X143189644Y-72428332D02*
X142889645Y-72128333D01*
X144421312Y-73660000D02*
X143189644Y-72428332D01*
X145846800Y-73660000D02*
X144421312Y-73660000D01*
D21*
G36*
X148642000Y-99366000D02*
X100786000Y-99366000D01*
X100786000Y-97313750D01*
X101473000Y-97313750D01*
X101473000Y-98017910D01*
X101569673Y-98251299D01*
X101748302Y-98429927D01*
X101981691Y-98526600D01*
X102838250Y-98526600D01*
X102997000Y-98367850D01*
X102997000Y-97155000D01*
X103251000Y-97155000D01*
X103251000Y-98367850D01*
X103409750Y-98526600D01*
X104266309Y-98526600D01*
X104499698Y-98429927D01*
X104678327Y-98251299D01*
X104775000Y-98017910D01*
X104775000Y-97313750D01*
X106553000Y-97313750D01*
X106553000Y-98017910D01*
X106649673Y-98251299D01*
X106828302Y-98429927D01*
X107061691Y-98526600D01*
X107918250Y-98526600D01*
X108077000Y-98367850D01*
X108077000Y-97155000D01*
X108331000Y-97155000D01*
X108331000Y-98367850D01*
X108489750Y-98526600D01*
X109346309Y-98526600D01*
X109579698Y-98429927D01*
X109758327Y-98251299D01*
X109855000Y-98017910D01*
X109855000Y-97313750D01*
X109696250Y-97155000D01*
X108331000Y-97155000D01*
X108077000Y-97155000D01*
X106711750Y-97155000D01*
X106553000Y-97313750D01*
X104775000Y-97313750D01*
X104616250Y-97155000D01*
X103251000Y-97155000D01*
X102997000Y-97155000D01*
X101631750Y-97155000D01*
X101473000Y-97313750D01*
X100786000Y-97313750D01*
X100786000Y-79248000D01*
X101440655Y-79248000D01*
X101554729Y-79821489D01*
X101879585Y-80307670D01*
X102194366Y-80518000D01*
X101879585Y-80728330D01*
X101554729Y-81214511D01*
X101440655Y-81788000D01*
X101554729Y-82361489D01*
X101879585Y-82847670D01*
X102194366Y-83058000D01*
X101879585Y-83268330D01*
X101554729Y-83754511D01*
X101440655Y-84328000D01*
X101554729Y-84901489D01*
X101879585Y-85387670D01*
X102194366Y-85598000D01*
X101879585Y-85808330D01*
X101554729Y-86294511D01*
X101440655Y-86868000D01*
X101554729Y-87441489D01*
X101879585Y-87927670D01*
X102194366Y-88138000D01*
X101879585Y-88348330D01*
X101554729Y-88834511D01*
X101440655Y-89408000D01*
X101554729Y-89981489D01*
X101879585Y-90467670D01*
X102194366Y-90678000D01*
X101879585Y-90888330D01*
X101554729Y-91374511D01*
X101440655Y-91948000D01*
X101554729Y-92521489D01*
X101879585Y-93007670D01*
X102194366Y-93218000D01*
X101879585Y-93428330D01*
X101554729Y-93914511D01*
X101440655Y-94488000D01*
X101554729Y-95061489D01*
X101879585Y-95547670D01*
X101901780Y-95562500D01*
X101748302Y-95626073D01*
X101569673Y-95804701D01*
X101473000Y-96038090D01*
X101473000Y-96742250D01*
X101631750Y-96901000D01*
X102997000Y-96901000D01*
X102997000Y-96881000D01*
X103251000Y-96881000D01*
X103251000Y-96901000D01*
X104616250Y-96901000D01*
X104775000Y-96742250D01*
X104775000Y-96038090D01*
X104678327Y-95804701D01*
X104499698Y-95626073D01*
X104346220Y-95562500D01*
X104368415Y-95547670D01*
X104693271Y-95061489D01*
X104807345Y-94488000D01*
X104693271Y-93914511D01*
X104368415Y-93428330D01*
X104053634Y-93218000D01*
X104368415Y-93007670D01*
X104693271Y-92521489D01*
X104807345Y-91948000D01*
X104693271Y-91374511D01*
X104368415Y-90888330D01*
X104053634Y-90678000D01*
X104368415Y-90467670D01*
X104693271Y-89981489D01*
X104807345Y-89408000D01*
X104693271Y-88834511D01*
X104368415Y-88348330D01*
X104053634Y-88138000D01*
X104368415Y-87927670D01*
X104693271Y-87441489D01*
X104807345Y-86868000D01*
X104693271Y-86294511D01*
X104368415Y-85808330D01*
X104053634Y-85598000D01*
X104368415Y-85387670D01*
X104693271Y-84901489D01*
X104807345Y-84328000D01*
X104693271Y-83754511D01*
X104368415Y-83268330D01*
X104053634Y-83058000D01*
X104368415Y-82847670D01*
X104693271Y-82361489D01*
X104807345Y-81788000D01*
X104693271Y-81214511D01*
X104368415Y-80728330D01*
X104053634Y-80518000D01*
X104368415Y-80307670D01*
X104693271Y-79821489D01*
X104807345Y-79248000D01*
X104693271Y-78674511D01*
X104368415Y-78188330D01*
X103882234Y-77863474D01*
X103308745Y-77749400D01*
X102939255Y-77749400D01*
X102365766Y-77863474D01*
X101879585Y-78188330D01*
X101554729Y-78674511D01*
X101440655Y-79248000D01*
X100786000Y-79248000D01*
X100786000Y-73945750D01*
X101625400Y-73945750D01*
X101625400Y-74802309D01*
X101722073Y-75035698D01*
X101900701Y-75214327D01*
X102134090Y-75311000D01*
X102838250Y-75311000D01*
X102997000Y-75152250D01*
X102997000Y-73787000D01*
X101784150Y-73787000D01*
X101625400Y-73945750D01*
X100786000Y-73945750D01*
X100786000Y-72517691D01*
X101625400Y-72517691D01*
X101625400Y-73374250D01*
X101784150Y-73533000D01*
X102997000Y-73533000D01*
X102997000Y-72167750D01*
X103251000Y-72167750D01*
X103251000Y-73533000D01*
X103271000Y-73533000D01*
X103271000Y-73787000D01*
X103251000Y-73787000D01*
X103251000Y-75152250D01*
X103409750Y-75311000D01*
X104113910Y-75311000D01*
X104347299Y-75214327D01*
X104525927Y-75035698D01*
X104589500Y-74882220D01*
X104604330Y-74904415D01*
X104854000Y-75071239D01*
X104854000Y-92100400D01*
X104915658Y-92410374D01*
X105091244Y-92673156D01*
X106584602Y-94166515D01*
X106520655Y-94488000D01*
X106634729Y-95061489D01*
X106959585Y-95547670D01*
X106981780Y-95562500D01*
X106828302Y-95626073D01*
X106649673Y-95804701D01*
X106553000Y-96038090D01*
X106553000Y-96742250D01*
X106711750Y-96901000D01*
X108077000Y-96901000D01*
X108077000Y-96881000D01*
X108331000Y-96881000D01*
X108331000Y-96901000D01*
X109696250Y-96901000D01*
X109855000Y-96742250D01*
X109855000Y-96038090D01*
X109758327Y-95804701D01*
X109579698Y-95626073D01*
X109426220Y-95562500D01*
X109448415Y-95547670D01*
X109773271Y-95061489D01*
X109887345Y-94488000D01*
X109773271Y-93914511D01*
X109448415Y-93428330D01*
X109133634Y-93218000D01*
X109448415Y-93007670D01*
X109773271Y-92521489D01*
X109887345Y-91948000D01*
X109773271Y-91374511D01*
X109448415Y-90888330D01*
X108962234Y-90563474D01*
X108388745Y-90449400D01*
X108019255Y-90449400D01*
X107445766Y-90563474D01*
X106959585Y-90888330D01*
X106634729Y-91374511D01*
X106543295Y-91834183D01*
X106474000Y-91764888D01*
X106474000Y-84577132D01*
X106738167Y-84577362D01*
X107081943Y-84435317D01*
X107130144Y-84387200D01*
X111047178Y-84387200D01*
X110871243Y-84810900D01*
X110870758Y-85366661D01*
X111082990Y-85880303D01*
X111475630Y-86273629D01*
X111683512Y-86359949D01*
X111477697Y-86444990D01*
X111084371Y-86837630D01*
X110871243Y-87350900D01*
X110870758Y-87906661D01*
X111082990Y-88420303D01*
X111475630Y-88813629D01*
X111683512Y-88899949D01*
X111477697Y-88984990D01*
X111084371Y-89377630D01*
X110871243Y-89890900D01*
X110870758Y-90446661D01*
X111082990Y-90960303D01*
X111475630Y-91353629D01*
X111683512Y-91439949D01*
X111477697Y-91524990D01*
X111084371Y-91917630D01*
X110871243Y-92430900D01*
X110870758Y-92986661D01*
X111082990Y-93500303D01*
X111475630Y-93893629D01*
X111683512Y-93979949D01*
X111477697Y-94064990D01*
X111084371Y-94457630D01*
X110871243Y-94970900D01*
X110870758Y-95526661D01*
X111082990Y-96040303D01*
X111475630Y-96433629D01*
X111988900Y-96646757D01*
X112544661Y-96647242D01*
X113058303Y-96435010D01*
X113451629Y-96042370D01*
X113537949Y-95834488D01*
X113622990Y-96040303D01*
X114015630Y-96433629D01*
X114528900Y-96646757D01*
X115084661Y-96647242D01*
X115598303Y-96435010D01*
X115991629Y-96042370D01*
X116077949Y-95834488D01*
X116162990Y-96040303D01*
X116555630Y-96433629D01*
X117068900Y-96646757D01*
X117624661Y-96647242D01*
X118138303Y-96435010D01*
X118343457Y-96230213D01*
X119087392Y-96230213D01*
X119156857Y-96472397D01*
X119680302Y-96659144D01*
X120235368Y-96631362D01*
X120619143Y-96472397D01*
X120688608Y-96230213D01*
X119888000Y-95429605D01*
X119087392Y-96230213D01*
X118343457Y-96230213D01*
X118531629Y-96042370D01*
X118611395Y-95850273D01*
X118665603Y-95981143D01*
X118907787Y-96050608D01*
X119708395Y-95250000D01*
X118907787Y-94449392D01*
X118665603Y-94518857D01*
X118615491Y-94659318D01*
X118533010Y-94459697D01*
X118343432Y-94269787D01*
X119087392Y-94269787D01*
X119888000Y-95070395D01*
X120688608Y-94269787D01*
X120619143Y-94027603D01*
X120095698Y-93840856D01*
X119540632Y-93868638D01*
X119156857Y-94027603D01*
X119087392Y-94269787D01*
X118343432Y-94269787D01*
X118140370Y-94066371D01*
X117627100Y-93853243D01*
X117071339Y-93852758D01*
X116557697Y-94064990D01*
X116164371Y-94457630D01*
X116078051Y-94665512D01*
X115993010Y-94459697D01*
X115600370Y-94066371D01*
X115087100Y-93853243D01*
X114531339Y-93852758D01*
X114017697Y-94064990D01*
X113624371Y-94457630D01*
X113538051Y-94665512D01*
X113453010Y-94459697D01*
X113060370Y-94066371D01*
X112852488Y-93980051D01*
X113058303Y-93895010D01*
X113451629Y-93502370D01*
X113664757Y-92989100D01*
X113665242Y-92433339D01*
X113453010Y-91919697D01*
X113060370Y-91526371D01*
X112852488Y-91440051D01*
X113058303Y-91355010D01*
X113451629Y-90962370D01*
X113664757Y-90449100D01*
X113665242Y-89893339D01*
X113453010Y-89379697D01*
X113060370Y-88986371D01*
X112852488Y-88900051D01*
X113058303Y-88815010D01*
X113451629Y-88422370D01*
X113664757Y-87909100D01*
X113665242Y-87353339D01*
X113453010Y-86839697D01*
X113060370Y-86446371D01*
X112852488Y-86360051D01*
X113058303Y-86275010D01*
X113451629Y-85882370D01*
X113664757Y-85369100D01*
X113665242Y-84813339D01*
X113489165Y-84387200D01*
X126287178Y-84387200D01*
X126111243Y-84810900D01*
X126110758Y-85366661D01*
X126322990Y-85880303D01*
X126715630Y-86273629D01*
X126923512Y-86359949D01*
X126717697Y-86444990D01*
X126324371Y-86837630D01*
X126111243Y-87350900D01*
X126110758Y-87906661D01*
X126322990Y-88420303D01*
X126715630Y-88813629D01*
X126923512Y-88899949D01*
X126717697Y-88984990D01*
X126324371Y-89377630D01*
X126111243Y-89890900D01*
X126110758Y-90446661D01*
X126322990Y-90960303D01*
X126715630Y-91353629D01*
X126923512Y-91439949D01*
X126717697Y-91524990D01*
X126324371Y-91917630D01*
X126111243Y-92430900D01*
X126110758Y-92986661D01*
X126322990Y-93500303D01*
X126715630Y-93893629D01*
X126923512Y-93979949D01*
X126717697Y-94064990D01*
X126324371Y-94457630D01*
X126238051Y-94665512D01*
X126153010Y-94459697D01*
X125760370Y-94066371D01*
X125247100Y-93853243D01*
X124691339Y-93852758D01*
X124177697Y-94064990D01*
X123784371Y-94457630D01*
X123698051Y-94665512D01*
X123613010Y-94459697D01*
X123220370Y-94066371D01*
X122707100Y-93853243D01*
X122151339Y-93852758D01*
X121637697Y-94064990D01*
X121244371Y-94457630D01*
X121164605Y-94649727D01*
X121110397Y-94518857D01*
X120868213Y-94449392D01*
X120067605Y-95250000D01*
X120868213Y-96050608D01*
X121110397Y-95981143D01*
X121160509Y-95840682D01*
X121242990Y-96040303D01*
X121635630Y-96433629D01*
X122148900Y-96646757D01*
X122704661Y-96647242D01*
X123218303Y-96435010D01*
X123611629Y-96042370D01*
X123697949Y-95834488D01*
X123782990Y-96040303D01*
X124175630Y-96433629D01*
X124688900Y-96646757D01*
X125244661Y-96647242D01*
X125758303Y-96435010D01*
X126151629Y-96042370D01*
X126237949Y-95834488D01*
X126322990Y-96040303D01*
X126715630Y-96433629D01*
X127228900Y-96646757D01*
X127784661Y-96647242D01*
X128298303Y-96435010D01*
X128691629Y-96042370D01*
X128704239Y-96012000D01*
X132346960Y-96012000D01*
X132346960Y-98044000D01*
X132396243Y-98291765D01*
X132536591Y-98501809D01*
X132746635Y-98642157D01*
X132994400Y-98691440D01*
X134721600Y-98691440D01*
X134969365Y-98642157D01*
X135179409Y-98501809D01*
X135319757Y-98291765D01*
X135337694Y-98201590D01*
X135495964Y-98378732D01*
X136023209Y-98632709D01*
X136038974Y-98635358D01*
X136271000Y-98514217D01*
X136271000Y-97155000D01*
X136251000Y-97155000D01*
X136251000Y-96901000D01*
X136271000Y-96901000D01*
X136271000Y-95541783D01*
X136038974Y-95420642D01*
X136023209Y-95423291D01*
X135495964Y-95677268D01*
X135337694Y-95854410D01*
X135319757Y-95764235D01*
X135179409Y-95554191D01*
X134969365Y-95413843D01*
X134721600Y-95364560D01*
X132994400Y-95364560D01*
X132746635Y-95413843D01*
X132536591Y-95554191D01*
X132396243Y-95764235D01*
X132346960Y-96012000D01*
X128704239Y-96012000D01*
X128904757Y-95529100D01*
X128905242Y-94973339D01*
X128693010Y-94459697D01*
X128300370Y-94066371D01*
X128092488Y-93980051D01*
X128298303Y-93895010D01*
X128691629Y-93502370D01*
X128904757Y-92989100D01*
X128905242Y-92433339D01*
X128693010Y-91919697D01*
X128467707Y-91694000D01*
X132346960Y-91694000D01*
X132346960Y-93726000D01*
X132396243Y-93973765D01*
X132536591Y-94183809D01*
X132746635Y-94324157D01*
X132994400Y-94373440D01*
X134721600Y-94373440D01*
X134969365Y-94324157D01*
X135179409Y-94183809D01*
X135319757Y-93973765D01*
X135337694Y-93883590D01*
X135495964Y-94060732D01*
X136023209Y-94314709D01*
X136038974Y-94317358D01*
X136271000Y-94196217D01*
X136271000Y-92837000D01*
X136251000Y-92837000D01*
X136251000Y-92583000D01*
X136271000Y-92583000D01*
X136271000Y-91223783D01*
X136038974Y-91102642D01*
X136023209Y-91105291D01*
X135495964Y-91359268D01*
X135337694Y-91536410D01*
X135319757Y-91446235D01*
X135179409Y-91236191D01*
X134969365Y-91095843D01*
X134721600Y-91046560D01*
X132994400Y-91046560D01*
X132746635Y-91095843D01*
X132536591Y-91236191D01*
X132396243Y-91446235D01*
X132346960Y-91694000D01*
X128467707Y-91694000D01*
X128300370Y-91526371D01*
X128092488Y-91440051D01*
X128298303Y-91355010D01*
X128691629Y-90962370D01*
X128904757Y-90449100D01*
X128905242Y-89893339D01*
X128693010Y-89379697D01*
X128300370Y-88986371D01*
X128092488Y-88900051D01*
X128298303Y-88815010D01*
X128691629Y-88422370D01*
X128904757Y-87909100D01*
X128905222Y-87376000D01*
X132346960Y-87376000D01*
X132346960Y-89408000D01*
X132396243Y-89655765D01*
X132536591Y-89865809D01*
X132746635Y-90006157D01*
X132994400Y-90055440D01*
X134721600Y-90055440D01*
X134969365Y-90006157D01*
X135179409Y-89865809D01*
X135319757Y-89655765D01*
X135337694Y-89565590D01*
X135495964Y-89742732D01*
X136023209Y-89996709D01*
X136038974Y-89999358D01*
X136271000Y-89878217D01*
X136271000Y-88519000D01*
X136251000Y-88519000D01*
X136251000Y-88265000D01*
X136271000Y-88265000D01*
X136271000Y-86905783D01*
X136038974Y-86784642D01*
X136023209Y-86787291D01*
X135495964Y-87041268D01*
X135337694Y-87218410D01*
X135319757Y-87128235D01*
X135179409Y-86918191D01*
X134969365Y-86777843D01*
X134721600Y-86728560D01*
X132994400Y-86728560D01*
X132746635Y-86777843D01*
X132536591Y-86918191D01*
X132396243Y-87128235D01*
X132346960Y-87376000D01*
X128905222Y-87376000D01*
X128905242Y-87353339D01*
X128693010Y-86839697D01*
X128300370Y-86446371D01*
X128092488Y-86360051D01*
X128298303Y-86275010D01*
X128691629Y-85882370D01*
X128904757Y-85369100D01*
X128905242Y-84813339D01*
X128729165Y-84387200D01*
X132535759Y-84387200D01*
X132535764Y-84387201D01*
X132820863Y-84330490D01*
X133062559Y-84168995D01*
X138675459Y-78556094D01*
X138646258Y-78626418D01*
X138645934Y-78998384D01*
X138787979Y-79342160D01*
X138855586Y-79409885D01*
X138734788Y-79530473D01*
X138592142Y-79874001D01*
X138591818Y-80245967D01*
X138733863Y-80589743D01*
X138996653Y-80852992D01*
X139340181Y-80995638D01*
X139408287Y-80995697D01*
X140733000Y-82320409D01*
X140733000Y-86937329D01*
X140418330Y-87147585D01*
X140208000Y-87462366D01*
X139997670Y-87147585D01*
X139511489Y-86822729D01*
X138938000Y-86708655D01*
X138364511Y-86822729D01*
X137878330Y-87147585D01*
X137671539Y-87457069D01*
X137300036Y-87041268D01*
X136772791Y-86787291D01*
X136757026Y-86784642D01*
X136525000Y-86905783D01*
X136525000Y-88265000D01*
X136545000Y-88265000D01*
X136545000Y-88519000D01*
X136525000Y-88519000D01*
X136525000Y-89878217D01*
X136757026Y-89999358D01*
X136772791Y-89996709D01*
X137300036Y-89742732D01*
X137671539Y-89326931D01*
X137878330Y-89636415D01*
X138284330Y-89907695D01*
X138201688Y-89990193D01*
X138059042Y-90333721D01*
X138058718Y-90705687D01*
X138200763Y-91049463D01*
X138320935Y-91169845D01*
X137878330Y-91465585D01*
X137671539Y-91775069D01*
X137300036Y-91359268D01*
X136772791Y-91105291D01*
X136757026Y-91102642D01*
X136525000Y-91223783D01*
X136525000Y-92583000D01*
X136545000Y-92583000D01*
X136545000Y-92837000D01*
X136525000Y-92837000D01*
X136525000Y-94196217D01*
X136757026Y-94317358D01*
X136772791Y-94314709D01*
X137300036Y-94060732D01*
X137671539Y-93644931D01*
X137878330Y-93954415D01*
X138364511Y-94279271D01*
X138938000Y-94393345D01*
X139339706Y-94313441D01*
X139187208Y-94465673D01*
X139044562Y-94809201D01*
X139044238Y-95181167D01*
X139127352Y-95382319D01*
X138938000Y-95344655D01*
X138364511Y-95458729D01*
X137878330Y-95783585D01*
X137671539Y-96093069D01*
X137300036Y-95677268D01*
X136772791Y-95423291D01*
X136757026Y-95420642D01*
X136525000Y-95541783D01*
X136525000Y-96901000D01*
X136545000Y-96901000D01*
X136545000Y-97155000D01*
X136525000Y-97155000D01*
X136525000Y-98514217D01*
X136757026Y-98635358D01*
X136772791Y-98632709D01*
X137300036Y-98378732D01*
X137671539Y-97962931D01*
X137878330Y-98272415D01*
X138364511Y-98597271D01*
X138938000Y-98711345D01*
X139511489Y-98597271D01*
X139997670Y-98272415D01*
X140208000Y-97957634D01*
X140418330Y-98272415D01*
X140904511Y-98597271D01*
X141478000Y-98711345D01*
X142051489Y-98597271D01*
X142537670Y-98272415D01*
X142862526Y-97786234D01*
X142976600Y-97212745D01*
X142976600Y-96843255D01*
X142862526Y-96269766D01*
X142537670Y-95783585D01*
X142051489Y-95458729D01*
X141478000Y-95344655D01*
X140904511Y-95458729D01*
X140707317Y-95590490D01*
X140771592Y-95526327D01*
X140914238Y-95182799D01*
X140914344Y-95060937D01*
X140967689Y-94981100D01*
X140978687Y-94925811D01*
X141024400Y-94696001D01*
X141024399Y-94695996D01*
X141024399Y-94303118D01*
X141478000Y-94393345D01*
X142051489Y-94279271D01*
X142537670Y-93954415D01*
X142862526Y-93468234D01*
X142976600Y-92894745D01*
X142976600Y-92525255D01*
X142863346Y-91955889D01*
X142990621Y-91930572D01*
X143232317Y-91769077D01*
X143587960Y-91413433D01*
X143587960Y-93275087D01*
X142990825Y-93872221D01*
X142829330Y-94113917D01*
X142810637Y-94207893D01*
X142725428Y-94292953D01*
X142582782Y-94636481D01*
X142582458Y-95008447D01*
X142724503Y-95352223D01*
X142987293Y-95615472D01*
X143330821Y-95758118D01*
X143702787Y-95758442D01*
X144046563Y-95616397D01*
X144309812Y-95353607D01*
X144452458Y-95010079D01*
X144452782Y-94638113D01*
X144417501Y-94552725D01*
X144859752Y-94110473D01*
X144859755Y-94110471D01*
X145021250Y-93868775D01*
X145024436Y-93852758D01*
X145077961Y-93583676D01*
X145077960Y-93583671D01*
X145077960Y-84522374D01*
X146160232Y-83440101D01*
X146160235Y-83440099D01*
X146321730Y-83198403D01*
X146340423Y-83104427D01*
X146425632Y-83019367D01*
X146568278Y-82675839D01*
X146568602Y-82303873D01*
X146426557Y-81960097D01*
X146163767Y-81696848D01*
X145820239Y-81554202D01*
X145448273Y-81553878D01*
X145104497Y-81695923D01*
X144841248Y-81958713D01*
X144698602Y-82302241D01*
X144698278Y-82674207D01*
X144733560Y-82759595D01*
X144223919Y-83269236D01*
X144188463Y-83233718D01*
X143844935Y-83091072D01*
X143472969Y-83090748D01*
X143422598Y-83111561D01*
X143422598Y-81085301D01*
X143422599Y-81085296D01*
X143365888Y-80800197D01*
X143317868Y-80728330D01*
X143204393Y-80558501D01*
X143204390Y-80558499D01*
X142187313Y-79541421D01*
X142187371Y-79474740D01*
X142045326Y-79130964D01*
X141782536Y-78867715D01*
X141480456Y-78742280D01*
X143454816Y-76767919D01*
X143454819Y-76767917D01*
X143616314Y-76526221D01*
X143639898Y-76407657D01*
X143673025Y-76241122D01*
X143673024Y-76241117D01*
X143673024Y-73965301D01*
X143894515Y-74186792D01*
X143894517Y-74186795D01*
X143938226Y-74216000D01*
X144136213Y-74348290D01*
X144421312Y-74405001D01*
X144421317Y-74405000D01*
X145269363Y-74405000D01*
X145316473Y-74452192D01*
X145660001Y-74594838D01*
X146031967Y-74595162D01*
X146375743Y-74453117D01*
X146638992Y-74190327D01*
X146781638Y-73846799D01*
X146781962Y-73474833D01*
X146639917Y-73131057D01*
X146377127Y-72867808D01*
X146033599Y-72725162D01*
X145661633Y-72724838D01*
X145317857Y-72866883D01*
X145269656Y-72915000D01*
X144729901Y-72915000D01*
X143824749Y-72009847D01*
X143824807Y-71943166D01*
X143682762Y-71599390D01*
X143419972Y-71336141D01*
X143076444Y-71193495D01*
X142888610Y-71193331D01*
X142888610Y-66925615D01*
X142888611Y-66925610D01*
X142831900Y-66640511D01*
X142670405Y-66398815D01*
X142284605Y-66013015D01*
X142608526Y-65528234D01*
X142722600Y-64954745D01*
X142722600Y-64585255D01*
X142608526Y-64011766D01*
X142283670Y-63525585D01*
X141797489Y-63200729D01*
X141224000Y-63086655D01*
X140650511Y-63200729D01*
X140164330Y-63525585D01*
X139954000Y-63840366D01*
X139743670Y-63525585D01*
X139257489Y-63200729D01*
X138684000Y-63086655D01*
X138110511Y-63200729D01*
X137624330Y-63525585D01*
X137417539Y-63835069D01*
X137046036Y-63419268D01*
X136518791Y-63165291D01*
X136503026Y-63162642D01*
X136271000Y-63283783D01*
X136271000Y-64643000D01*
X136291000Y-64643000D01*
X136291000Y-64897000D01*
X136271000Y-64897000D01*
X136271000Y-66256217D01*
X136503026Y-66377358D01*
X136518791Y-66374709D01*
X137046036Y-66120732D01*
X137417539Y-65704931D01*
X137624330Y-66014415D01*
X137989164Y-66258189D01*
X137995710Y-66291099D01*
X138157205Y-66532795D01*
X138858610Y-67234200D01*
X138858610Y-68759911D01*
X138430000Y-68674655D01*
X137856511Y-68788729D01*
X137370330Y-69113585D01*
X137163539Y-69423069D01*
X136792036Y-69007268D01*
X136264791Y-68753291D01*
X136249026Y-68750642D01*
X136017000Y-68871783D01*
X136017000Y-70231000D01*
X136037000Y-70231000D01*
X136037000Y-70485000D01*
X136017000Y-70485000D01*
X136017000Y-71844217D01*
X136249026Y-71965358D01*
X136264791Y-71962709D01*
X136792036Y-71708732D01*
X137163539Y-71292931D01*
X137370330Y-71602415D01*
X137856511Y-71927271D01*
X138430000Y-72041345D01*
X139003489Y-71927271D01*
X139389739Y-71669187D01*
X140377027Y-72656474D01*
X140365828Y-72683443D01*
X140365634Y-72906530D01*
X140228041Y-72879160D01*
X140228036Y-72879161D01*
X128817532Y-72879161D01*
X128904757Y-72669100D01*
X128905242Y-72113339D01*
X128693010Y-71599697D01*
X128300370Y-71206371D01*
X128092488Y-71120051D01*
X128298303Y-71035010D01*
X128691629Y-70642370D01*
X128904757Y-70129100D01*
X128905242Y-69573339D01*
X128809655Y-69342000D01*
X131838960Y-69342000D01*
X131838960Y-71374000D01*
X131888243Y-71621765D01*
X132028591Y-71831809D01*
X132238635Y-71972157D01*
X132486400Y-72021440D01*
X134213600Y-72021440D01*
X134461365Y-71972157D01*
X134671409Y-71831809D01*
X134811757Y-71621765D01*
X134829694Y-71531590D01*
X134987964Y-71708732D01*
X135515209Y-71962709D01*
X135530974Y-71965358D01*
X135763000Y-71844217D01*
X135763000Y-70485000D01*
X135743000Y-70485000D01*
X135743000Y-70231000D01*
X135763000Y-70231000D01*
X135763000Y-68871783D01*
X135530974Y-68750642D01*
X135515209Y-68753291D01*
X134987964Y-69007268D01*
X134829694Y-69184410D01*
X134811757Y-69094235D01*
X134671409Y-68884191D01*
X134461365Y-68743843D01*
X134213600Y-68694560D01*
X132486400Y-68694560D01*
X132238635Y-68743843D01*
X132028591Y-68884191D01*
X131888243Y-69094235D01*
X131838960Y-69342000D01*
X128809655Y-69342000D01*
X128693010Y-69059697D01*
X128300370Y-68666371D01*
X128092488Y-68580051D01*
X128298303Y-68495010D01*
X128691629Y-68102370D01*
X128904757Y-67589100D01*
X128905242Y-67033339D01*
X128693010Y-66519697D01*
X128300370Y-66126371D01*
X128108273Y-66046605D01*
X128239143Y-65992397D01*
X128308608Y-65750213D01*
X127508000Y-64949605D01*
X126707392Y-65750213D01*
X126776857Y-65992397D01*
X126917318Y-66042509D01*
X126717697Y-66124990D01*
X126324371Y-66517630D01*
X126111243Y-67030900D01*
X126110758Y-67586661D01*
X126322990Y-68100303D01*
X126715630Y-68493629D01*
X126923512Y-68579949D01*
X126717697Y-68664990D01*
X126324371Y-69057630D01*
X126238051Y-69265512D01*
X126153010Y-69059697D01*
X125760370Y-68666371D01*
X125247100Y-68453243D01*
X124691339Y-68452758D01*
X124177697Y-68664990D01*
X123784371Y-69057630D01*
X123571243Y-69570900D01*
X123570758Y-70126661D01*
X123782990Y-70640303D01*
X124175630Y-71033629D01*
X124383512Y-71119949D01*
X124177697Y-71204990D01*
X123784371Y-71597630D01*
X123571243Y-72110900D01*
X123570758Y-72666661D01*
X123658561Y-72879161D01*
X113577532Y-72879161D01*
X113664757Y-72669100D01*
X113665242Y-72113339D01*
X113453010Y-71599697D01*
X113060370Y-71206371D01*
X112852488Y-71120051D01*
X113058303Y-71035010D01*
X113451629Y-70642370D01*
X113664757Y-70129100D01*
X113665242Y-69573339D01*
X113453010Y-69059697D01*
X113060370Y-68666371D01*
X112852488Y-68580051D01*
X113058303Y-68495010D01*
X113451629Y-68102370D01*
X113664757Y-67589100D01*
X113665242Y-67033339D01*
X113453010Y-66519697D01*
X113060370Y-66126371D01*
X112852488Y-66040051D01*
X113058303Y-65955010D01*
X113451629Y-65562370D01*
X113664757Y-65049100D01*
X113664759Y-65046661D01*
X123570758Y-65046661D01*
X123782990Y-65560303D01*
X124175630Y-65953629D01*
X124688900Y-66166757D01*
X125244661Y-66167242D01*
X125758303Y-65955010D01*
X126151629Y-65562370D01*
X126231395Y-65370273D01*
X126285603Y-65501143D01*
X126527787Y-65570608D01*
X127328395Y-64770000D01*
X127687605Y-64770000D01*
X128488213Y-65570608D01*
X128730397Y-65501143D01*
X128917144Y-64977698D01*
X128889362Y-64422632D01*
X128730397Y-64038857D01*
X128488213Y-63969392D01*
X127687605Y-64770000D01*
X127328395Y-64770000D01*
X126527787Y-63969392D01*
X126285603Y-64038857D01*
X126235491Y-64179318D01*
X126153010Y-63979697D01*
X125760370Y-63586371D01*
X125247100Y-63373243D01*
X124691339Y-63372758D01*
X124177697Y-63584990D01*
X123784371Y-63977630D01*
X123571243Y-64490900D01*
X123570758Y-65046661D01*
X113664759Y-65046661D01*
X113665242Y-64493339D01*
X113453010Y-63979697D01*
X113060370Y-63586371D01*
X112868273Y-63506605D01*
X112999143Y-63452397D01*
X113068608Y-63210213D01*
X112268000Y-62409605D01*
X111467392Y-63210213D01*
X111536857Y-63452397D01*
X111677318Y-63502509D01*
X111477697Y-63584990D01*
X111084371Y-63977630D01*
X110871243Y-64490900D01*
X110870758Y-65046661D01*
X111082990Y-65560303D01*
X111475630Y-65953629D01*
X111683512Y-66039949D01*
X111477697Y-66124990D01*
X111084371Y-66517630D01*
X110871243Y-67030900D01*
X110870758Y-67586661D01*
X111082990Y-68100303D01*
X111475630Y-68493629D01*
X111683512Y-68579949D01*
X111477697Y-68664990D01*
X111084371Y-69057630D01*
X110871243Y-69570900D01*
X110870758Y-70126661D01*
X111082990Y-70640303D01*
X111475630Y-71033629D01*
X111683512Y-71119949D01*
X111477697Y-71204990D01*
X111084371Y-71597630D01*
X110871243Y-72110900D01*
X110870758Y-72666661D01*
X110966207Y-72897666D01*
X110774140Y-72935871D01*
X110532444Y-73097366D01*
X110532442Y-73097369D01*
X109682124Y-73947687D01*
X109702600Y-73844745D01*
X109702600Y-73475255D01*
X109588526Y-72901766D01*
X109263670Y-72415585D01*
X108777489Y-72090729D01*
X108204000Y-71976655D01*
X107630511Y-72090729D01*
X107144330Y-72415585D01*
X106934000Y-72730366D01*
X106723670Y-72415585D01*
X106237489Y-72090729D01*
X105664000Y-71976655D01*
X105090511Y-72090729D01*
X104604330Y-72415585D01*
X104589500Y-72437780D01*
X104525927Y-72284302D01*
X104347299Y-72105673D01*
X104113910Y-72009000D01*
X103409750Y-72009000D01*
X103251000Y-72167750D01*
X102997000Y-72167750D01*
X102838250Y-72009000D01*
X102134090Y-72009000D01*
X101900701Y-72105673D01*
X101722073Y-72284302D01*
X101625400Y-72517691D01*
X100786000Y-72517691D01*
X100786000Y-54356000D01*
X101186655Y-54356000D01*
X101300729Y-54929489D01*
X101625585Y-55415670D01*
X101940366Y-55626000D01*
X101625585Y-55836330D01*
X101300729Y-56322511D01*
X101186655Y-56896000D01*
X101300729Y-57469489D01*
X101625585Y-57955670D01*
X101935069Y-58162461D01*
X101519268Y-58533964D01*
X101265291Y-59061209D01*
X101262642Y-59076974D01*
X101383783Y-59309000D01*
X102743000Y-59309000D01*
X102743000Y-59289000D01*
X102997000Y-59289000D01*
X102997000Y-59309000D01*
X103017000Y-59309000D01*
X103017000Y-59563000D01*
X102997000Y-59563000D01*
X102997000Y-59583000D01*
X102743000Y-59583000D01*
X102743000Y-59563000D01*
X101383783Y-59563000D01*
X101262642Y-59795026D01*
X101265291Y-59810791D01*
X101519268Y-60338036D01*
X101935069Y-60709539D01*
X101625585Y-60916330D01*
X101300729Y-61402511D01*
X101186655Y-61976000D01*
X101300729Y-62549489D01*
X101625585Y-63035670D01*
X101940366Y-63246000D01*
X101625585Y-63456330D01*
X101300729Y-63942511D01*
X101186655Y-64516000D01*
X101300729Y-65089489D01*
X101625585Y-65575670D01*
X101642566Y-65587016D01*
X101606235Y-65594243D01*
X101396191Y-65734591D01*
X101255843Y-65944635D01*
X101206560Y-66192400D01*
X101206560Y-67919600D01*
X101255843Y-68167365D01*
X101396191Y-68377409D01*
X101606235Y-68517757D01*
X101854000Y-68567040D01*
X103886000Y-68567040D01*
X104133765Y-68517757D01*
X104343809Y-68377409D01*
X104484157Y-68167365D01*
X104533440Y-67919600D01*
X104533440Y-66192400D01*
X104484157Y-65944635D01*
X104343809Y-65734591D01*
X104133765Y-65594243D01*
X104097434Y-65587016D01*
X104114415Y-65575670D01*
X104439271Y-65089489D01*
X104553345Y-64516000D01*
X104439271Y-63942511D01*
X104114415Y-63456330D01*
X103799634Y-63246000D01*
X104114415Y-63035670D01*
X104439271Y-62549489D01*
X104553345Y-61976000D01*
X104536773Y-61892685D01*
X106838602Y-64194515D01*
X106774655Y-64516000D01*
X106888729Y-65089489D01*
X107213585Y-65575670D01*
X107528366Y-65786000D01*
X107213585Y-65996330D01*
X106888729Y-66482511D01*
X106774655Y-67056000D01*
X106888729Y-67629489D01*
X107213585Y-68115670D01*
X107699766Y-68440526D01*
X108273255Y-68554600D01*
X108642745Y-68554600D01*
X109216234Y-68440526D01*
X109702415Y-68115670D01*
X110027271Y-67629489D01*
X110141345Y-67056000D01*
X110027271Y-66482511D01*
X109702415Y-65996330D01*
X109387634Y-65786000D01*
X109702415Y-65575670D01*
X110027271Y-65089489D01*
X110141345Y-64516000D01*
X110027271Y-63942511D01*
X109702415Y-63456330D01*
X109680220Y-63441500D01*
X109833698Y-63377927D01*
X110012327Y-63199299D01*
X110109000Y-62965910D01*
X110109000Y-62261750D01*
X109950250Y-62103000D01*
X108585000Y-62103000D01*
X108585000Y-62123000D01*
X108331000Y-62123000D01*
X108331000Y-62103000D01*
X108311000Y-62103000D01*
X108311000Y-62022302D01*
X110858856Y-62022302D01*
X110886638Y-62577368D01*
X111045603Y-62961143D01*
X111287787Y-63030608D01*
X112088395Y-62230000D01*
X112447605Y-62230000D01*
X113248213Y-63030608D01*
X113490397Y-62961143D01*
X113652540Y-62506661D01*
X126110758Y-62506661D01*
X126322990Y-63020303D01*
X126715630Y-63413629D01*
X126907727Y-63493395D01*
X126776857Y-63547603D01*
X126707392Y-63789787D01*
X127508000Y-64590395D01*
X128308608Y-63789787D01*
X128298344Y-63754000D01*
X132092960Y-63754000D01*
X132092960Y-65786000D01*
X132142243Y-66033765D01*
X132282591Y-66243809D01*
X132492635Y-66384157D01*
X132740400Y-66433440D01*
X134467600Y-66433440D01*
X134715365Y-66384157D01*
X134925409Y-66243809D01*
X135065757Y-66033765D01*
X135083694Y-65943590D01*
X135241964Y-66120732D01*
X135769209Y-66374709D01*
X135784974Y-66377358D01*
X136017000Y-66256217D01*
X136017000Y-64897000D01*
X135997000Y-64897000D01*
X135997000Y-64643000D01*
X136017000Y-64643000D01*
X136017000Y-63283783D01*
X135784974Y-63162642D01*
X135769209Y-63165291D01*
X135241964Y-63419268D01*
X135083694Y-63596410D01*
X135065757Y-63506235D01*
X134925409Y-63296191D01*
X134715365Y-63155843D01*
X134467600Y-63106560D01*
X132740400Y-63106560D01*
X132492635Y-63155843D01*
X132282591Y-63296191D01*
X132142243Y-63506235D01*
X132092960Y-63754000D01*
X128298344Y-63754000D01*
X128239143Y-63547603D01*
X128098682Y-63497491D01*
X128298303Y-63415010D01*
X128691629Y-63022370D01*
X128904757Y-62509100D01*
X128905242Y-61953339D01*
X128693010Y-61439697D01*
X128300370Y-61046371D01*
X127787100Y-60833243D01*
X127231339Y-60832758D01*
X126717697Y-61044990D01*
X126324371Y-61437630D01*
X126111243Y-61950900D01*
X126110758Y-62506661D01*
X113652540Y-62506661D01*
X113677144Y-62437698D01*
X113649362Y-61882632D01*
X113490397Y-61498857D01*
X113248213Y-61429392D01*
X112447605Y-62230000D01*
X112088395Y-62230000D01*
X111287787Y-61429392D01*
X111045603Y-61498857D01*
X110858856Y-62022302D01*
X108311000Y-62022302D01*
X108311000Y-61849000D01*
X108331000Y-61849000D01*
X108331000Y-60636150D01*
X108585000Y-60636150D01*
X108585000Y-61849000D01*
X109950250Y-61849000D01*
X110109000Y-61690250D01*
X110109000Y-61249787D01*
X111467392Y-61249787D01*
X112268000Y-62050395D01*
X113068608Y-61249787D01*
X112999143Y-61007603D01*
X112475698Y-60820856D01*
X111920632Y-60848638D01*
X111536857Y-61007603D01*
X111467392Y-61249787D01*
X110109000Y-61249787D01*
X110109000Y-60986090D01*
X110012327Y-60752701D01*
X109833698Y-60574073D01*
X109600309Y-60477400D01*
X108743750Y-60477400D01*
X108585000Y-60636150D01*
X108331000Y-60636150D01*
X108172250Y-60477400D01*
X107315691Y-60477400D01*
X107082302Y-60574073D01*
X106903673Y-60752701D01*
X106807000Y-60986090D01*
X106807000Y-61690250D01*
X106965748Y-61848998D01*
X106807000Y-61848998D01*
X106807000Y-61871887D01*
X105121010Y-60185898D01*
X105121010Y-58184610D01*
X105075471Y-57955670D01*
X105059353Y-57874637D01*
X104883767Y-57611854D01*
X104489398Y-57217485D01*
X104553345Y-56896000D01*
X104439271Y-56322511D01*
X104114415Y-55836330D01*
X103799634Y-55626000D01*
X104114415Y-55415670D01*
X104439271Y-54929489D01*
X104553345Y-54356000D01*
X104452298Y-53848000D01*
X108318560Y-53848000D01*
X108318560Y-55880000D01*
X108367843Y-56127765D01*
X108508191Y-56337809D01*
X108718235Y-56478157D01*
X108966000Y-56527440D01*
X110998000Y-56527440D01*
X111245765Y-56478157D01*
X111455809Y-56337809D01*
X111560662Y-56180887D01*
X111657182Y-56270385D01*
X112139056Y-56469975D01*
X112395000Y-56350836D01*
X112395000Y-54991000D01*
X112649000Y-54991000D01*
X112649000Y-56350836D01*
X112904944Y-56469975D01*
X113386818Y-56270385D01*
X113859188Y-55832379D01*
X114127983Y-55246946D01*
X114122373Y-55234840D01*
X124211358Y-55234840D01*
X124429044Y-56329224D01*
X125048963Y-57256997D01*
X125976736Y-57876916D01*
X127071120Y-58094602D01*
X128165504Y-57876916D01*
X129093277Y-57256997D01*
X129713196Y-56329224D01*
X129930882Y-55234840D01*
X129713196Y-54140456D01*
X129093277Y-53212683D01*
X128165504Y-52592764D01*
X127071120Y-52375078D01*
X125976736Y-52592764D01*
X125048963Y-53212683D01*
X124429044Y-54140456D01*
X124211358Y-55234840D01*
X114122373Y-55234840D01*
X114009367Y-54991000D01*
X112649000Y-54991000D01*
X112395000Y-54991000D01*
X112375000Y-54991000D01*
X112375000Y-54737000D01*
X112395000Y-54737000D01*
X112395000Y-53377164D01*
X112649000Y-53377164D01*
X112649000Y-54737000D01*
X114009367Y-54737000D01*
X114127983Y-54481054D01*
X113859188Y-53895621D01*
X113386818Y-53457615D01*
X112904944Y-53258025D01*
X112649000Y-53377164D01*
X112395000Y-53377164D01*
X112139056Y-53258025D01*
X111657182Y-53457615D01*
X111560662Y-53547113D01*
X111455809Y-53390191D01*
X111245765Y-53249843D01*
X110998000Y-53200560D01*
X108966000Y-53200560D01*
X108718235Y-53249843D01*
X108508191Y-53390191D01*
X108367843Y-53600235D01*
X108318560Y-53848000D01*
X104452298Y-53848000D01*
X104439271Y-53782511D01*
X104114415Y-53296330D01*
X103628234Y-52971474D01*
X103054745Y-52857400D01*
X102685255Y-52857400D01*
X102111766Y-52971474D01*
X101625585Y-53296330D01*
X101300729Y-53782511D01*
X101186655Y-54356000D01*
X100786000Y-54356000D01*
X100786000Y-52018000D01*
X148642000Y-52018000D01*
X148642000Y-99366000D01*
X148642000Y-99366000D01*
G37*
X148642000Y-99366000D02*
X100786000Y-99366000D01*
X100786000Y-97313750D01*
X101473000Y-97313750D01*
X101473000Y-98017910D01*
X101569673Y-98251299D01*
X101748302Y-98429927D01*
X101981691Y-98526600D01*
X102838250Y-98526600D01*
X102997000Y-98367850D01*
X102997000Y-97155000D01*
X103251000Y-97155000D01*
X103251000Y-98367850D01*
X103409750Y-98526600D01*
X104266309Y-98526600D01*
X104499698Y-98429927D01*
X104678327Y-98251299D01*
X104775000Y-98017910D01*
X104775000Y-97313750D01*
X106553000Y-97313750D01*
X106553000Y-98017910D01*
X106649673Y-98251299D01*
X106828302Y-98429927D01*
X107061691Y-98526600D01*
X107918250Y-98526600D01*
X108077000Y-98367850D01*
X108077000Y-97155000D01*
X108331000Y-97155000D01*
X108331000Y-98367850D01*
X108489750Y-98526600D01*
X109346309Y-98526600D01*
X109579698Y-98429927D01*
X109758327Y-98251299D01*
X109855000Y-98017910D01*
X109855000Y-97313750D01*
X109696250Y-97155000D01*
X108331000Y-97155000D01*
X108077000Y-97155000D01*
X106711750Y-97155000D01*
X106553000Y-97313750D01*
X104775000Y-97313750D01*
X104616250Y-97155000D01*
X103251000Y-97155000D01*
X102997000Y-97155000D01*
X101631750Y-97155000D01*
X101473000Y-97313750D01*
X100786000Y-97313750D01*
X100786000Y-79248000D01*
X101440655Y-79248000D01*
X101554729Y-79821489D01*
X101879585Y-80307670D01*
X102194366Y-80518000D01*
X101879585Y-80728330D01*
X101554729Y-81214511D01*
X101440655Y-81788000D01*
X101554729Y-82361489D01*
X101879585Y-82847670D01*
X102194366Y-83058000D01*
X101879585Y-83268330D01*
X101554729Y-83754511D01*
X101440655Y-84328000D01*
X101554729Y-84901489D01*
X101879585Y-85387670D01*
X102194366Y-85598000D01*
X101879585Y-85808330D01*
X101554729Y-86294511D01*
X101440655Y-86868000D01*
X101554729Y-87441489D01*
X101879585Y-87927670D01*
X102194366Y-88138000D01*
X101879585Y-88348330D01*
X101554729Y-88834511D01*
X101440655Y-89408000D01*
X101554729Y-89981489D01*
X101879585Y-90467670D01*
X102194366Y-90678000D01*
X101879585Y-90888330D01*
X101554729Y-91374511D01*
X101440655Y-91948000D01*
X101554729Y-92521489D01*
X101879585Y-93007670D01*
X102194366Y-93218000D01*
X101879585Y-93428330D01*
X101554729Y-93914511D01*
X101440655Y-94488000D01*
X101554729Y-95061489D01*
X101879585Y-95547670D01*
X101901780Y-95562500D01*
X101748302Y-95626073D01*
X101569673Y-95804701D01*
X101473000Y-96038090D01*
X101473000Y-96742250D01*
X101631750Y-96901000D01*
X102997000Y-96901000D01*
X102997000Y-96881000D01*
X103251000Y-96881000D01*
X103251000Y-96901000D01*
X104616250Y-96901000D01*
X104775000Y-96742250D01*
X104775000Y-96038090D01*
X104678327Y-95804701D01*
X104499698Y-95626073D01*
X104346220Y-95562500D01*
X104368415Y-95547670D01*
X104693271Y-95061489D01*
X104807345Y-94488000D01*
X104693271Y-93914511D01*
X104368415Y-93428330D01*
X104053634Y-93218000D01*
X104368415Y-93007670D01*
X104693271Y-92521489D01*
X104807345Y-91948000D01*
X104693271Y-91374511D01*
X104368415Y-90888330D01*
X104053634Y-90678000D01*
X104368415Y-90467670D01*
X104693271Y-89981489D01*
X104807345Y-89408000D01*
X104693271Y-88834511D01*
X104368415Y-88348330D01*
X104053634Y-88138000D01*
X104368415Y-87927670D01*
X104693271Y-87441489D01*
X104807345Y-86868000D01*
X104693271Y-86294511D01*
X104368415Y-85808330D01*
X104053634Y-85598000D01*
X104368415Y-85387670D01*
X104693271Y-84901489D01*
X104807345Y-84328000D01*
X104693271Y-83754511D01*
X104368415Y-83268330D01*
X104053634Y-83058000D01*
X104368415Y-82847670D01*
X104693271Y-82361489D01*
X104807345Y-81788000D01*
X104693271Y-81214511D01*
X104368415Y-80728330D01*
X104053634Y-80518000D01*
X104368415Y-80307670D01*
X104693271Y-79821489D01*
X104807345Y-79248000D01*
X104693271Y-78674511D01*
X104368415Y-78188330D01*
X103882234Y-77863474D01*
X103308745Y-77749400D01*
X102939255Y-77749400D01*
X102365766Y-77863474D01*
X101879585Y-78188330D01*
X101554729Y-78674511D01*
X101440655Y-79248000D01*
X100786000Y-79248000D01*
X100786000Y-73945750D01*
X101625400Y-73945750D01*
X101625400Y-74802309D01*
X101722073Y-75035698D01*
X101900701Y-75214327D01*
X102134090Y-75311000D01*
X102838250Y-75311000D01*
X102997000Y-75152250D01*
X102997000Y-73787000D01*
X101784150Y-73787000D01*
X101625400Y-73945750D01*
X100786000Y-73945750D01*
X100786000Y-72517691D01*
X101625400Y-72517691D01*
X101625400Y-73374250D01*
X101784150Y-73533000D01*
X102997000Y-73533000D01*
X102997000Y-72167750D01*
X103251000Y-72167750D01*
X103251000Y-73533000D01*
X103271000Y-73533000D01*
X103271000Y-73787000D01*
X103251000Y-73787000D01*
X103251000Y-75152250D01*
X103409750Y-75311000D01*
X104113910Y-75311000D01*
X104347299Y-75214327D01*
X104525927Y-75035698D01*
X104589500Y-74882220D01*
X104604330Y-74904415D01*
X104854000Y-75071239D01*
X104854000Y-92100400D01*
X104915658Y-92410374D01*
X105091244Y-92673156D01*
X106584602Y-94166515D01*
X106520655Y-94488000D01*
X106634729Y-95061489D01*
X106959585Y-95547670D01*
X106981780Y-95562500D01*
X106828302Y-95626073D01*
X106649673Y-95804701D01*
X106553000Y-96038090D01*
X106553000Y-96742250D01*
X106711750Y-96901000D01*
X108077000Y-96901000D01*
X108077000Y-96881000D01*
X108331000Y-96881000D01*
X108331000Y-96901000D01*
X109696250Y-96901000D01*
X109855000Y-96742250D01*
X109855000Y-96038090D01*
X109758327Y-95804701D01*
X109579698Y-95626073D01*
X109426220Y-95562500D01*
X109448415Y-95547670D01*
X109773271Y-95061489D01*
X109887345Y-94488000D01*
X109773271Y-93914511D01*
X109448415Y-93428330D01*
X109133634Y-93218000D01*
X109448415Y-93007670D01*
X109773271Y-92521489D01*
X109887345Y-91948000D01*
X109773271Y-91374511D01*
X109448415Y-90888330D01*
X108962234Y-90563474D01*
X108388745Y-90449400D01*
X108019255Y-90449400D01*
X107445766Y-90563474D01*
X106959585Y-90888330D01*
X106634729Y-91374511D01*
X106543295Y-91834183D01*
X106474000Y-91764888D01*
X106474000Y-84577132D01*
X106738167Y-84577362D01*
X107081943Y-84435317D01*
X107130144Y-84387200D01*
X111047178Y-84387200D01*
X110871243Y-84810900D01*
X110870758Y-85366661D01*
X111082990Y-85880303D01*
X111475630Y-86273629D01*
X111683512Y-86359949D01*
X111477697Y-86444990D01*
X111084371Y-86837630D01*
X110871243Y-87350900D01*
X110870758Y-87906661D01*
X111082990Y-88420303D01*
X111475630Y-88813629D01*
X111683512Y-88899949D01*
X111477697Y-88984990D01*
X111084371Y-89377630D01*
X110871243Y-89890900D01*
X110870758Y-90446661D01*
X111082990Y-90960303D01*
X111475630Y-91353629D01*
X111683512Y-91439949D01*
X111477697Y-91524990D01*
X111084371Y-91917630D01*
X110871243Y-92430900D01*
X110870758Y-92986661D01*
X111082990Y-93500303D01*
X111475630Y-93893629D01*
X111683512Y-93979949D01*
X111477697Y-94064990D01*
X111084371Y-94457630D01*
X110871243Y-94970900D01*
X110870758Y-95526661D01*
X111082990Y-96040303D01*
X111475630Y-96433629D01*
X111988900Y-96646757D01*
X112544661Y-96647242D01*
X113058303Y-96435010D01*
X113451629Y-96042370D01*
X113537949Y-95834488D01*
X113622990Y-96040303D01*
X114015630Y-96433629D01*
X114528900Y-96646757D01*
X115084661Y-96647242D01*
X115598303Y-96435010D01*
X115991629Y-96042370D01*
X116077949Y-95834488D01*
X116162990Y-96040303D01*
X116555630Y-96433629D01*
X117068900Y-96646757D01*
X117624661Y-96647242D01*
X118138303Y-96435010D01*
X118343457Y-96230213D01*
X119087392Y-96230213D01*
X119156857Y-96472397D01*
X119680302Y-96659144D01*
X120235368Y-96631362D01*
X120619143Y-96472397D01*
X120688608Y-96230213D01*
X119888000Y-95429605D01*
X119087392Y-96230213D01*
X118343457Y-96230213D01*
X118531629Y-96042370D01*
X118611395Y-95850273D01*
X118665603Y-95981143D01*
X118907787Y-96050608D01*
X119708395Y-95250000D01*
X118907787Y-94449392D01*
X118665603Y-94518857D01*
X118615491Y-94659318D01*
X118533010Y-94459697D01*
X118343432Y-94269787D01*
X119087392Y-94269787D01*
X119888000Y-95070395D01*
X120688608Y-94269787D01*
X120619143Y-94027603D01*
X120095698Y-93840856D01*
X119540632Y-93868638D01*
X119156857Y-94027603D01*
X119087392Y-94269787D01*
X118343432Y-94269787D01*
X118140370Y-94066371D01*
X117627100Y-93853243D01*
X117071339Y-93852758D01*
X116557697Y-94064990D01*
X116164371Y-94457630D01*
X116078051Y-94665512D01*
X115993010Y-94459697D01*
X115600370Y-94066371D01*
X115087100Y-93853243D01*
X114531339Y-93852758D01*
X114017697Y-94064990D01*
X113624371Y-94457630D01*
X113538051Y-94665512D01*
X113453010Y-94459697D01*
X113060370Y-94066371D01*
X112852488Y-93980051D01*
X113058303Y-93895010D01*
X113451629Y-93502370D01*
X113664757Y-92989100D01*
X113665242Y-92433339D01*
X113453010Y-91919697D01*
X113060370Y-91526371D01*
X112852488Y-91440051D01*
X113058303Y-91355010D01*
X113451629Y-90962370D01*
X113664757Y-90449100D01*
X113665242Y-89893339D01*
X113453010Y-89379697D01*
X113060370Y-88986371D01*
X112852488Y-88900051D01*
X113058303Y-88815010D01*
X113451629Y-88422370D01*
X113664757Y-87909100D01*
X113665242Y-87353339D01*
X113453010Y-86839697D01*
X113060370Y-86446371D01*
X112852488Y-86360051D01*
X113058303Y-86275010D01*
X113451629Y-85882370D01*
X113664757Y-85369100D01*
X113665242Y-84813339D01*
X113489165Y-84387200D01*
X126287178Y-84387200D01*
X126111243Y-84810900D01*
X126110758Y-85366661D01*
X126322990Y-85880303D01*
X126715630Y-86273629D01*
X126923512Y-86359949D01*
X126717697Y-86444990D01*
X126324371Y-86837630D01*
X126111243Y-87350900D01*
X126110758Y-87906661D01*
X126322990Y-88420303D01*
X126715630Y-88813629D01*
X126923512Y-88899949D01*
X126717697Y-88984990D01*
X126324371Y-89377630D01*
X126111243Y-89890900D01*
X126110758Y-90446661D01*
X126322990Y-90960303D01*
X126715630Y-91353629D01*
X126923512Y-91439949D01*
X126717697Y-91524990D01*
X126324371Y-91917630D01*
X126111243Y-92430900D01*
X126110758Y-92986661D01*
X126322990Y-93500303D01*
X126715630Y-93893629D01*
X126923512Y-93979949D01*
X126717697Y-94064990D01*
X126324371Y-94457630D01*
X126238051Y-94665512D01*
X126153010Y-94459697D01*
X125760370Y-94066371D01*
X125247100Y-93853243D01*
X124691339Y-93852758D01*
X124177697Y-94064990D01*
X123784371Y-94457630D01*
X123698051Y-94665512D01*
X123613010Y-94459697D01*
X123220370Y-94066371D01*
X122707100Y-93853243D01*
X122151339Y-93852758D01*
X121637697Y-94064990D01*
X121244371Y-94457630D01*
X121164605Y-94649727D01*
X121110397Y-94518857D01*
X120868213Y-94449392D01*
X120067605Y-95250000D01*
X120868213Y-96050608D01*
X121110397Y-95981143D01*
X121160509Y-95840682D01*
X121242990Y-96040303D01*
X121635630Y-96433629D01*
X122148900Y-96646757D01*
X122704661Y-96647242D01*
X123218303Y-96435010D01*
X123611629Y-96042370D01*
X123697949Y-95834488D01*
X123782990Y-96040303D01*
X124175630Y-96433629D01*
X124688900Y-96646757D01*
X125244661Y-96647242D01*
X125758303Y-96435010D01*
X126151629Y-96042370D01*
X126237949Y-95834488D01*
X126322990Y-96040303D01*
X126715630Y-96433629D01*
X127228900Y-96646757D01*
X127784661Y-96647242D01*
X128298303Y-96435010D01*
X128691629Y-96042370D01*
X128704239Y-96012000D01*
X132346960Y-96012000D01*
X132346960Y-98044000D01*
X132396243Y-98291765D01*
X132536591Y-98501809D01*
X132746635Y-98642157D01*
X132994400Y-98691440D01*
X134721600Y-98691440D01*
X134969365Y-98642157D01*
X135179409Y-98501809D01*
X135319757Y-98291765D01*
X135337694Y-98201590D01*
X135495964Y-98378732D01*
X136023209Y-98632709D01*
X136038974Y-98635358D01*
X136271000Y-98514217D01*
X136271000Y-97155000D01*
X136251000Y-97155000D01*
X136251000Y-96901000D01*
X136271000Y-96901000D01*
X136271000Y-95541783D01*
X136038974Y-95420642D01*
X136023209Y-95423291D01*
X135495964Y-95677268D01*
X135337694Y-95854410D01*
X135319757Y-95764235D01*
X135179409Y-95554191D01*
X134969365Y-95413843D01*
X134721600Y-95364560D01*
X132994400Y-95364560D01*
X132746635Y-95413843D01*
X132536591Y-95554191D01*
X132396243Y-95764235D01*
X132346960Y-96012000D01*
X128704239Y-96012000D01*
X128904757Y-95529100D01*
X128905242Y-94973339D01*
X128693010Y-94459697D01*
X128300370Y-94066371D01*
X128092488Y-93980051D01*
X128298303Y-93895010D01*
X128691629Y-93502370D01*
X128904757Y-92989100D01*
X128905242Y-92433339D01*
X128693010Y-91919697D01*
X128467707Y-91694000D01*
X132346960Y-91694000D01*
X132346960Y-93726000D01*
X132396243Y-93973765D01*
X132536591Y-94183809D01*
X132746635Y-94324157D01*
X132994400Y-94373440D01*
X134721600Y-94373440D01*
X134969365Y-94324157D01*
X135179409Y-94183809D01*
X135319757Y-93973765D01*
X135337694Y-93883590D01*
X135495964Y-94060732D01*
X136023209Y-94314709D01*
X136038974Y-94317358D01*
X136271000Y-94196217D01*
X136271000Y-92837000D01*
X136251000Y-92837000D01*
X136251000Y-92583000D01*
X136271000Y-92583000D01*
X136271000Y-91223783D01*
X136038974Y-91102642D01*
X136023209Y-91105291D01*
X135495964Y-91359268D01*
X135337694Y-91536410D01*
X135319757Y-91446235D01*
X135179409Y-91236191D01*
X134969365Y-91095843D01*
X134721600Y-91046560D01*
X132994400Y-91046560D01*
X132746635Y-91095843D01*
X132536591Y-91236191D01*
X132396243Y-91446235D01*
X132346960Y-91694000D01*
X128467707Y-91694000D01*
X128300370Y-91526371D01*
X128092488Y-91440051D01*
X128298303Y-91355010D01*
X128691629Y-90962370D01*
X128904757Y-90449100D01*
X128905242Y-89893339D01*
X128693010Y-89379697D01*
X128300370Y-88986371D01*
X128092488Y-88900051D01*
X128298303Y-88815010D01*
X128691629Y-88422370D01*
X128904757Y-87909100D01*
X128905222Y-87376000D01*
X132346960Y-87376000D01*
X132346960Y-89408000D01*
X132396243Y-89655765D01*
X132536591Y-89865809D01*
X132746635Y-90006157D01*
X132994400Y-90055440D01*
X134721600Y-90055440D01*
X134969365Y-90006157D01*
X135179409Y-89865809D01*
X135319757Y-89655765D01*
X135337694Y-89565590D01*
X135495964Y-89742732D01*
X136023209Y-89996709D01*
X136038974Y-89999358D01*
X136271000Y-89878217D01*
X136271000Y-88519000D01*
X136251000Y-88519000D01*
X136251000Y-88265000D01*
X136271000Y-88265000D01*
X136271000Y-86905783D01*
X136038974Y-86784642D01*
X136023209Y-86787291D01*
X135495964Y-87041268D01*
X135337694Y-87218410D01*
X135319757Y-87128235D01*
X135179409Y-86918191D01*
X134969365Y-86777843D01*
X134721600Y-86728560D01*
X132994400Y-86728560D01*
X132746635Y-86777843D01*
X132536591Y-86918191D01*
X132396243Y-87128235D01*
X132346960Y-87376000D01*
X128905222Y-87376000D01*
X128905242Y-87353339D01*
X128693010Y-86839697D01*
X128300370Y-86446371D01*
X128092488Y-86360051D01*
X128298303Y-86275010D01*
X128691629Y-85882370D01*
X128904757Y-85369100D01*
X128905242Y-84813339D01*
X128729165Y-84387200D01*
X132535759Y-84387200D01*
X132535764Y-84387201D01*
X132820863Y-84330490D01*
X133062559Y-84168995D01*
X138675459Y-78556094D01*
X138646258Y-78626418D01*
X138645934Y-78998384D01*
X138787979Y-79342160D01*
X138855586Y-79409885D01*
X138734788Y-79530473D01*
X138592142Y-79874001D01*
X138591818Y-80245967D01*
X138733863Y-80589743D01*
X138996653Y-80852992D01*
X139340181Y-80995638D01*
X139408287Y-80995697D01*
X140733000Y-82320409D01*
X140733000Y-86937329D01*
X140418330Y-87147585D01*
X140208000Y-87462366D01*
X139997670Y-87147585D01*
X139511489Y-86822729D01*
X138938000Y-86708655D01*
X138364511Y-86822729D01*
X137878330Y-87147585D01*
X137671539Y-87457069D01*
X137300036Y-87041268D01*
X136772791Y-86787291D01*
X136757026Y-86784642D01*
X136525000Y-86905783D01*
X136525000Y-88265000D01*
X136545000Y-88265000D01*
X136545000Y-88519000D01*
X136525000Y-88519000D01*
X136525000Y-89878217D01*
X136757026Y-89999358D01*
X136772791Y-89996709D01*
X137300036Y-89742732D01*
X137671539Y-89326931D01*
X137878330Y-89636415D01*
X138284330Y-89907695D01*
X138201688Y-89990193D01*
X138059042Y-90333721D01*
X138058718Y-90705687D01*
X138200763Y-91049463D01*
X138320935Y-91169845D01*
X137878330Y-91465585D01*
X137671539Y-91775069D01*
X137300036Y-91359268D01*
X136772791Y-91105291D01*
X136757026Y-91102642D01*
X136525000Y-91223783D01*
X136525000Y-92583000D01*
X136545000Y-92583000D01*
X136545000Y-92837000D01*
X136525000Y-92837000D01*
X136525000Y-94196217D01*
X136757026Y-94317358D01*
X136772791Y-94314709D01*
X137300036Y-94060732D01*
X137671539Y-93644931D01*
X137878330Y-93954415D01*
X138364511Y-94279271D01*
X138938000Y-94393345D01*
X139339706Y-94313441D01*
X139187208Y-94465673D01*
X139044562Y-94809201D01*
X139044238Y-95181167D01*
X139127352Y-95382319D01*
X138938000Y-95344655D01*
X138364511Y-95458729D01*
X137878330Y-95783585D01*
X137671539Y-96093069D01*
X137300036Y-95677268D01*
X136772791Y-95423291D01*
X136757026Y-95420642D01*
X136525000Y-95541783D01*
X136525000Y-96901000D01*
X136545000Y-96901000D01*
X136545000Y-97155000D01*
X136525000Y-97155000D01*
X136525000Y-98514217D01*
X136757026Y-98635358D01*
X136772791Y-98632709D01*
X137300036Y-98378732D01*
X137671539Y-97962931D01*
X137878330Y-98272415D01*
X138364511Y-98597271D01*
X138938000Y-98711345D01*
X139511489Y-98597271D01*
X139997670Y-98272415D01*
X140208000Y-97957634D01*
X140418330Y-98272415D01*
X140904511Y-98597271D01*
X141478000Y-98711345D01*
X142051489Y-98597271D01*
X142537670Y-98272415D01*
X142862526Y-97786234D01*
X142976600Y-97212745D01*
X142976600Y-96843255D01*
X142862526Y-96269766D01*
X142537670Y-95783585D01*
X142051489Y-95458729D01*
X141478000Y-95344655D01*
X140904511Y-95458729D01*
X140707317Y-95590490D01*
X140771592Y-95526327D01*
X140914238Y-95182799D01*
X140914344Y-95060937D01*
X140967689Y-94981100D01*
X140978687Y-94925811D01*
X141024400Y-94696001D01*
X141024399Y-94695996D01*
X141024399Y-94303118D01*
X141478000Y-94393345D01*
X142051489Y-94279271D01*
X142537670Y-93954415D01*
X142862526Y-93468234D01*
X142976600Y-92894745D01*
X142976600Y-92525255D01*
X142863346Y-91955889D01*
X142990621Y-91930572D01*
X143232317Y-91769077D01*
X143587960Y-91413433D01*
X143587960Y-93275087D01*
X142990825Y-93872221D01*
X142829330Y-94113917D01*
X142810637Y-94207893D01*
X142725428Y-94292953D01*
X142582782Y-94636481D01*
X142582458Y-95008447D01*
X142724503Y-95352223D01*
X142987293Y-95615472D01*
X143330821Y-95758118D01*
X143702787Y-95758442D01*
X144046563Y-95616397D01*
X144309812Y-95353607D01*
X144452458Y-95010079D01*
X144452782Y-94638113D01*
X144417501Y-94552725D01*
X144859752Y-94110473D01*
X144859755Y-94110471D01*
X145021250Y-93868775D01*
X145024436Y-93852758D01*
X145077961Y-93583676D01*
X145077960Y-93583671D01*
X145077960Y-84522374D01*
X146160232Y-83440101D01*
X146160235Y-83440099D01*
X146321730Y-83198403D01*
X146340423Y-83104427D01*
X146425632Y-83019367D01*
X146568278Y-82675839D01*
X146568602Y-82303873D01*
X146426557Y-81960097D01*
X146163767Y-81696848D01*
X145820239Y-81554202D01*
X145448273Y-81553878D01*
X145104497Y-81695923D01*
X144841248Y-81958713D01*
X144698602Y-82302241D01*
X144698278Y-82674207D01*
X144733560Y-82759595D01*
X144223919Y-83269236D01*
X144188463Y-83233718D01*
X143844935Y-83091072D01*
X143472969Y-83090748D01*
X143422598Y-83111561D01*
X143422598Y-81085301D01*
X143422599Y-81085296D01*
X143365888Y-80800197D01*
X143317868Y-80728330D01*
X143204393Y-80558501D01*
X143204390Y-80558499D01*
X142187313Y-79541421D01*
X142187371Y-79474740D01*
X142045326Y-79130964D01*
X141782536Y-78867715D01*
X141480456Y-78742280D01*
X143454816Y-76767919D01*
X143454819Y-76767917D01*
X143616314Y-76526221D01*
X143639898Y-76407657D01*
X143673025Y-76241122D01*
X143673024Y-76241117D01*
X143673024Y-73965301D01*
X143894515Y-74186792D01*
X143894517Y-74186795D01*
X143938226Y-74216000D01*
X144136213Y-74348290D01*
X144421312Y-74405001D01*
X144421317Y-74405000D01*
X145269363Y-74405000D01*
X145316473Y-74452192D01*
X145660001Y-74594838D01*
X146031967Y-74595162D01*
X146375743Y-74453117D01*
X146638992Y-74190327D01*
X146781638Y-73846799D01*
X146781962Y-73474833D01*
X146639917Y-73131057D01*
X146377127Y-72867808D01*
X146033599Y-72725162D01*
X145661633Y-72724838D01*
X145317857Y-72866883D01*
X145269656Y-72915000D01*
X144729901Y-72915000D01*
X143824749Y-72009847D01*
X143824807Y-71943166D01*
X143682762Y-71599390D01*
X143419972Y-71336141D01*
X143076444Y-71193495D01*
X142888610Y-71193331D01*
X142888610Y-66925615D01*
X142888611Y-66925610D01*
X142831900Y-66640511D01*
X142670405Y-66398815D01*
X142284605Y-66013015D01*
X142608526Y-65528234D01*
X142722600Y-64954745D01*
X142722600Y-64585255D01*
X142608526Y-64011766D01*
X142283670Y-63525585D01*
X141797489Y-63200729D01*
X141224000Y-63086655D01*
X140650511Y-63200729D01*
X140164330Y-63525585D01*
X139954000Y-63840366D01*
X139743670Y-63525585D01*
X139257489Y-63200729D01*
X138684000Y-63086655D01*
X138110511Y-63200729D01*
X137624330Y-63525585D01*
X137417539Y-63835069D01*
X137046036Y-63419268D01*
X136518791Y-63165291D01*
X136503026Y-63162642D01*
X136271000Y-63283783D01*
X136271000Y-64643000D01*
X136291000Y-64643000D01*
X136291000Y-64897000D01*
X136271000Y-64897000D01*
X136271000Y-66256217D01*
X136503026Y-66377358D01*
X136518791Y-66374709D01*
X137046036Y-66120732D01*
X137417539Y-65704931D01*
X137624330Y-66014415D01*
X137989164Y-66258189D01*
X137995710Y-66291099D01*
X138157205Y-66532795D01*
X138858610Y-67234200D01*
X138858610Y-68759911D01*
X138430000Y-68674655D01*
X137856511Y-68788729D01*
X137370330Y-69113585D01*
X137163539Y-69423069D01*
X136792036Y-69007268D01*
X136264791Y-68753291D01*
X136249026Y-68750642D01*
X136017000Y-68871783D01*
X136017000Y-70231000D01*
X136037000Y-70231000D01*
X136037000Y-70485000D01*
X136017000Y-70485000D01*
X136017000Y-71844217D01*
X136249026Y-71965358D01*
X136264791Y-71962709D01*
X136792036Y-71708732D01*
X137163539Y-71292931D01*
X137370330Y-71602415D01*
X137856511Y-71927271D01*
X138430000Y-72041345D01*
X139003489Y-71927271D01*
X139389739Y-71669187D01*
X140377027Y-72656474D01*
X140365828Y-72683443D01*
X140365634Y-72906530D01*
X140228041Y-72879160D01*
X140228036Y-72879161D01*
X128817532Y-72879161D01*
X128904757Y-72669100D01*
X128905242Y-72113339D01*
X128693010Y-71599697D01*
X128300370Y-71206371D01*
X128092488Y-71120051D01*
X128298303Y-71035010D01*
X128691629Y-70642370D01*
X128904757Y-70129100D01*
X128905242Y-69573339D01*
X128809655Y-69342000D01*
X131838960Y-69342000D01*
X131838960Y-71374000D01*
X131888243Y-71621765D01*
X132028591Y-71831809D01*
X132238635Y-71972157D01*
X132486400Y-72021440D01*
X134213600Y-72021440D01*
X134461365Y-71972157D01*
X134671409Y-71831809D01*
X134811757Y-71621765D01*
X134829694Y-71531590D01*
X134987964Y-71708732D01*
X135515209Y-71962709D01*
X135530974Y-71965358D01*
X135763000Y-71844217D01*
X135763000Y-70485000D01*
X135743000Y-70485000D01*
X135743000Y-70231000D01*
X135763000Y-70231000D01*
X135763000Y-68871783D01*
X135530974Y-68750642D01*
X135515209Y-68753291D01*
X134987964Y-69007268D01*
X134829694Y-69184410D01*
X134811757Y-69094235D01*
X134671409Y-68884191D01*
X134461365Y-68743843D01*
X134213600Y-68694560D01*
X132486400Y-68694560D01*
X132238635Y-68743843D01*
X132028591Y-68884191D01*
X131888243Y-69094235D01*
X131838960Y-69342000D01*
X128809655Y-69342000D01*
X128693010Y-69059697D01*
X128300370Y-68666371D01*
X128092488Y-68580051D01*
X128298303Y-68495010D01*
X128691629Y-68102370D01*
X128904757Y-67589100D01*
X128905242Y-67033339D01*
X128693010Y-66519697D01*
X128300370Y-66126371D01*
X128108273Y-66046605D01*
X128239143Y-65992397D01*
X128308608Y-65750213D01*
X127508000Y-64949605D01*
X126707392Y-65750213D01*
X126776857Y-65992397D01*
X126917318Y-66042509D01*
X126717697Y-66124990D01*
X126324371Y-66517630D01*
X126111243Y-67030900D01*
X126110758Y-67586661D01*
X126322990Y-68100303D01*
X126715630Y-68493629D01*
X126923512Y-68579949D01*
X126717697Y-68664990D01*
X126324371Y-69057630D01*
X126238051Y-69265512D01*
X126153010Y-69059697D01*
X125760370Y-68666371D01*
X125247100Y-68453243D01*
X124691339Y-68452758D01*
X124177697Y-68664990D01*
X123784371Y-69057630D01*
X123571243Y-69570900D01*
X123570758Y-70126661D01*
X123782990Y-70640303D01*
X124175630Y-71033629D01*
X124383512Y-71119949D01*
X124177697Y-71204990D01*
X123784371Y-71597630D01*
X123571243Y-72110900D01*
X123570758Y-72666661D01*
X123658561Y-72879161D01*
X113577532Y-72879161D01*
X113664757Y-72669100D01*
X113665242Y-72113339D01*
X113453010Y-71599697D01*
X113060370Y-71206371D01*
X112852488Y-71120051D01*
X113058303Y-71035010D01*
X113451629Y-70642370D01*
X113664757Y-70129100D01*
X113665242Y-69573339D01*
X113453010Y-69059697D01*
X113060370Y-68666371D01*
X112852488Y-68580051D01*
X113058303Y-68495010D01*
X113451629Y-68102370D01*
X113664757Y-67589100D01*
X113665242Y-67033339D01*
X113453010Y-66519697D01*
X113060370Y-66126371D01*
X112852488Y-66040051D01*
X113058303Y-65955010D01*
X113451629Y-65562370D01*
X113664757Y-65049100D01*
X113664759Y-65046661D01*
X123570758Y-65046661D01*
X123782990Y-65560303D01*
X124175630Y-65953629D01*
X124688900Y-66166757D01*
X125244661Y-66167242D01*
X125758303Y-65955010D01*
X126151629Y-65562370D01*
X126231395Y-65370273D01*
X126285603Y-65501143D01*
X126527787Y-65570608D01*
X127328395Y-64770000D01*
X127687605Y-64770000D01*
X128488213Y-65570608D01*
X128730397Y-65501143D01*
X128917144Y-64977698D01*
X128889362Y-64422632D01*
X128730397Y-64038857D01*
X128488213Y-63969392D01*
X127687605Y-64770000D01*
X127328395Y-64770000D01*
X126527787Y-63969392D01*
X126285603Y-64038857D01*
X126235491Y-64179318D01*
X126153010Y-63979697D01*
X125760370Y-63586371D01*
X125247100Y-63373243D01*
X124691339Y-63372758D01*
X124177697Y-63584990D01*
X123784371Y-63977630D01*
X123571243Y-64490900D01*
X123570758Y-65046661D01*
X113664759Y-65046661D01*
X113665242Y-64493339D01*
X113453010Y-63979697D01*
X113060370Y-63586371D01*
X112868273Y-63506605D01*
X112999143Y-63452397D01*
X113068608Y-63210213D01*
X112268000Y-62409605D01*
X111467392Y-63210213D01*
X111536857Y-63452397D01*
X111677318Y-63502509D01*
X111477697Y-63584990D01*
X111084371Y-63977630D01*
X110871243Y-64490900D01*
X110870758Y-65046661D01*
X111082990Y-65560303D01*
X111475630Y-65953629D01*
X111683512Y-66039949D01*
X111477697Y-66124990D01*
X111084371Y-66517630D01*
X110871243Y-67030900D01*
X110870758Y-67586661D01*
X111082990Y-68100303D01*
X111475630Y-68493629D01*
X111683512Y-68579949D01*
X111477697Y-68664990D01*
X111084371Y-69057630D01*
X110871243Y-69570900D01*
X110870758Y-70126661D01*
X111082990Y-70640303D01*
X111475630Y-71033629D01*
X111683512Y-71119949D01*
X111477697Y-71204990D01*
X111084371Y-71597630D01*
X110871243Y-72110900D01*
X110870758Y-72666661D01*
X110966207Y-72897666D01*
X110774140Y-72935871D01*
X110532444Y-73097366D01*
X110532442Y-73097369D01*
X109682124Y-73947687D01*
X109702600Y-73844745D01*
X109702600Y-73475255D01*
X109588526Y-72901766D01*
X109263670Y-72415585D01*
X108777489Y-72090729D01*
X108204000Y-71976655D01*
X107630511Y-72090729D01*
X107144330Y-72415585D01*
X106934000Y-72730366D01*
X106723670Y-72415585D01*
X106237489Y-72090729D01*
X105664000Y-71976655D01*
X105090511Y-72090729D01*
X104604330Y-72415585D01*
X104589500Y-72437780D01*
X104525927Y-72284302D01*
X104347299Y-72105673D01*
X104113910Y-72009000D01*
X103409750Y-72009000D01*
X103251000Y-72167750D01*
X102997000Y-72167750D01*
X102838250Y-72009000D01*
X102134090Y-72009000D01*
X101900701Y-72105673D01*
X101722073Y-72284302D01*
X101625400Y-72517691D01*
X100786000Y-72517691D01*
X100786000Y-54356000D01*
X101186655Y-54356000D01*
X101300729Y-54929489D01*
X101625585Y-55415670D01*
X101940366Y-55626000D01*
X101625585Y-55836330D01*
X101300729Y-56322511D01*
X101186655Y-56896000D01*
X101300729Y-57469489D01*
X101625585Y-57955670D01*
X101935069Y-58162461D01*
X101519268Y-58533964D01*
X101265291Y-59061209D01*
X101262642Y-59076974D01*
X101383783Y-59309000D01*
X102743000Y-59309000D01*
X102743000Y-59289000D01*
X102997000Y-59289000D01*
X102997000Y-59309000D01*
X103017000Y-59309000D01*
X103017000Y-59563000D01*
X102997000Y-59563000D01*
X102997000Y-59583000D01*
X102743000Y-59583000D01*
X102743000Y-59563000D01*
X101383783Y-59563000D01*
X101262642Y-59795026D01*
X101265291Y-59810791D01*
X101519268Y-60338036D01*
X101935069Y-60709539D01*
X101625585Y-60916330D01*
X101300729Y-61402511D01*
X101186655Y-61976000D01*
X101300729Y-62549489D01*
X101625585Y-63035670D01*
X101940366Y-63246000D01*
X101625585Y-63456330D01*
X101300729Y-63942511D01*
X101186655Y-64516000D01*
X101300729Y-65089489D01*
X101625585Y-65575670D01*
X101642566Y-65587016D01*
X101606235Y-65594243D01*
X101396191Y-65734591D01*
X101255843Y-65944635D01*
X101206560Y-66192400D01*
X101206560Y-67919600D01*
X101255843Y-68167365D01*
X101396191Y-68377409D01*
X101606235Y-68517757D01*
X101854000Y-68567040D01*
X103886000Y-68567040D01*
X104133765Y-68517757D01*
X104343809Y-68377409D01*
X104484157Y-68167365D01*
X104533440Y-67919600D01*
X104533440Y-66192400D01*
X104484157Y-65944635D01*
X104343809Y-65734591D01*
X104133765Y-65594243D01*
X104097434Y-65587016D01*
X104114415Y-65575670D01*
X104439271Y-65089489D01*
X104553345Y-64516000D01*
X104439271Y-63942511D01*
X104114415Y-63456330D01*
X103799634Y-63246000D01*
X104114415Y-63035670D01*
X104439271Y-62549489D01*
X104553345Y-61976000D01*
X104536773Y-61892685D01*
X106838602Y-64194515D01*
X106774655Y-64516000D01*
X106888729Y-65089489D01*
X107213585Y-65575670D01*
X107528366Y-65786000D01*
X107213585Y-65996330D01*
X106888729Y-66482511D01*
X106774655Y-67056000D01*
X106888729Y-67629489D01*
X107213585Y-68115670D01*
X107699766Y-68440526D01*
X108273255Y-68554600D01*
X108642745Y-68554600D01*
X109216234Y-68440526D01*
X109702415Y-68115670D01*
X110027271Y-67629489D01*
X110141345Y-67056000D01*
X110027271Y-66482511D01*
X109702415Y-65996330D01*
X109387634Y-65786000D01*
X109702415Y-65575670D01*
X110027271Y-65089489D01*
X110141345Y-64516000D01*
X110027271Y-63942511D01*
X109702415Y-63456330D01*
X109680220Y-63441500D01*
X109833698Y-63377927D01*
X110012327Y-63199299D01*
X110109000Y-62965910D01*
X110109000Y-62261750D01*
X109950250Y-62103000D01*
X108585000Y-62103000D01*
X108585000Y-62123000D01*
X108331000Y-62123000D01*
X108331000Y-62103000D01*
X108311000Y-62103000D01*
X108311000Y-62022302D01*
X110858856Y-62022302D01*
X110886638Y-62577368D01*
X111045603Y-62961143D01*
X111287787Y-63030608D01*
X112088395Y-62230000D01*
X112447605Y-62230000D01*
X113248213Y-63030608D01*
X113490397Y-62961143D01*
X113652540Y-62506661D01*
X126110758Y-62506661D01*
X126322990Y-63020303D01*
X126715630Y-63413629D01*
X126907727Y-63493395D01*
X126776857Y-63547603D01*
X126707392Y-63789787D01*
X127508000Y-64590395D01*
X128308608Y-63789787D01*
X128298344Y-63754000D01*
X132092960Y-63754000D01*
X132092960Y-65786000D01*
X132142243Y-66033765D01*
X132282591Y-66243809D01*
X132492635Y-66384157D01*
X132740400Y-66433440D01*
X134467600Y-66433440D01*
X134715365Y-66384157D01*
X134925409Y-66243809D01*
X135065757Y-66033765D01*
X135083694Y-65943590D01*
X135241964Y-66120732D01*
X135769209Y-66374709D01*
X135784974Y-66377358D01*
X136017000Y-66256217D01*
X136017000Y-64897000D01*
X135997000Y-64897000D01*
X135997000Y-64643000D01*
X136017000Y-64643000D01*
X136017000Y-63283783D01*
X135784974Y-63162642D01*
X135769209Y-63165291D01*
X135241964Y-63419268D01*
X135083694Y-63596410D01*
X135065757Y-63506235D01*
X134925409Y-63296191D01*
X134715365Y-63155843D01*
X134467600Y-63106560D01*
X132740400Y-63106560D01*
X132492635Y-63155843D01*
X132282591Y-63296191D01*
X132142243Y-63506235D01*
X132092960Y-63754000D01*
X128298344Y-63754000D01*
X128239143Y-63547603D01*
X128098682Y-63497491D01*
X128298303Y-63415010D01*
X128691629Y-63022370D01*
X128904757Y-62509100D01*
X128905242Y-61953339D01*
X128693010Y-61439697D01*
X128300370Y-61046371D01*
X127787100Y-60833243D01*
X127231339Y-60832758D01*
X126717697Y-61044990D01*
X126324371Y-61437630D01*
X126111243Y-61950900D01*
X126110758Y-62506661D01*
X113652540Y-62506661D01*
X113677144Y-62437698D01*
X113649362Y-61882632D01*
X113490397Y-61498857D01*
X113248213Y-61429392D01*
X112447605Y-62230000D01*
X112088395Y-62230000D01*
X111287787Y-61429392D01*
X111045603Y-61498857D01*
X110858856Y-62022302D01*
X108311000Y-62022302D01*
X108311000Y-61849000D01*
X108331000Y-61849000D01*
X108331000Y-60636150D01*
X108585000Y-60636150D01*
X108585000Y-61849000D01*
X109950250Y-61849000D01*
X110109000Y-61690250D01*
X110109000Y-61249787D01*
X111467392Y-61249787D01*
X112268000Y-62050395D01*
X113068608Y-61249787D01*
X112999143Y-61007603D01*
X112475698Y-60820856D01*
X111920632Y-60848638D01*
X111536857Y-61007603D01*
X111467392Y-61249787D01*
X110109000Y-61249787D01*
X110109000Y-60986090D01*
X110012327Y-60752701D01*
X109833698Y-60574073D01*
X109600309Y-60477400D01*
X108743750Y-60477400D01*
X108585000Y-60636150D01*
X108331000Y-60636150D01*
X108172250Y-60477400D01*
X107315691Y-60477400D01*
X107082302Y-60574073D01*
X106903673Y-60752701D01*
X106807000Y-60986090D01*
X106807000Y-61690250D01*
X106965748Y-61848998D01*
X106807000Y-61848998D01*
X106807000Y-61871887D01*
X105121010Y-60185898D01*
X105121010Y-58184610D01*
X105075471Y-57955670D01*
X105059353Y-57874637D01*
X104883767Y-57611854D01*
X104489398Y-57217485D01*
X104553345Y-56896000D01*
X104439271Y-56322511D01*
X104114415Y-55836330D01*
X103799634Y-55626000D01*
X104114415Y-55415670D01*
X104439271Y-54929489D01*
X104553345Y-54356000D01*
X104452298Y-53848000D01*
X108318560Y-53848000D01*
X108318560Y-55880000D01*
X108367843Y-56127765D01*
X108508191Y-56337809D01*
X108718235Y-56478157D01*
X108966000Y-56527440D01*
X110998000Y-56527440D01*
X111245765Y-56478157D01*
X111455809Y-56337809D01*
X111560662Y-56180887D01*
X111657182Y-56270385D01*
X112139056Y-56469975D01*
X112395000Y-56350836D01*
X112395000Y-54991000D01*
X112649000Y-54991000D01*
X112649000Y-56350836D01*
X112904944Y-56469975D01*
X113386818Y-56270385D01*
X113859188Y-55832379D01*
X114127983Y-55246946D01*
X114122373Y-55234840D01*
X124211358Y-55234840D01*
X124429044Y-56329224D01*
X125048963Y-57256997D01*
X125976736Y-57876916D01*
X127071120Y-58094602D01*
X128165504Y-57876916D01*
X129093277Y-57256997D01*
X129713196Y-56329224D01*
X129930882Y-55234840D01*
X129713196Y-54140456D01*
X129093277Y-53212683D01*
X128165504Y-52592764D01*
X127071120Y-52375078D01*
X125976736Y-52592764D01*
X125048963Y-53212683D01*
X124429044Y-54140456D01*
X124211358Y-55234840D01*
X114122373Y-55234840D01*
X114009367Y-54991000D01*
X112649000Y-54991000D01*
X112395000Y-54991000D01*
X112375000Y-54991000D01*
X112375000Y-54737000D01*
X112395000Y-54737000D01*
X112395000Y-53377164D01*
X112649000Y-53377164D01*
X112649000Y-54737000D01*
X114009367Y-54737000D01*
X114127983Y-54481054D01*
X113859188Y-53895621D01*
X113386818Y-53457615D01*
X112904944Y-53258025D01*
X112649000Y-53377164D01*
X112395000Y-53377164D01*
X112139056Y-53258025D01*
X111657182Y-53457615D01*
X111560662Y-53547113D01*
X111455809Y-53390191D01*
X111245765Y-53249843D01*
X110998000Y-53200560D01*
X108966000Y-53200560D01*
X108718235Y-53249843D01*
X108508191Y-53390191D01*
X108367843Y-53600235D01*
X108318560Y-53848000D01*
X104452298Y-53848000D01*
X104439271Y-53782511D01*
X104114415Y-53296330D01*
X103628234Y-52971474D01*
X103054745Y-52857400D01*
X102685255Y-52857400D01*
X102111766Y-52971474D01*
X101625585Y-53296330D01*
X101300729Y-53782511D01*
X101186655Y-54356000D01*
X100786000Y-54356000D01*
X100786000Y-52018000D01*
X148642000Y-52018000D01*
X148642000Y-99366000D01*
M02*
