G04 #@! TF.FileFunction,Copper,L1,Top,Signal*
%FSLAX46Y46*%
G04 Gerber Fmt 4.6, Leading zero omitted, Abs format (unit mm)*
G04 Created by KiCad (PCBNEW (2016-01-17 BZR 6493, Git da9ca2d)-product) date 19.01.2016 21.57.00*
%MOMM*%
G01*
G04 APERTURE LIST*
%ADD10C,0.100000*%
%ADD11R,0.400000X1.100000*%
%ADD12C,1.524000*%
%ADD13R,1.200000X0.750000*%
%ADD14R,2.032000X1.727200*%
%ADD15O,2.032000X1.727200*%
%ADD16R,1.727200X2.032000*%
%ADD17O,1.727200X2.032000*%
%ADD18R,2.032000X2.032000*%
%ADD19O,2.032000X2.032000*%
%ADD20R,0.900000X1.524000*%
%ADD21R,1.200000X0.900000*%
%ADD22C,0.600000*%
%ADD23C,0.350000*%
%ADD24C,0.220000*%
%ADD25C,0.250000*%
%ADD26C,0.254000*%
G04 APERTURE END LIST*
D10*
D11*
X136887000Y-82352000D03*
X137537000Y-82352000D03*
X138187000Y-82352000D03*
X138837000Y-82352000D03*
X139487000Y-82352000D03*
X140137000Y-82352000D03*
X140787000Y-82352000D03*
X141437000Y-82352000D03*
X142087000Y-82352000D03*
X142737000Y-82352000D03*
X143387000Y-82352000D03*
X144037000Y-82352000D03*
X144037000Y-76652000D03*
X143387000Y-76652000D03*
X142737000Y-76652000D03*
X142087000Y-76652000D03*
X141437000Y-76652000D03*
X140787000Y-76652000D03*
X140137000Y-76652000D03*
X139487000Y-76652000D03*
X138837000Y-76652000D03*
X138187000Y-76652000D03*
X137537000Y-76652000D03*
X136887000Y-76652000D03*
D12*
X112268000Y-67310000D03*
X112268000Y-69850000D03*
X112268000Y-62230000D03*
X112268000Y-64770000D03*
X112268000Y-72390000D03*
X112268000Y-74930000D03*
X112268000Y-77470000D03*
X112268000Y-80010000D03*
X112268000Y-82550000D03*
X112268000Y-85090000D03*
X112268000Y-87630000D03*
X112268000Y-90170000D03*
X112268000Y-92710000D03*
X112268000Y-95250000D03*
X127508000Y-95250000D03*
X127508000Y-92710000D03*
X127508000Y-90170000D03*
X127508000Y-87630000D03*
X127508000Y-85090000D03*
X127508000Y-82550000D03*
X127508000Y-80010000D03*
X127508000Y-77470000D03*
X127508000Y-74930000D03*
X127508000Y-72390000D03*
X127508000Y-69850000D03*
X127508000Y-67310000D03*
X127508000Y-64770000D03*
X127508000Y-62230000D03*
X124968000Y-64770000D03*
X124968000Y-69850000D03*
X124968000Y-72390000D03*
X124968000Y-74930000D03*
X124968000Y-95250000D03*
X122428000Y-95250000D03*
X119888000Y-95250000D03*
X117348000Y-95250000D03*
X114808000Y-95250000D03*
D13*
X120279120Y-54046120D03*
X122179120Y-54046120D03*
D14*
X108458000Y-61976000D03*
D15*
X108458000Y-64516000D03*
X108458000Y-67056000D03*
D16*
X103124000Y-73660000D03*
D17*
X105664000Y-73660000D03*
X108204000Y-73660000D03*
D14*
X108204000Y-97028000D03*
D15*
X108204000Y-94488000D03*
X108204000Y-91948000D03*
D14*
X102870000Y-67056000D03*
D15*
X102870000Y-64516000D03*
X102870000Y-61976000D03*
X102870000Y-59436000D03*
X102870000Y-56896000D03*
X102870000Y-54356000D03*
D18*
X109982000Y-54864000D03*
D19*
X112522000Y-54864000D03*
D20*
X136466000Y-53942000D03*
X132266000Y-53942000D03*
X132266000Y-59342000D03*
X136466000Y-59342000D03*
X144848000Y-53942000D03*
X140648000Y-53942000D03*
X140648000Y-59342000D03*
X144848000Y-59342000D03*
D16*
X133858000Y-88392000D03*
D17*
X136398000Y-88392000D03*
X138938000Y-88392000D03*
X141478000Y-88392000D03*
D16*
X133604000Y-64770000D03*
D17*
X136144000Y-64770000D03*
X138684000Y-64770000D03*
X141224000Y-64770000D03*
D16*
X133858000Y-92710000D03*
D17*
X136398000Y-92710000D03*
X138938000Y-92710000D03*
X141478000Y-92710000D03*
D16*
X133858000Y-97028000D03*
D17*
X136398000Y-97028000D03*
X138938000Y-97028000D03*
X141478000Y-97028000D03*
D16*
X133350000Y-70358000D03*
D17*
X135890000Y-70358000D03*
X138430000Y-70358000D03*
X140970000Y-70358000D03*
D14*
X103124000Y-97028000D03*
D15*
X103124000Y-94488000D03*
X103124000Y-91948000D03*
X103124000Y-89408000D03*
X103124000Y-86868000D03*
X103124000Y-84328000D03*
X103124000Y-81788000D03*
X103124000Y-79248000D03*
D21*
X131234000Y-78232000D03*
X133434000Y-78232000D03*
X131234000Y-80264000D03*
X133434000Y-80264000D03*
X106596000Y-79248000D03*
X108796000Y-79248000D03*
X106596000Y-81788000D03*
X108796000Y-81788000D03*
X147150000Y-87376000D03*
X144950000Y-87376000D03*
X147150000Y-89408000D03*
X144950000Y-89408000D03*
X146896000Y-63754000D03*
X144696000Y-63754000D03*
X147150000Y-91694000D03*
X144950000Y-91694000D03*
X147150000Y-96012000D03*
X144950000Y-96012000D03*
X146896000Y-69342000D03*
X144696000Y-69342000D03*
X144696000Y-65786000D03*
X146896000Y-65786000D03*
X144950000Y-93726000D03*
X147150000Y-93726000D03*
X144563920Y-98036380D03*
X146763920Y-98036380D03*
X144696000Y-71374000D03*
X146896000Y-71374000D03*
X131163060Y-83499960D03*
X133363060Y-83499960D03*
D22*
X136057640Y-84140040D03*
X135636000Y-79202280D03*
X141300666Y-72870242D03*
X106553000Y-83642200D03*
X140528040Y-73924160D03*
X107746800Y-76936600D03*
X139526980Y-80060800D03*
X140380724Y-78788422D03*
X143517620Y-94823280D03*
X145633440Y-82489040D03*
X139581096Y-78813217D03*
X141252209Y-79659907D03*
X138993880Y-90520520D03*
X143658136Y-84025910D03*
X139979400Y-94996000D03*
X142889645Y-72128333D03*
X145846800Y-73660000D03*
D23*
X109982000Y-54864000D02*
X109982000Y-53498000D01*
X109982000Y-53498000D02*
X110057001Y-53422999D01*
X126746001Y-61468001D02*
X127508000Y-62230000D01*
X110057001Y-53422999D02*
X118700999Y-53422999D01*
X118700999Y-53422999D02*
X126746001Y-61468001D01*
X120279120Y-54046120D02*
X120279120Y-55001120D01*
X120279120Y-55001120D02*
X127508000Y-62230000D01*
X120279120Y-54046120D02*
X119329120Y-54046120D01*
X119329120Y-54046120D02*
X118705999Y-53422999D01*
X118705999Y-53422999D02*
X110057001Y-53422999D01*
X126430370Y-62230000D02*
X127508000Y-62230000D01*
D24*
X109982000Y-53628000D02*
X109982000Y-54864000D01*
D23*
X136466000Y-53942000D02*
X137266000Y-53942000D01*
X137266000Y-53942000D02*
X138453001Y-52754999D01*
X138453001Y-52754999D02*
X142860999Y-52754999D01*
X142860999Y-52754999D02*
X144048000Y-53942000D01*
X144048000Y-53942000D02*
X144848000Y-53942000D01*
X127508000Y-62230000D02*
X128269999Y-61468001D01*
X128269999Y-61468001D02*
X128269999Y-61338001D01*
X128269999Y-61338001D02*
X135666000Y-53942000D01*
X135666000Y-53942000D02*
X136466000Y-53942000D01*
X105664000Y-73660000D02*
X105664000Y-67157600D01*
X105664000Y-67157600D02*
X108305600Y-64516000D01*
X108305600Y-64516000D02*
X108458000Y-64516000D01*
D25*
X104902000Y-56896000D02*
X106934000Y-54864000D01*
X106934000Y-54864000D02*
X109982000Y-54864000D01*
X102870000Y-56896000D02*
X104902000Y-56896000D01*
D24*
X137537000Y-82352000D02*
X137537000Y-82702000D01*
X137537000Y-82702000D02*
X136098960Y-84140040D01*
X136098960Y-84140040D02*
X136057640Y-84140040D01*
X144037000Y-81582000D02*
X139967001Y-77512001D01*
X138837000Y-77422000D02*
X138837000Y-76652000D01*
X144037000Y-82352000D02*
X144037000Y-81582000D01*
X139967001Y-77512001D02*
X138927001Y-77512001D01*
X138927001Y-77512001D02*
X138837000Y-77422000D01*
X138837000Y-76652000D02*
X138837000Y-73305000D01*
X138837000Y-73305000D02*
X137126000Y-71594000D01*
X137126000Y-71594000D02*
X136973600Y-71594000D01*
X136973600Y-71594000D02*
X135890000Y-70510400D01*
X135890000Y-70510400D02*
X135890000Y-70358000D01*
X137537000Y-82352000D02*
X136887000Y-82352000D01*
D25*
X112522000Y-61976000D02*
X112268000Y-62230000D01*
D24*
X108458000Y-67056000D02*
X108458000Y-68580000D01*
X108458000Y-68580000D02*
X112268000Y-72390000D01*
X108204000Y-73660000D02*
X110998000Y-73660000D01*
X110998000Y-73660000D02*
X112268000Y-74930000D01*
X112268000Y-67310000D02*
X110647610Y-65689610D01*
X109890560Y-63157100D02*
X105464900Y-63157100D01*
X104106000Y-64516000D02*
X102870000Y-64516000D01*
X110647610Y-65689610D02*
X110647610Y-63914150D01*
X110647610Y-63914150D02*
X109890560Y-63157100D01*
X105464900Y-63157100D02*
X104106000Y-64516000D01*
X127508000Y-82550000D02*
X128580001Y-81477999D01*
X128580001Y-81477999D02*
X128580001Y-79187997D01*
X128580001Y-79187997D02*
X132025999Y-75741999D01*
X132025999Y-75741999D02*
X137396999Y-75741999D01*
X137396999Y-75741999D02*
X137537000Y-75882000D01*
X137537000Y-75882000D02*
X137537000Y-76652000D01*
X133434000Y-78232000D02*
X136727000Y-78232000D01*
X136727000Y-78232000D02*
X137537000Y-77422000D01*
X137537000Y-77422000D02*
X137537000Y-76652000D01*
X133434000Y-80264000D02*
X133584000Y-80264000D01*
X133584000Y-80264000D02*
X134645720Y-79202280D01*
X134645720Y-79202280D02*
X135636000Y-79202280D01*
X133434000Y-80264000D02*
X134254000Y-80264000D01*
X134254000Y-80264000D02*
X134279400Y-80289400D01*
X134279400Y-80289400D02*
X137160000Y-80289400D01*
X137160000Y-80289400D02*
X138187000Y-79262400D01*
X138187000Y-79262400D02*
X138187000Y-76652000D01*
X111080999Y-63582999D02*
X110921800Y-63423800D01*
X110921800Y-63423800D02*
X110921800Y-62002198D01*
X110921800Y-62002198D02*
X109722001Y-60802399D01*
X109722001Y-60802399D02*
X105279601Y-60802399D01*
X105279601Y-60802399D02*
X104106000Y-61976000D01*
X104106000Y-61976000D02*
X102870000Y-61976000D01*
D25*
X111080999Y-63582999D02*
X111506001Y-64008001D01*
X111506001Y-64008001D02*
X112268000Y-64770000D01*
D24*
X112268000Y-77470000D02*
X112268000Y-78423438D01*
X112268000Y-78423438D02*
X109756001Y-80935437D01*
X109756001Y-80935437D02*
X109756001Y-89312399D01*
X109756001Y-89312399D02*
X108204000Y-90864400D01*
X108204000Y-90864400D02*
X108204000Y-91948000D01*
X139705210Y-63443990D02*
X138197875Y-63443990D01*
X134772400Y-66344800D02*
X134772400Y-68855200D01*
X144848000Y-59342000D02*
X143807200Y-59342000D01*
X143807200Y-59342000D02*
X139705210Y-63443990D01*
X135844280Y-66217800D02*
X134899400Y-66217800D01*
X137510390Y-64131475D02*
X137510390Y-64551690D01*
X138197875Y-63443990D02*
X137510390Y-64131475D01*
X137510390Y-64551690D02*
X137317610Y-64744470D01*
X137317610Y-65408525D02*
X136630125Y-66096010D01*
X137317610Y-64744470D02*
X137317610Y-65408525D01*
X115671600Y-91846400D02*
X113029999Y-94488001D01*
X135966070Y-66096010D02*
X135844280Y-66217800D01*
X113029999Y-94488001D02*
X112268000Y-95250000D01*
X134573601Y-69053999D02*
X134573601Y-71662001D01*
X134573601Y-71662001D02*
X130233601Y-76002001D01*
X136630125Y-66096010D02*
X135966070Y-66096010D01*
X134899400Y-66217800D02*
X134772400Y-66344800D01*
X134772400Y-68855200D02*
X134573601Y-69053999D01*
X130233601Y-76002001D02*
X127389437Y-76002001D01*
X127389437Y-76002001D02*
X115671600Y-87719838D01*
X115671600Y-87719838D02*
X115671600Y-91846400D01*
D23*
X133858000Y-88392000D02*
X132644400Y-88392000D01*
X132644400Y-88392000D02*
X131163060Y-86910660D01*
X131163060Y-86910660D02*
X131163060Y-84299960D01*
X131163060Y-84299960D02*
X131163060Y-83499960D01*
X131234000Y-80264000D02*
X131234000Y-83429020D01*
X131234000Y-83429020D02*
X131163060Y-83499960D01*
X146896000Y-63754000D02*
X146896000Y-59412998D01*
X139857999Y-58154999D02*
X139772999Y-58239999D01*
X146896000Y-59412998D02*
X145638001Y-58154999D01*
X137256001Y-60529001D02*
X136625799Y-60529001D01*
X145638001Y-58154999D02*
X139857999Y-58154999D01*
X139772999Y-58239999D02*
X138994619Y-58239999D01*
X138994619Y-58239999D02*
X137357609Y-59877009D01*
X136625799Y-60529001D02*
X133604000Y-63550800D01*
X137357609Y-59877009D02*
X137341001Y-59877009D01*
X137341001Y-59877009D02*
X137341001Y-60444001D01*
X137341001Y-60444001D02*
X137256001Y-60529001D01*
X133604000Y-63550800D02*
X133604000Y-64770000D01*
X146896000Y-65786000D02*
X146896000Y-63754000D01*
X146896000Y-69342000D02*
X146896000Y-68542000D01*
X146896000Y-68542000D02*
X146896000Y-65786000D01*
X146896000Y-71374000D02*
X146896000Y-69342000D01*
X147150000Y-98044000D02*
X147000000Y-98044000D01*
X147000000Y-98044000D02*
X146124999Y-98919001D01*
X146124999Y-98919001D02*
X135596601Y-98919001D01*
X135596601Y-98919001D02*
X133858000Y-97180400D01*
X133858000Y-97180400D02*
X133858000Y-97028000D01*
X108796000Y-79248000D02*
X109746000Y-79248000D01*
X116528838Y-76606400D02*
X125825238Y-67310000D01*
X109746000Y-79248000D02*
X111080999Y-77913001D01*
X111080999Y-77913001D02*
X111080999Y-76900239D01*
X111080999Y-76900239D02*
X111698239Y-76282999D01*
X111698239Y-76282999D02*
X112837761Y-76282999D01*
X112837761Y-76282999D02*
X113161162Y-76606400D01*
X113161162Y-76606400D02*
X116528838Y-76606400D01*
X125825238Y-67310000D02*
X126430370Y-67310000D01*
X126430370Y-67310000D02*
X127508000Y-67310000D01*
X133350000Y-70358000D02*
X133350000Y-65024000D01*
X133350000Y-65024000D02*
X133604000Y-64770000D01*
X127508000Y-67310000D02*
X130454400Y-67310000D01*
X130454400Y-67310000D02*
X133350000Y-70205600D01*
X133350000Y-70205600D02*
X133350000Y-70358000D01*
X133858000Y-92710000D02*
X133858000Y-94076000D01*
X133858000Y-94076000D02*
X133858000Y-97028000D01*
X133858000Y-88392000D02*
X133858000Y-92710000D01*
X147150000Y-96012000D02*
X147150000Y-98044000D01*
X147150000Y-93726000D02*
X147150000Y-96012000D01*
X147150000Y-91694000D02*
X147150000Y-93726000D01*
X147150000Y-89408000D02*
X147150000Y-91694000D01*
X147150000Y-87376000D02*
X147150000Y-89408000D01*
X147150000Y-87376000D02*
X147150000Y-71628000D01*
X147150000Y-71628000D02*
X146896000Y-71374000D01*
X147000000Y-87376000D02*
X147150000Y-87376000D01*
X131234000Y-80264000D02*
X131234000Y-78232000D01*
X131234000Y-80264000D02*
X131234000Y-81064000D01*
X131234000Y-81064000D02*
X131546999Y-81376999D01*
X131546999Y-81376999D02*
X138111999Y-81376999D01*
X138111999Y-81376999D02*
X138187000Y-81452000D01*
X136887000Y-76652000D02*
X132014000Y-76652000D01*
X132014000Y-76652000D02*
X131234000Y-77432000D01*
X131234000Y-77432000D02*
X131234000Y-78232000D01*
X103124000Y-94488000D02*
X103124000Y-91948000D01*
X108796000Y-81788000D02*
X108796000Y-86428400D01*
X108796000Y-86428400D02*
X103276400Y-91948000D01*
X103276400Y-91948000D02*
X103124000Y-91948000D01*
X108796000Y-79248000D02*
X108796000Y-81788000D01*
D24*
X136466000Y-59342000D02*
X137136000Y-59342000D01*
X140648000Y-55830000D02*
X140648000Y-54924000D01*
X137136000Y-59342000D02*
X140648000Y-55830000D01*
X140648000Y-54924000D02*
X140648000Y-53942000D01*
X140137000Y-75882000D02*
X142035621Y-73983379D01*
X140137000Y-76652000D02*
X140137000Y-75882000D01*
X142035621Y-73180933D02*
X141724930Y-72870242D01*
X141724930Y-72870242D02*
X141300666Y-72870242D01*
X142035621Y-73983379D02*
X142035621Y-73180933D01*
X106596000Y-81788000D02*
X106596000Y-83599200D01*
X106596000Y-83599200D02*
X106553000Y-83642200D01*
X103124000Y-81788000D02*
X103276400Y-81788000D01*
X103276400Y-81788000D02*
X106596000Y-81788000D01*
X140228041Y-74224159D02*
X140528040Y-73924160D01*
X139487000Y-74965200D02*
X140228041Y-74224159D01*
X139487000Y-76652000D02*
X139487000Y-74965200D01*
X106596000Y-79248000D02*
X106596000Y-78087400D01*
X106596000Y-78087400D02*
X107746800Y-76936600D01*
X106596000Y-79248000D02*
X103124000Y-79248000D01*
X144950000Y-87376000D02*
X144950000Y-86733200D01*
X144950000Y-86733200D02*
X143713200Y-85496400D01*
X143713200Y-85496400D02*
X138938000Y-85496400D01*
X138938000Y-88392000D02*
X138938000Y-85496400D01*
X138938000Y-85496400D02*
X138938000Y-82453000D01*
X138938000Y-88392000D02*
X138938000Y-88544400D01*
X145100000Y-87376000D02*
X144950000Y-87376000D01*
X138938000Y-82453000D02*
X138837000Y-82352000D01*
X139487000Y-80100780D02*
X139526980Y-80060800D01*
X139487000Y-82352000D02*
X139487000Y-80100780D01*
X141478000Y-88392000D02*
X144604000Y-88392000D01*
X144604000Y-88392000D02*
X144950000Y-88738000D01*
X144950000Y-88738000D02*
X144950000Y-89408000D01*
X140578420Y-78986118D02*
X140380724Y-78788422D01*
X140787000Y-80097502D02*
X140578420Y-79888922D01*
X140787000Y-82352000D02*
X140787000Y-80097502D01*
X140578420Y-79888922D02*
X140578420Y-78986118D01*
X141224000Y-64770000D02*
X142062200Y-64770000D01*
X142062200Y-64770000D02*
X143078200Y-63754000D01*
X143078200Y-63754000D02*
X144696000Y-63754000D01*
X145860001Y-86783003D02*
X143745313Y-84668315D01*
X143745313Y-84668315D02*
X143420210Y-84668315D01*
X144950000Y-91024000D02*
X145860001Y-90113999D01*
X142087000Y-83122000D02*
X142087000Y-82352000D01*
X143420210Y-84668315D02*
X142087000Y-83335105D01*
X142087000Y-83335105D02*
X142087000Y-83122000D01*
X145860001Y-90113999D02*
X145860001Y-86783003D01*
X144950000Y-91694000D02*
X144950000Y-91024000D01*
X141478000Y-92710000D02*
X142561600Y-92710000D01*
X142561600Y-92710000D02*
X143577600Y-91694000D01*
X143577600Y-91694000D02*
X144950000Y-91694000D01*
X143517620Y-94823280D02*
X143761280Y-94823280D01*
X143761280Y-94823280D02*
X144950000Y-96012000D01*
X143387000Y-82352000D02*
X143387000Y-83010002D01*
X144910479Y-83212001D02*
X145633440Y-82489040D01*
X143387000Y-83010002D02*
X143588999Y-83212001D01*
X143588999Y-83212001D02*
X144910479Y-83212001D01*
X141478000Y-97028000D02*
X142561600Y-97028000D01*
X142561600Y-97028000D02*
X143577600Y-96012000D01*
X143577600Y-96012000D02*
X144950000Y-96012000D01*
X143387000Y-76652000D02*
X143387000Y-75882000D01*
X143387000Y-75882000D02*
X143499646Y-75769354D01*
X143499646Y-75769354D02*
X143499646Y-71804046D01*
X143499646Y-71804046D02*
X143387000Y-71691400D01*
X144696000Y-69342000D02*
X143876000Y-69342000D01*
X143876000Y-69342000D02*
X143387000Y-69831000D01*
X143387000Y-69831000D02*
X143387000Y-71691400D01*
X143387000Y-71691400D02*
X142053600Y-70358000D01*
X142053600Y-70358000D02*
X140970000Y-70358000D01*
X139581096Y-78882066D02*
X139581096Y-78813217D01*
X140137000Y-79437970D02*
X139581096Y-78882066D01*
X140137000Y-82352000D02*
X140137000Y-79437970D01*
X138684000Y-64770000D02*
X138684000Y-66006000D01*
X138684000Y-66006000D02*
X139134000Y-66456000D01*
X139134000Y-66456000D02*
X143876000Y-66456000D01*
X143876000Y-66456000D02*
X144546000Y-65786000D01*
X144546000Y-65786000D02*
X144696000Y-65786000D01*
X141437000Y-82352000D02*
X141437000Y-79844698D01*
X141437000Y-79844698D02*
X141252209Y-79659907D01*
X138938000Y-90576400D02*
X138993880Y-90520520D01*
X138938000Y-92710000D02*
X138938000Y-90576400D01*
X138938000Y-92710000D02*
X138938000Y-92862400D01*
X138938000Y-92862400D02*
X140111610Y-94036010D01*
X140111610Y-94036010D02*
X143819990Y-94036010D01*
X143819990Y-94036010D02*
X144130000Y-93726000D01*
X144130000Y-93726000D02*
X144950000Y-93726000D01*
X142737000Y-83122000D02*
X143640910Y-84025910D01*
X143640910Y-84025910D02*
X143658136Y-84025910D01*
X142737000Y-82352000D02*
X142737000Y-83122000D01*
X138938000Y-97028000D02*
X138938000Y-96875600D01*
X138938000Y-96875600D02*
X139979400Y-95834200D01*
X139979400Y-95834200D02*
X139979400Y-94996000D01*
X138938000Y-97028000D02*
X138938000Y-97180400D01*
X138938000Y-97180400D02*
X140111610Y-98354010D01*
X140111610Y-98354010D02*
X143819990Y-98354010D01*
X143819990Y-98354010D02*
X144130000Y-98044000D01*
X144130000Y-98044000D02*
X144950000Y-98044000D01*
X138430000Y-70510400D02*
X140047933Y-72128333D01*
X140047933Y-72128333D02*
X142465381Y-72128333D01*
X142465381Y-72128333D02*
X142889645Y-72128333D01*
X138430000Y-70358000D02*
X138430000Y-70510400D01*
X144696000Y-71374000D02*
X144696000Y-73482200D01*
X145244736Y-73482200D02*
X144696000Y-73482200D01*
X144696000Y-73482200D02*
X144696000Y-76413000D01*
X145846800Y-73660000D02*
X145422536Y-73660000D01*
X145422536Y-73660000D02*
X145244736Y-73482200D01*
X144696000Y-76413000D02*
X144457000Y-76652000D01*
X144457000Y-76652000D02*
X144037000Y-76652000D01*
X138187000Y-83122000D02*
X138187000Y-82352000D01*
X134183060Y-83499960D02*
X135433142Y-84750042D01*
X136558958Y-84750042D02*
X138187000Y-83122000D01*
X133363060Y-83499960D02*
X134183060Y-83499960D01*
X135433142Y-84750042D02*
X136558958Y-84750042D01*
D23*
X138187000Y-81452000D02*
X138187000Y-82352000D01*
D26*
G36*
X138037772Y-52076987D02*
X137880245Y-52182242D01*
X137353720Y-52708768D01*
X137163765Y-52581843D01*
X136916000Y-52532560D01*
X136016000Y-52532560D01*
X135768235Y-52581843D01*
X135558191Y-52722191D01*
X135417843Y-52932235D01*
X135368560Y-53180000D01*
X135368560Y-53191165D01*
X135356026Y-53193658D01*
X135271940Y-53249843D01*
X135093244Y-53369243D01*
X127697243Y-60765245D01*
X127651887Y-60833125D01*
X127256293Y-60832780D01*
X124518115Y-58094602D01*
X121658353Y-55234840D01*
X124211358Y-55234840D01*
X124429044Y-56329224D01*
X125048963Y-57256997D01*
X125976736Y-57876916D01*
X127071120Y-58094602D01*
X128165504Y-57876916D01*
X129093277Y-57256997D01*
X129713196Y-56329224D01*
X129930882Y-55234840D01*
X129713196Y-54140456D01*
X129093277Y-53212683D01*
X129044364Y-53180000D01*
X131168560Y-53180000D01*
X131168560Y-54704000D01*
X131217843Y-54951765D01*
X131358191Y-55161809D01*
X131568235Y-55302157D01*
X131816000Y-55351440D01*
X132716000Y-55351440D01*
X132963765Y-55302157D01*
X133173809Y-55161809D01*
X133314157Y-54951765D01*
X133363440Y-54704000D01*
X133363440Y-53180000D01*
X133314157Y-52932235D01*
X133173809Y-52722191D01*
X132963765Y-52581843D01*
X132716000Y-52532560D01*
X131816000Y-52532560D01*
X131568235Y-52581843D01*
X131358191Y-52722191D01*
X131217843Y-52932235D01*
X131168560Y-53180000D01*
X129044364Y-53180000D01*
X128165504Y-52592764D01*
X127071120Y-52375078D01*
X125976736Y-52592764D01*
X125048963Y-53212683D01*
X124429044Y-54140456D01*
X124211358Y-55234840D01*
X121658353Y-55234840D01*
X121479632Y-55056120D01*
X121893370Y-55056120D01*
X122052120Y-54897370D01*
X122052120Y-54173120D01*
X122306120Y-54173120D01*
X122306120Y-54897370D01*
X122464870Y-55056120D01*
X122905429Y-55056120D01*
X123138818Y-54959447D01*
X123317447Y-54780819D01*
X123414120Y-54547430D01*
X123414120Y-54331870D01*
X123255370Y-54173120D01*
X122306120Y-54173120D01*
X122052120Y-54173120D01*
X122032120Y-54173120D01*
X122032120Y-53919120D01*
X122052120Y-53919120D01*
X122052120Y-53194870D01*
X122306120Y-53194870D01*
X122306120Y-53919120D01*
X123255370Y-53919120D01*
X123414120Y-53760370D01*
X123414120Y-53544810D01*
X123317447Y-53311421D01*
X123138818Y-53132793D01*
X122905429Y-53036120D01*
X122464870Y-53036120D01*
X122306120Y-53194870D01*
X122052120Y-53194870D01*
X121893370Y-53036120D01*
X121452811Y-53036120D01*
X121219422Y-53132793D01*
X121218222Y-53133993D01*
X121126885Y-53072963D01*
X120879120Y-53023680D01*
X119679120Y-53023680D01*
X119489842Y-53061329D01*
X119278755Y-52850243D01*
X119015973Y-52674657D01*
X118705999Y-52612999D01*
X110057001Y-52612999D01*
X109747027Y-52674657D01*
X109675888Y-52722191D01*
X109484244Y-52850243D01*
X109409244Y-52925244D01*
X109233658Y-53188026D01*
X109231165Y-53200560D01*
X108966000Y-53200560D01*
X108718235Y-53249843D01*
X108508191Y-53390191D01*
X108367843Y-53600235D01*
X108318560Y-53848000D01*
X108318560Y-54104000D01*
X106934000Y-54104000D01*
X106643161Y-54161852D01*
X106396599Y-54326599D01*
X104587198Y-56136000D01*
X104314648Y-56136000D01*
X104114415Y-55836330D01*
X103799634Y-55626000D01*
X104114415Y-55415670D01*
X104439271Y-54929489D01*
X104553345Y-54356000D01*
X104439271Y-53782511D01*
X104114415Y-53296330D01*
X103628234Y-52971474D01*
X103054745Y-52857400D01*
X102685255Y-52857400D01*
X102111766Y-52971474D01*
X101625585Y-53296330D01*
X101300729Y-53782511D01*
X101186655Y-54356000D01*
X101300729Y-54929489D01*
X101625585Y-55415670D01*
X101940366Y-55626000D01*
X101625585Y-55836330D01*
X101300729Y-56322511D01*
X101186655Y-56896000D01*
X101300729Y-57469489D01*
X101625585Y-57955670D01*
X101935069Y-58162461D01*
X101519268Y-58533964D01*
X101265291Y-59061209D01*
X101262642Y-59076974D01*
X101383783Y-59309000D01*
X102743000Y-59309000D01*
X102743000Y-59289000D01*
X102997000Y-59289000D01*
X102997000Y-59309000D01*
X104356217Y-59309000D01*
X104477358Y-59076974D01*
X104474709Y-59061209D01*
X104220732Y-58533964D01*
X103804931Y-58162461D01*
X104114415Y-57955670D01*
X104314648Y-57656000D01*
X104902000Y-57656000D01*
X105192839Y-57598148D01*
X105439401Y-57433401D01*
X107248802Y-55624000D01*
X108318560Y-55624000D01*
X108318560Y-55880000D01*
X108367843Y-56127765D01*
X108508191Y-56337809D01*
X108718235Y-56478157D01*
X108966000Y-56527440D01*
X110998000Y-56527440D01*
X111245765Y-56478157D01*
X111455809Y-56337809D01*
X111560662Y-56180887D01*
X111657182Y-56270385D01*
X112139056Y-56469975D01*
X112395000Y-56350836D01*
X112395000Y-54991000D01*
X112649000Y-54991000D01*
X112649000Y-56350836D01*
X112904944Y-56469975D01*
X113386818Y-56270385D01*
X113859188Y-55832379D01*
X114127983Y-55246946D01*
X114009367Y-54991000D01*
X112649000Y-54991000D01*
X112395000Y-54991000D01*
X112375000Y-54991000D01*
X112375000Y-54737000D01*
X112395000Y-54737000D01*
X112395000Y-54717000D01*
X112649000Y-54717000D01*
X112649000Y-54737000D01*
X114009367Y-54737000D01*
X114127983Y-54481054D01*
X114014091Y-54232999D01*
X118365487Y-54232999D01*
X123347487Y-59215000D01*
X125830424Y-61697937D01*
X125682028Y-61920026D01*
X125620370Y-62230000D01*
X125682028Y-62539974D01*
X125857614Y-62802756D01*
X126120396Y-62978342D01*
X126322242Y-63018492D01*
X126322990Y-63020303D01*
X126715630Y-63413629D01*
X126907727Y-63493395D01*
X126776857Y-63547603D01*
X126707392Y-63789787D01*
X127508000Y-64590395D01*
X128308608Y-63789787D01*
X128239143Y-63547603D01*
X128098682Y-63497491D01*
X128298303Y-63415010D01*
X128691629Y-63022370D01*
X128904757Y-62509100D01*
X128905242Y-61953339D01*
X128903685Y-61949570D01*
X128970883Y-61849000D01*
X129018341Y-61777975D01*
X129028969Y-61724543D01*
X131284510Y-59469002D01*
X131339748Y-59469002D01*
X131181000Y-59627750D01*
X131181000Y-60230309D01*
X131277673Y-60463698D01*
X131456301Y-60642327D01*
X131689690Y-60739000D01*
X131980250Y-60739000D01*
X132139000Y-60580250D01*
X132139000Y-59469000D01*
X132393000Y-59469000D01*
X132393000Y-60580250D01*
X132551750Y-60739000D01*
X132842310Y-60739000D01*
X133075699Y-60642327D01*
X133254327Y-60463698D01*
X133351000Y-60230309D01*
X133351000Y-59627750D01*
X133192250Y-59469000D01*
X132393000Y-59469000D01*
X132139000Y-59469000D01*
X132119000Y-59469000D01*
X132119000Y-59215000D01*
X132139000Y-59215000D01*
X132139000Y-59195000D01*
X132393000Y-59195000D01*
X132393000Y-59215000D01*
X133192250Y-59215000D01*
X133351000Y-59056250D01*
X133351000Y-58453691D01*
X133254327Y-58220302D01*
X133075699Y-58041673D01*
X132842310Y-57945000D01*
X132808513Y-57945000D01*
X135578280Y-55175232D01*
X135768235Y-55302157D01*
X136016000Y-55351440D01*
X136916000Y-55351440D01*
X137163765Y-55302157D01*
X137373809Y-55161809D01*
X137514157Y-54951765D01*
X137563440Y-54704000D01*
X137563440Y-54692835D01*
X137575974Y-54690342D01*
X137838756Y-54514756D01*
X138788514Y-53564999D01*
X139550560Y-53564999D01*
X139550560Y-54704000D01*
X139599843Y-54951765D01*
X139740191Y-55161809D01*
X139903000Y-55270595D01*
X139903000Y-55521410D01*
X137330894Y-58093516D01*
X137163765Y-57981843D01*
X136916000Y-57932560D01*
X136016000Y-57932560D01*
X135768235Y-57981843D01*
X135558191Y-58122191D01*
X135417843Y-58332235D01*
X135368560Y-58580000D01*
X135368560Y-60104000D01*
X135417843Y-60351765D01*
X135513845Y-60495442D01*
X133031244Y-62978044D01*
X132945372Y-63106560D01*
X132740400Y-63106560D01*
X132492635Y-63155843D01*
X132282591Y-63296191D01*
X132142243Y-63506235D01*
X132092960Y-63754000D01*
X132092960Y-65786000D01*
X132142243Y-66033765D01*
X132282591Y-66243809D01*
X132492635Y-66384157D01*
X132540000Y-66393578D01*
X132540000Y-68250087D01*
X131027156Y-66737244D01*
X130866503Y-66629899D01*
X130764374Y-66561658D01*
X130454400Y-66500000D01*
X128673347Y-66500000D01*
X128300370Y-66126371D01*
X128108273Y-66046605D01*
X128239143Y-65992397D01*
X128308608Y-65750213D01*
X127508000Y-64949605D01*
X126707392Y-65750213D01*
X126776857Y-65992397D01*
X126917318Y-66042509D01*
X126717697Y-66124990D01*
X126342032Y-66500000D01*
X125825238Y-66500000D01*
X125515264Y-66561658D01*
X125413135Y-66629899D01*
X125252482Y-66737243D01*
X116193326Y-75796400D01*
X113496674Y-75796400D01*
X113437124Y-75736850D01*
X113451629Y-75722370D01*
X113664757Y-75209100D01*
X113665242Y-74653339D01*
X113453010Y-74139697D01*
X113060370Y-73746371D01*
X112852488Y-73660051D01*
X113058303Y-73575010D01*
X113451629Y-73182370D01*
X113664757Y-72669100D01*
X113665242Y-72113339D01*
X113453010Y-71599697D01*
X113060370Y-71206371D01*
X112852488Y-71120051D01*
X113058303Y-71035010D01*
X113451629Y-70642370D01*
X113664757Y-70129100D01*
X113665242Y-69573339D01*
X113453010Y-69059697D01*
X113060370Y-68666371D01*
X112852488Y-68580051D01*
X113058303Y-68495010D01*
X113451629Y-68102370D01*
X113664757Y-67589100D01*
X113665242Y-67033339D01*
X113453010Y-66519697D01*
X113060370Y-66126371D01*
X112852488Y-66040051D01*
X113058303Y-65955010D01*
X113451629Y-65562370D01*
X113664757Y-65049100D01*
X113664759Y-65046661D01*
X123570758Y-65046661D01*
X123782990Y-65560303D01*
X124175630Y-65953629D01*
X124688900Y-66166757D01*
X125244661Y-66167242D01*
X125758303Y-65955010D01*
X126151629Y-65562370D01*
X126231395Y-65370273D01*
X126285603Y-65501143D01*
X126527787Y-65570608D01*
X127328395Y-64770000D01*
X127687605Y-64770000D01*
X128488213Y-65570608D01*
X128730397Y-65501143D01*
X128917144Y-64977698D01*
X128889362Y-64422632D01*
X128730397Y-64038857D01*
X128488213Y-63969392D01*
X127687605Y-64770000D01*
X127328395Y-64770000D01*
X126527787Y-63969392D01*
X126285603Y-64038857D01*
X126235491Y-64179318D01*
X126153010Y-63979697D01*
X125760370Y-63586371D01*
X125247100Y-63373243D01*
X124691339Y-63372758D01*
X124177697Y-63584990D01*
X123784371Y-63977630D01*
X123571243Y-64490900D01*
X123570758Y-65046661D01*
X113664759Y-65046661D01*
X113665242Y-64493339D01*
X113453010Y-63979697D01*
X113060370Y-63586371D01*
X112868273Y-63506605D01*
X112999143Y-63452397D01*
X113068608Y-63210213D01*
X112268000Y-62409605D01*
X112253858Y-62423748D01*
X112074253Y-62244143D01*
X112088395Y-62230000D01*
X112447605Y-62230000D01*
X113248213Y-63030608D01*
X113490397Y-62961143D01*
X113677144Y-62437698D01*
X113649362Y-61882632D01*
X113490397Y-61498857D01*
X113248213Y-61429392D01*
X112447605Y-62230000D01*
X112088395Y-62230000D01*
X111618681Y-61760286D01*
X111610090Y-61717099D01*
X111448595Y-61475403D01*
X111222979Y-61249787D01*
X111467392Y-61249787D01*
X112268000Y-62050395D01*
X113068608Y-61249787D01*
X112999143Y-61007603D01*
X112475698Y-60820856D01*
X111920632Y-60848638D01*
X111536857Y-61007603D01*
X111467392Y-61249787D01*
X111222979Y-61249787D01*
X110248796Y-60275604D01*
X110007100Y-60114109D01*
X109722001Y-60057398D01*
X109721996Y-60057399D01*
X105279601Y-60057399D01*
X104994502Y-60114109D01*
X104752806Y-60275604D01*
X104752804Y-60275607D01*
X104113016Y-60915395D01*
X103804931Y-60709539D01*
X104220732Y-60338036D01*
X104474709Y-59810791D01*
X104477358Y-59795026D01*
X104356217Y-59563000D01*
X102997000Y-59563000D01*
X102997000Y-59583000D01*
X102743000Y-59583000D01*
X102743000Y-59563000D01*
X101383783Y-59563000D01*
X101262642Y-59795026D01*
X101265291Y-59810791D01*
X101519268Y-60338036D01*
X101935069Y-60709539D01*
X101625585Y-60916330D01*
X101300729Y-61402511D01*
X101186655Y-61976000D01*
X101300729Y-62549489D01*
X101625585Y-63035670D01*
X101940366Y-63246000D01*
X101625585Y-63456330D01*
X101300729Y-63942511D01*
X101186655Y-64516000D01*
X101300729Y-65089489D01*
X101625585Y-65575670D01*
X101642566Y-65587016D01*
X101606235Y-65594243D01*
X101396191Y-65734591D01*
X101255843Y-65944635D01*
X101206560Y-66192400D01*
X101206560Y-67919600D01*
X101255843Y-68167365D01*
X101396191Y-68377409D01*
X101606235Y-68517757D01*
X101854000Y-68567040D01*
X103886000Y-68567040D01*
X104133765Y-68517757D01*
X104343809Y-68377409D01*
X104484157Y-68167365D01*
X104533440Y-67919600D01*
X104533440Y-66192400D01*
X104484157Y-65944635D01*
X104343809Y-65734591D01*
X104133765Y-65594243D01*
X104097434Y-65587016D01*
X104114415Y-65575670D01*
X104358189Y-65210836D01*
X104391099Y-65204290D01*
X104632795Y-65042795D01*
X105773489Y-63902100D01*
X106915731Y-63902100D01*
X106888729Y-63942511D01*
X106774655Y-64516000D01*
X106838602Y-64837485D01*
X105091244Y-66584844D01*
X104915658Y-66847626D01*
X104854000Y-67157600D01*
X104854000Y-72248761D01*
X104604330Y-72415585D01*
X104589500Y-72437780D01*
X104525927Y-72284302D01*
X104347299Y-72105673D01*
X104113910Y-72009000D01*
X103409750Y-72009000D01*
X103251000Y-72167750D01*
X103251000Y-73533000D01*
X103271000Y-73533000D01*
X103271000Y-73787000D01*
X103251000Y-73787000D01*
X103251000Y-75152250D01*
X103409750Y-75311000D01*
X104113910Y-75311000D01*
X104347299Y-75214327D01*
X104525927Y-75035698D01*
X104589500Y-74882220D01*
X104604330Y-74904415D01*
X105090511Y-75229271D01*
X105664000Y-75343345D01*
X106237489Y-75229271D01*
X106723670Y-74904415D01*
X106934000Y-74589634D01*
X107144330Y-74904415D01*
X107630511Y-75229271D01*
X108204000Y-75343345D01*
X108777489Y-75229271D01*
X109263670Y-74904415D01*
X109588526Y-74418234D01*
X109591158Y-74405000D01*
X110689410Y-74405000D01*
X110890041Y-74605630D01*
X110871243Y-74650900D01*
X110870758Y-75206661D01*
X111082990Y-75720303D01*
X111099192Y-75736533D01*
X110508243Y-76327483D01*
X110332657Y-76590265D01*
X110270999Y-76900239D01*
X110270999Y-77577488D01*
X109646690Y-78201798D01*
X109643765Y-78199843D01*
X109396000Y-78150560D01*
X108196000Y-78150560D01*
X107948235Y-78199843D01*
X107738191Y-78340191D01*
X107696000Y-78403334D01*
X107653809Y-78340191D01*
X107499743Y-78237247D01*
X107865286Y-77871704D01*
X107931967Y-77871762D01*
X108275743Y-77729717D01*
X108538992Y-77466927D01*
X108681638Y-77123399D01*
X108681962Y-76751433D01*
X108539917Y-76407657D01*
X108277127Y-76144408D01*
X107933599Y-76001762D01*
X107561633Y-76001438D01*
X107217857Y-76143483D01*
X106954608Y-76406273D01*
X106811962Y-76749801D01*
X106811903Y-76817907D01*
X106069205Y-77560605D01*
X105907710Y-77802301D01*
X105850999Y-78087400D01*
X105851000Y-78087405D01*
X105851000Y-78179402D01*
X105748235Y-78199843D01*
X105538191Y-78340191D01*
X105429405Y-78503000D01*
X104578671Y-78503000D01*
X104368415Y-78188330D01*
X103882234Y-77863474D01*
X103308745Y-77749400D01*
X102939255Y-77749400D01*
X102365766Y-77863474D01*
X101879585Y-78188330D01*
X101554729Y-78674511D01*
X101440655Y-79248000D01*
X101554729Y-79821489D01*
X101879585Y-80307670D01*
X102194366Y-80518000D01*
X101879585Y-80728330D01*
X101554729Y-81214511D01*
X101440655Y-81788000D01*
X101554729Y-82361489D01*
X101879585Y-82847670D01*
X102194366Y-83058000D01*
X101879585Y-83268330D01*
X101554729Y-83754511D01*
X101440655Y-84328000D01*
X101554729Y-84901489D01*
X101879585Y-85387670D01*
X102194366Y-85598000D01*
X101879585Y-85808330D01*
X101554729Y-86294511D01*
X101440655Y-86868000D01*
X101554729Y-87441489D01*
X101879585Y-87927670D01*
X102194366Y-88138000D01*
X101879585Y-88348330D01*
X101554729Y-88834511D01*
X101440655Y-89408000D01*
X101554729Y-89981489D01*
X101879585Y-90467670D01*
X102194366Y-90678000D01*
X101879585Y-90888330D01*
X101554729Y-91374511D01*
X101440655Y-91948000D01*
X101554729Y-92521489D01*
X101879585Y-93007670D01*
X102194366Y-93218000D01*
X101879585Y-93428330D01*
X101554729Y-93914511D01*
X101440655Y-94488000D01*
X101554729Y-95061489D01*
X101879585Y-95547670D01*
X101901780Y-95562500D01*
X101748302Y-95626073D01*
X101569673Y-95804701D01*
X101473000Y-96038090D01*
X101473000Y-96742250D01*
X101631750Y-96901000D01*
X102997000Y-96901000D01*
X102997000Y-96881000D01*
X103251000Y-96881000D01*
X103251000Y-96901000D01*
X104616250Y-96901000D01*
X104775000Y-96742250D01*
X104775000Y-96038090D01*
X104678327Y-95804701D01*
X104499698Y-95626073D01*
X104346220Y-95562500D01*
X104368415Y-95547670D01*
X104693271Y-95061489D01*
X104807345Y-94488000D01*
X104693271Y-93914511D01*
X104368415Y-93428330D01*
X104053634Y-93218000D01*
X104368415Y-93007670D01*
X104693271Y-92521489D01*
X104807345Y-91948000D01*
X104743398Y-91626515D01*
X109011001Y-87358912D01*
X109011001Y-89003810D01*
X107677205Y-90337605D01*
X107538627Y-90545003D01*
X107445766Y-90563474D01*
X106959585Y-90888330D01*
X106634729Y-91374511D01*
X106520655Y-91948000D01*
X106634729Y-92521489D01*
X106959585Y-93007670D01*
X107274366Y-93218000D01*
X106959585Y-93428330D01*
X106634729Y-93914511D01*
X106520655Y-94488000D01*
X106634729Y-95061489D01*
X106959585Y-95547670D01*
X106981780Y-95562500D01*
X106828302Y-95626073D01*
X106649673Y-95804701D01*
X106553000Y-96038090D01*
X106553000Y-96742250D01*
X106711750Y-96901000D01*
X108077000Y-96901000D01*
X108077000Y-96881000D01*
X108331000Y-96881000D01*
X108331000Y-96901000D01*
X109696250Y-96901000D01*
X109855000Y-96742250D01*
X109855000Y-96038090D01*
X109758327Y-95804701D01*
X109579698Y-95626073D01*
X109426220Y-95562500D01*
X109448415Y-95547670D01*
X109773271Y-95061489D01*
X109887345Y-94488000D01*
X109773271Y-93914511D01*
X109448415Y-93428330D01*
X109133634Y-93218000D01*
X109448415Y-93007670D01*
X109773271Y-92521489D01*
X109887345Y-91948000D01*
X109773271Y-91374511D01*
X109448415Y-90888330D01*
X109319679Y-90802311D01*
X110282793Y-89839196D01*
X110282796Y-89839194D01*
X110444291Y-89597498D01*
X110478347Y-89426290D01*
X110501002Y-89312399D01*
X110501001Y-89312394D01*
X110501001Y-81244027D01*
X111042564Y-80702464D01*
X111082990Y-80800303D01*
X111475630Y-81193629D01*
X111683512Y-81279949D01*
X111477697Y-81364990D01*
X111084371Y-81757630D01*
X110871243Y-82270900D01*
X110870758Y-82826661D01*
X111082990Y-83340303D01*
X111475630Y-83733629D01*
X111683512Y-83819949D01*
X111477697Y-83904990D01*
X111084371Y-84297630D01*
X110871243Y-84810900D01*
X110870758Y-85366661D01*
X111082990Y-85880303D01*
X111475630Y-86273629D01*
X111683512Y-86359949D01*
X111477697Y-86444990D01*
X111084371Y-86837630D01*
X110871243Y-87350900D01*
X110870758Y-87906661D01*
X111082990Y-88420303D01*
X111475630Y-88813629D01*
X111683512Y-88899949D01*
X111477697Y-88984990D01*
X111084371Y-89377630D01*
X110871243Y-89890900D01*
X110870758Y-90446661D01*
X111082990Y-90960303D01*
X111475630Y-91353629D01*
X111683512Y-91439949D01*
X111477697Y-91524990D01*
X111084371Y-91917630D01*
X110871243Y-92430900D01*
X110870758Y-92986661D01*
X111082990Y-93500303D01*
X111475630Y-93893629D01*
X111683512Y-93979949D01*
X111477697Y-94064990D01*
X111084371Y-94457630D01*
X110871243Y-94970900D01*
X110870758Y-95526661D01*
X111082990Y-96040303D01*
X111475630Y-96433629D01*
X111988900Y-96646757D01*
X112544661Y-96647242D01*
X113058303Y-96435010D01*
X113451629Y-96042370D01*
X113537949Y-95834488D01*
X113622990Y-96040303D01*
X114015630Y-96433629D01*
X114528900Y-96646757D01*
X115084661Y-96647242D01*
X115598303Y-96435010D01*
X115991629Y-96042370D01*
X116077949Y-95834488D01*
X116162990Y-96040303D01*
X116555630Y-96433629D01*
X117068900Y-96646757D01*
X117624661Y-96647242D01*
X118138303Y-96435010D01*
X118343457Y-96230213D01*
X119087392Y-96230213D01*
X119156857Y-96472397D01*
X119680302Y-96659144D01*
X120235368Y-96631362D01*
X120619143Y-96472397D01*
X120688608Y-96230213D01*
X119888000Y-95429605D01*
X119087392Y-96230213D01*
X118343457Y-96230213D01*
X118531629Y-96042370D01*
X118611395Y-95850273D01*
X118665603Y-95981143D01*
X118907787Y-96050608D01*
X119708395Y-95250000D01*
X118907787Y-94449392D01*
X118665603Y-94518857D01*
X118615491Y-94659318D01*
X118533010Y-94459697D01*
X118343432Y-94269787D01*
X119087392Y-94269787D01*
X119888000Y-95070395D01*
X120688608Y-94269787D01*
X120619143Y-94027603D01*
X120095698Y-93840856D01*
X119540632Y-93868638D01*
X119156857Y-94027603D01*
X119087392Y-94269787D01*
X118343432Y-94269787D01*
X118140370Y-94066371D01*
X117627100Y-93853243D01*
X117071339Y-93852758D01*
X116557697Y-94064990D01*
X116164371Y-94457630D01*
X116078051Y-94665512D01*
X115993010Y-94459697D01*
X115600370Y-94066371D01*
X115087100Y-93853243D01*
X114718669Y-93852921D01*
X116198395Y-92373195D01*
X116359890Y-92131499D01*
X116416601Y-91846400D01*
X116416600Y-91846395D01*
X116416600Y-88028428D01*
X126282564Y-78162464D01*
X126322990Y-78260303D01*
X126715630Y-78653629D01*
X126923512Y-78739949D01*
X126717697Y-78824990D01*
X126324371Y-79217630D01*
X126111243Y-79730900D01*
X126110758Y-80286661D01*
X126322990Y-80800303D01*
X126715630Y-81193629D01*
X126923512Y-81279949D01*
X126717697Y-81364990D01*
X126324371Y-81757630D01*
X126111243Y-82270900D01*
X126110758Y-82826661D01*
X126322990Y-83340303D01*
X126715630Y-83733629D01*
X126923512Y-83819949D01*
X126717697Y-83904990D01*
X126324371Y-84297630D01*
X126111243Y-84810900D01*
X126110758Y-85366661D01*
X126322990Y-85880303D01*
X126715630Y-86273629D01*
X126923512Y-86359949D01*
X126717697Y-86444990D01*
X126324371Y-86837630D01*
X126111243Y-87350900D01*
X126110758Y-87906661D01*
X126322990Y-88420303D01*
X126715630Y-88813629D01*
X126923512Y-88899949D01*
X126717697Y-88984990D01*
X126324371Y-89377630D01*
X126111243Y-89890900D01*
X126110758Y-90446661D01*
X126322990Y-90960303D01*
X126715630Y-91353629D01*
X126923512Y-91439949D01*
X126717697Y-91524990D01*
X126324371Y-91917630D01*
X126111243Y-92430900D01*
X126110758Y-92986661D01*
X126322990Y-93500303D01*
X126715630Y-93893629D01*
X126923512Y-93979949D01*
X126717697Y-94064990D01*
X126324371Y-94457630D01*
X126238051Y-94665512D01*
X126153010Y-94459697D01*
X125760370Y-94066371D01*
X125247100Y-93853243D01*
X124691339Y-93852758D01*
X124177697Y-94064990D01*
X123784371Y-94457630D01*
X123698051Y-94665512D01*
X123613010Y-94459697D01*
X123220370Y-94066371D01*
X122707100Y-93853243D01*
X122151339Y-93852758D01*
X121637697Y-94064990D01*
X121244371Y-94457630D01*
X121164605Y-94649727D01*
X121110397Y-94518857D01*
X120868213Y-94449392D01*
X120067605Y-95250000D01*
X120868213Y-96050608D01*
X121110397Y-95981143D01*
X121160509Y-95840682D01*
X121242990Y-96040303D01*
X121635630Y-96433629D01*
X122148900Y-96646757D01*
X122704661Y-96647242D01*
X123218303Y-96435010D01*
X123611629Y-96042370D01*
X123697949Y-95834488D01*
X123782990Y-96040303D01*
X124175630Y-96433629D01*
X124688900Y-96646757D01*
X125244661Y-96647242D01*
X125758303Y-96435010D01*
X126151629Y-96042370D01*
X126237949Y-95834488D01*
X126322990Y-96040303D01*
X126715630Y-96433629D01*
X127228900Y-96646757D01*
X127784661Y-96647242D01*
X128298303Y-96435010D01*
X128691629Y-96042370D01*
X128904757Y-95529100D01*
X128905242Y-94973339D01*
X128693010Y-94459697D01*
X128300370Y-94066371D01*
X128092488Y-93980051D01*
X128298303Y-93895010D01*
X128691629Y-93502370D01*
X128904757Y-92989100D01*
X128905242Y-92433339D01*
X128693010Y-91919697D01*
X128300370Y-91526371D01*
X128092488Y-91440051D01*
X128298303Y-91355010D01*
X128691629Y-90962370D01*
X128904757Y-90449100D01*
X128905242Y-89893339D01*
X128693010Y-89379697D01*
X128300370Y-88986371D01*
X128092488Y-88900051D01*
X128298303Y-88815010D01*
X128691629Y-88422370D01*
X128904757Y-87909100D01*
X128905242Y-87353339D01*
X128693010Y-86839697D01*
X128300370Y-86446371D01*
X128092488Y-86360051D01*
X128298303Y-86275010D01*
X128691629Y-85882370D01*
X128904757Y-85369100D01*
X128905242Y-84813339D01*
X128693010Y-84299697D01*
X128300370Y-83906371D01*
X128092488Y-83820051D01*
X128298303Y-83735010D01*
X128691629Y-83342370D01*
X128904757Y-82829100D01*
X128905242Y-82273339D01*
X128885655Y-82225934D01*
X129106793Y-82004796D01*
X129106796Y-82004794D01*
X129268291Y-81763098D01*
X129325001Y-81477999D01*
X129325001Y-79496587D01*
X130011949Y-78809639D01*
X130035843Y-78929765D01*
X130176191Y-79139809D01*
X130338109Y-79248000D01*
X130176191Y-79356191D01*
X130035843Y-79566235D01*
X129986560Y-79814000D01*
X129986560Y-80714000D01*
X130035843Y-80961765D01*
X130176191Y-81171809D01*
X130386235Y-81312157D01*
X130424000Y-81319669D01*
X130424000Y-82430180D01*
X130315295Y-82451803D01*
X130105251Y-82592151D01*
X129964903Y-82802195D01*
X129915620Y-83049960D01*
X129915620Y-83949960D01*
X129964903Y-84197725D01*
X130105251Y-84407769D01*
X130315295Y-84548117D01*
X130353060Y-84555629D01*
X130353060Y-86910660D01*
X130414718Y-87220634D01*
X130503389Y-87353339D01*
X130590304Y-87483416D01*
X132071643Y-88964756D01*
X132165247Y-89027300D01*
X132334426Y-89140342D01*
X132346960Y-89142835D01*
X132346960Y-89408000D01*
X132396243Y-89655765D01*
X132536591Y-89865809D01*
X132746635Y-90006157D01*
X132994400Y-90055440D01*
X133048000Y-90055440D01*
X133048000Y-91046560D01*
X132994400Y-91046560D01*
X132746635Y-91095843D01*
X132536591Y-91236191D01*
X132396243Y-91446235D01*
X132346960Y-91694000D01*
X132346960Y-93726000D01*
X132396243Y-93973765D01*
X132536591Y-94183809D01*
X132746635Y-94324157D01*
X132994400Y-94373440D01*
X133048000Y-94373440D01*
X133048000Y-95364560D01*
X132994400Y-95364560D01*
X132746635Y-95413843D01*
X132536591Y-95554191D01*
X132396243Y-95764235D01*
X132346960Y-96012000D01*
X132346960Y-98044000D01*
X132396243Y-98291765D01*
X132536591Y-98501809D01*
X132746635Y-98642157D01*
X132994400Y-98691440D01*
X134223527Y-98691440D01*
X134898087Y-99366000D01*
X100786000Y-99366000D01*
X100786000Y-97313750D01*
X101473000Y-97313750D01*
X101473000Y-98017910D01*
X101569673Y-98251299D01*
X101748302Y-98429927D01*
X101981691Y-98526600D01*
X102838250Y-98526600D01*
X102997000Y-98367850D01*
X102997000Y-97155000D01*
X103251000Y-97155000D01*
X103251000Y-98367850D01*
X103409750Y-98526600D01*
X104266309Y-98526600D01*
X104499698Y-98429927D01*
X104678327Y-98251299D01*
X104775000Y-98017910D01*
X104775000Y-97313750D01*
X106553000Y-97313750D01*
X106553000Y-98017910D01*
X106649673Y-98251299D01*
X106828302Y-98429927D01*
X107061691Y-98526600D01*
X107918250Y-98526600D01*
X108077000Y-98367850D01*
X108077000Y-97155000D01*
X108331000Y-97155000D01*
X108331000Y-98367850D01*
X108489750Y-98526600D01*
X109346309Y-98526600D01*
X109579698Y-98429927D01*
X109758327Y-98251299D01*
X109855000Y-98017910D01*
X109855000Y-97313750D01*
X109696250Y-97155000D01*
X108331000Y-97155000D01*
X108077000Y-97155000D01*
X106711750Y-97155000D01*
X106553000Y-97313750D01*
X104775000Y-97313750D01*
X104616250Y-97155000D01*
X103251000Y-97155000D01*
X102997000Y-97155000D01*
X101631750Y-97155000D01*
X101473000Y-97313750D01*
X100786000Y-97313750D01*
X100786000Y-73945750D01*
X101625400Y-73945750D01*
X101625400Y-74802309D01*
X101722073Y-75035698D01*
X101900701Y-75214327D01*
X102134090Y-75311000D01*
X102838250Y-75311000D01*
X102997000Y-75152250D01*
X102997000Y-73787000D01*
X101784150Y-73787000D01*
X101625400Y-73945750D01*
X100786000Y-73945750D01*
X100786000Y-72517691D01*
X101625400Y-72517691D01*
X101625400Y-73374250D01*
X101784150Y-73533000D01*
X102997000Y-73533000D01*
X102997000Y-72167750D01*
X102838250Y-72009000D01*
X102134090Y-72009000D01*
X101900701Y-72105673D01*
X101722073Y-72284302D01*
X101625400Y-72517691D01*
X100786000Y-72517691D01*
X100786000Y-52018000D01*
X138126051Y-52018000D01*
X138037772Y-52076987D01*
X138037772Y-52076987D01*
G37*
X138037772Y-52076987D02*
X137880245Y-52182242D01*
X137353720Y-52708768D01*
X137163765Y-52581843D01*
X136916000Y-52532560D01*
X136016000Y-52532560D01*
X135768235Y-52581843D01*
X135558191Y-52722191D01*
X135417843Y-52932235D01*
X135368560Y-53180000D01*
X135368560Y-53191165D01*
X135356026Y-53193658D01*
X135271940Y-53249843D01*
X135093244Y-53369243D01*
X127697243Y-60765245D01*
X127651887Y-60833125D01*
X127256293Y-60832780D01*
X124518115Y-58094602D01*
X121658353Y-55234840D01*
X124211358Y-55234840D01*
X124429044Y-56329224D01*
X125048963Y-57256997D01*
X125976736Y-57876916D01*
X127071120Y-58094602D01*
X128165504Y-57876916D01*
X129093277Y-57256997D01*
X129713196Y-56329224D01*
X129930882Y-55234840D01*
X129713196Y-54140456D01*
X129093277Y-53212683D01*
X129044364Y-53180000D01*
X131168560Y-53180000D01*
X131168560Y-54704000D01*
X131217843Y-54951765D01*
X131358191Y-55161809D01*
X131568235Y-55302157D01*
X131816000Y-55351440D01*
X132716000Y-55351440D01*
X132963765Y-55302157D01*
X133173809Y-55161809D01*
X133314157Y-54951765D01*
X133363440Y-54704000D01*
X133363440Y-53180000D01*
X133314157Y-52932235D01*
X133173809Y-52722191D01*
X132963765Y-52581843D01*
X132716000Y-52532560D01*
X131816000Y-52532560D01*
X131568235Y-52581843D01*
X131358191Y-52722191D01*
X131217843Y-52932235D01*
X131168560Y-53180000D01*
X129044364Y-53180000D01*
X128165504Y-52592764D01*
X127071120Y-52375078D01*
X125976736Y-52592764D01*
X125048963Y-53212683D01*
X124429044Y-54140456D01*
X124211358Y-55234840D01*
X121658353Y-55234840D01*
X121479632Y-55056120D01*
X121893370Y-55056120D01*
X122052120Y-54897370D01*
X122052120Y-54173120D01*
X122306120Y-54173120D01*
X122306120Y-54897370D01*
X122464870Y-55056120D01*
X122905429Y-55056120D01*
X123138818Y-54959447D01*
X123317447Y-54780819D01*
X123414120Y-54547430D01*
X123414120Y-54331870D01*
X123255370Y-54173120D01*
X122306120Y-54173120D01*
X122052120Y-54173120D01*
X122032120Y-54173120D01*
X122032120Y-53919120D01*
X122052120Y-53919120D01*
X122052120Y-53194870D01*
X122306120Y-53194870D01*
X122306120Y-53919120D01*
X123255370Y-53919120D01*
X123414120Y-53760370D01*
X123414120Y-53544810D01*
X123317447Y-53311421D01*
X123138818Y-53132793D01*
X122905429Y-53036120D01*
X122464870Y-53036120D01*
X122306120Y-53194870D01*
X122052120Y-53194870D01*
X121893370Y-53036120D01*
X121452811Y-53036120D01*
X121219422Y-53132793D01*
X121218222Y-53133993D01*
X121126885Y-53072963D01*
X120879120Y-53023680D01*
X119679120Y-53023680D01*
X119489842Y-53061329D01*
X119278755Y-52850243D01*
X119015973Y-52674657D01*
X118705999Y-52612999D01*
X110057001Y-52612999D01*
X109747027Y-52674657D01*
X109675888Y-52722191D01*
X109484244Y-52850243D01*
X109409244Y-52925244D01*
X109233658Y-53188026D01*
X109231165Y-53200560D01*
X108966000Y-53200560D01*
X108718235Y-53249843D01*
X108508191Y-53390191D01*
X108367843Y-53600235D01*
X108318560Y-53848000D01*
X108318560Y-54104000D01*
X106934000Y-54104000D01*
X106643161Y-54161852D01*
X106396599Y-54326599D01*
X104587198Y-56136000D01*
X104314648Y-56136000D01*
X104114415Y-55836330D01*
X103799634Y-55626000D01*
X104114415Y-55415670D01*
X104439271Y-54929489D01*
X104553345Y-54356000D01*
X104439271Y-53782511D01*
X104114415Y-53296330D01*
X103628234Y-52971474D01*
X103054745Y-52857400D01*
X102685255Y-52857400D01*
X102111766Y-52971474D01*
X101625585Y-53296330D01*
X101300729Y-53782511D01*
X101186655Y-54356000D01*
X101300729Y-54929489D01*
X101625585Y-55415670D01*
X101940366Y-55626000D01*
X101625585Y-55836330D01*
X101300729Y-56322511D01*
X101186655Y-56896000D01*
X101300729Y-57469489D01*
X101625585Y-57955670D01*
X101935069Y-58162461D01*
X101519268Y-58533964D01*
X101265291Y-59061209D01*
X101262642Y-59076974D01*
X101383783Y-59309000D01*
X102743000Y-59309000D01*
X102743000Y-59289000D01*
X102997000Y-59289000D01*
X102997000Y-59309000D01*
X104356217Y-59309000D01*
X104477358Y-59076974D01*
X104474709Y-59061209D01*
X104220732Y-58533964D01*
X103804931Y-58162461D01*
X104114415Y-57955670D01*
X104314648Y-57656000D01*
X104902000Y-57656000D01*
X105192839Y-57598148D01*
X105439401Y-57433401D01*
X107248802Y-55624000D01*
X108318560Y-55624000D01*
X108318560Y-55880000D01*
X108367843Y-56127765D01*
X108508191Y-56337809D01*
X108718235Y-56478157D01*
X108966000Y-56527440D01*
X110998000Y-56527440D01*
X111245765Y-56478157D01*
X111455809Y-56337809D01*
X111560662Y-56180887D01*
X111657182Y-56270385D01*
X112139056Y-56469975D01*
X112395000Y-56350836D01*
X112395000Y-54991000D01*
X112649000Y-54991000D01*
X112649000Y-56350836D01*
X112904944Y-56469975D01*
X113386818Y-56270385D01*
X113859188Y-55832379D01*
X114127983Y-55246946D01*
X114009367Y-54991000D01*
X112649000Y-54991000D01*
X112395000Y-54991000D01*
X112375000Y-54991000D01*
X112375000Y-54737000D01*
X112395000Y-54737000D01*
X112395000Y-54717000D01*
X112649000Y-54717000D01*
X112649000Y-54737000D01*
X114009367Y-54737000D01*
X114127983Y-54481054D01*
X114014091Y-54232999D01*
X118365487Y-54232999D01*
X123347487Y-59215000D01*
X125830424Y-61697937D01*
X125682028Y-61920026D01*
X125620370Y-62230000D01*
X125682028Y-62539974D01*
X125857614Y-62802756D01*
X126120396Y-62978342D01*
X126322242Y-63018492D01*
X126322990Y-63020303D01*
X126715630Y-63413629D01*
X126907727Y-63493395D01*
X126776857Y-63547603D01*
X126707392Y-63789787D01*
X127508000Y-64590395D01*
X128308608Y-63789787D01*
X128239143Y-63547603D01*
X128098682Y-63497491D01*
X128298303Y-63415010D01*
X128691629Y-63022370D01*
X128904757Y-62509100D01*
X128905242Y-61953339D01*
X128903685Y-61949570D01*
X128970883Y-61849000D01*
X129018341Y-61777975D01*
X129028969Y-61724543D01*
X131284510Y-59469002D01*
X131339748Y-59469002D01*
X131181000Y-59627750D01*
X131181000Y-60230309D01*
X131277673Y-60463698D01*
X131456301Y-60642327D01*
X131689690Y-60739000D01*
X131980250Y-60739000D01*
X132139000Y-60580250D01*
X132139000Y-59469000D01*
X132393000Y-59469000D01*
X132393000Y-60580250D01*
X132551750Y-60739000D01*
X132842310Y-60739000D01*
X133075699Y-60642327D01*
X133254327Y-60463698D01*
X133351000Y-60230309D01*
X133351000Y-59627750D01*
X133192250Y-59469000D01*
X132393000Y-59469000D01*
X132139000Y-59469000D01*
X132119000Y-59469000D01*
X132119000Y-59215000D01*
X132139000Y-59215000D01*
X132139000Y-59195000D01*
X132393000Y-59195000D01*
X132393000Y-59215000D01*
X133192250Y-59215000D01*
X133351000Y-59056250D01*
X133351000Y-58453691D01*
X133254327Y-58220302D01*
X133075699Y-58041673D01*
X132842310Y-57945000D01*
X132808513Y-57945000D01*
X135578280Y-55175232D01*
X135768235Y-55302157D01*
X136016000Y-55351440D01*
X136916000Y-55351440D01*
X137163765Y-55302157D01*
X137373809Y-55161809D01*
X137514157Y-54951765D01*
X137563440Y-54704000D01*
X137563440Y-54692835D01*
X137575974Y-54690342D01*
X137838756Y-54514756D01*
X138788514Y-53564999D01*
X139550560Y-53564999D01*
X139550560Y-54704000D01*
X139599843Y-54951765D01*
X139740191Y-55161809D01*
X139903000Y-55270595D01*
X139903000Y-55521410D01*
X137330894Y-58093516D01*
X137163765Y-57981843D01*
X136916000Y-57932560D01*
X136016000Y-57932560D01*
X135768235Y-57981843D01*
X135558191Y-58122191D01*
X135417843Y-58332235D01*
X135368560Y-58580000D01*
X135368560Y-60104000D01*
X135417843Y-60351765D01*
X135513845Y-60495442D01*
X133031244Y-62978044D01*
X132945372Y-63106560D01*
X132740400Y-63106560D01*
X132492635Y-63155843D01*
X132282591Y-63296191D01*
X132142243Y-63506235D01*
X132092960Y-63754000D01*
X132092960Y-65786000D01*
X132142243Y-66033765D01*
X132282591Y-66243809D01*
X132492635Y-66384157D01*
X132540000Y-66393578D01*
X132540000Y-68250087D01*
X131027156Y-66737244D01*
X130866503Y-66629899D01*
X130764374Y-66561658D01*
X130454400Y-66500000D01*
X128673347Y-66500000D01*
X128300370Y-66126371D01*
X128108273Y-66046605D01*
X128239143Y-65992397D01*
X128308608Y-65750213D01*
X127508000Y-64949605D01*
X126707392Y-65750213D01*
X126776857Y-65992397D01*
X126917318Y-66042509D01*
X126717697Y-66124990D01*
X126342032Y-66500000D01*
X125825238Y-66500000D01*
X125515264Y-66561658D01*
X125413135Y-66629899D01*
X125252482Y-66737243D01*
X116193326Y-75796400D01*
X113496674Y-75796400D01*
X113437124Y-75736850D01*
X113451629Y-75722370D01*
X113664757Y-75209100D01*
X113665242Y-74653339D01*
X113453010Y-74139697D01*
X113060370Y-73746371D01*
X112852488Y-73660051D01*
X113058303Y-73575010D01*
X113451629Y-73182370D01*
X113664757Y-72669100D01*
X113665242Y-72113339D01*
X113453010Y-71599697D01*
X113060370Y-71206371D01*
X112852488Y-71120051D01*
X113058303Y-71035010D01*
X113451629Y-70642370D01*
X113664757Y-70129100D01*
X113665242Y-69573339D01*
X113453010Y-69059697D01*
X113060370Y-68666371D01*
X112852488Y-68580051D01*
X113058303Y-68495010D01*
X113451629Y-68102370D01*
X113664757Y-67589100D01*
X113665242Y-67033339D01*
X113453010Y-66519697D01*
X113060370Y-66126371D01*
X112852488Y-66040051D01*
X113058303Y-65955010D01*
X113451629Y-65562370D01*
X113664757Y-65049100D01*
X113664759Y-65046661D01*
X123570758Y-65046661D01*
X123782990Y-65560303D01*
X124175630Y-65953629D01*
X124688900Y-66166757D01*
X125244661Y-66167242D01*
X125758303Y-65955010D01*
X126151629Y-65562370D01*
X126231395Y-65370273D01*
X126285603Y-65501143D01*
X126527787Y-65570608D01*
X127328395Y-64770000D01*
X127687605Y-64770000D01*
X128488213Y-65570608D01*
X128730397Y-65501143D01*
X128917144Y-64977698D01*
X128889362Y-64422632D01*
X128730397Y-64038857D01*
X128488213Y-63969392D01*
X127687605Y-64770000D01*
X127328395Y-64770000D01*
X126527787Y-63969392D01*
X126285603Y-64038857D01*
X126235491Y-64179318D01*
X126153010Y-63979697D01*
X125760370Y-63586371D01*
X125247100Y-63373243D01*
X124691339Y-63372758D01*
X124177697Y-63584990D01*
X123784371Y-63977630D01*
X123571243Y-64490900D01*
X123570758Y-65046661D01*
X113664759Y-65046661D01*
X113665242Y-64493339D01*
X113453010Y-63979697D01*
X113060370Y-63586371D01*
X112868273Y-63506605D01*
X112999143Y-63452397D01*
X113068608Y-63210213D01*
X112268000Y-62409605D01*
X112253858Y-62423748D01*
X112074253Y-62244143D01*
X112088395Y-62230000D01*
X112447605Y-62230000D01*
X113248213Y-63030608D01*
X113490397Y-62961143D01*
X113677144Y-62437698D01*
X113649362Y-61882632D01*
X113490397Y-61498857D01*
X113248213Y-61429392D01*
X112447605Y-62230000D01*
X112088395Y-62230000D01*
X111618681Y-61760286D01*
X111610090Y-61717099D01*
X111448595Y-61475403D01*
X111222979Y-61249787D01*
X111467392Y-61249787D01*
X112268000Y-62050395D01*
X113068608Y-61249787D01*
X112999143Y-61007603D01*
X112475698Y-60820856D01*
X111920632Y-60848638D01*
X111536857Y-61007603D01*
X111467392Y-61249787D01*
X111222979Y-61249787D01*
X110248796Y-60275604D01*
X110007100Y-60114109D01*
X109722001Y-60057398D01*
X109721996Y-60057399D01*
X105279601Y-60057399D01*
X104994502Y-60114109D01*
X104752806Y-60275604D01*
X104752804Y-60275607D01*
X104113016Y-60915395D01*
X103804931Y-60709539D01*
X104220732Y-60338036D01*
X104474709Y-59810791D01*
X104477358Y-59795026D01*
X104356217Y-59563000D01*
X102997000Y-59563000D01*
X102997000Y-59583000D01*
X102743000Y-59583000D01*
X102743000Y-59563000D01*
X101383783Y-59563000D01*
X101262642Y-59795026D01*
X101265291Y-59810791D01*
X101519268Y-60338036D01*
X101935069Y-60709539D01*
X101625585Y-60916330D01*
X101300729Y-61402511D01*
X101186655Y-61976000D01*
X101300729Y-62549489D01*
X101625585Y-63035670D01*
X101940366Y-63246000D01*
X101625585Y-63456330D01*
X101300729Y-63942511D01*
X101186655Y-64516000D01*
X101300729Y-65089489D01*
X101625585Y-65575670D01*
X101642566Y-65587016D01*
X101606235Y-65594243D01*
X101396191Y-65734591D01*
X101255843Y-65944635D01*
X101206560Y-66192400D01*
X101206560Y-67919600D01*
X101255843Y-68167365D01*
X101396191Y-68377409D01*
X101606235Y-68517757D01*
X101854000Y-68567040D01*
X103886000Y-68567040D01*
X104133765Y-68517757D01*
X104343809Y-68377409D01*
X104484157Y-68167365D01*
X104533440Y-67919600D01*
X104533440Y-66192400D01*
X104484157Y-65944635D01*
X104343809Y-65734591D01*
X104133765Y-65594243D01*
X104097434Y-65587016D01*
X104114415Y-65575670D01*
X104358189Y-65210836D01*
X104391099Y-65204290D01*
X104632795Y-65042795D01*
X105773489Y-63902100D01*
X106915731Y-63902100D01*
X106888729Y-63942511D01*
X106774655Y-64516000D01*
X106838602Y-64837485D01*
X105091244Y-66584844D01*
X104915658Y-66847626D01*
X104854000Y-67157600D01*
X104854000Y-72248761D01*
X104604330Y-72415585D01*
X104589500Y-72437780D01*
X104525927Y-72284302D01*
X104347299Y-72105673D01*
X104113910Y-72009000D01*
X103409750Y-72009000D01*
X103251000Y-72167750D01*
X103251000Y-73533000D01*
X103271000Y-73533000D01*
X103271000Y-73787000D01*
X103251000Y-73787000D01*
X103251000Y-75152250D01*
X103409750Y-75311000D01*
X104113910Y-75311000D01*
X104347299Y-75214327D01*
X104525927Y-75035698D01*
X104589500Y-74882220D01*
X104604330Y-74904415D01*
X105090511Y-75229271D01*
X105664000Y-75343345D01*
X106237489Y-75229271D01*
X106723670Y-74904415D01*
X106934000Y-74589634D01*
X107144330Y-74904415D01*
X107630511Y-75229271D01*
X108204000Y-75343345D01*
X108777489Y-75229271D01*
X109263670Y-74904415D01*
X109588526Y-74418234D01*
X109591158Y-74405000D01*
X110689410Y-74405000D01*
X110890041Y-74605630D01*
X110871243Y-74650900D01*
X110870758Y-75206661D01*
X111082990Y-75720303D01*
X111099192Y-75736533D01*
X110508243Y-76327483D01*
X110332657Y-76590265D01*
X110270999Y-76900239D01*
X110270999Y-77577488D01*
X109646690Y-78201798D01*
X109643765Y-78199843D01*
X109396000Y-78150560D01*
X108196000Y-78150560D01*
X107948235Y-78199843D01*
X107738191Y-78340191D01*
X107696000Y-78403334D01*
X107653809Y-78340191D01*
X107499743Y-78237247D01*
X107865286Y-77871704D01*
X107931967Y-77871762D01*
X108275743Y-77729717D01*
X108538992Y-77466927D01*
X108681638Y-77123399D01*
X108681962Y-76751433D01*
X108539917Y-76407657D01*
X108277127Y-76144408D01*
X107933599Y-76001762D01*
X107561633Y-76001438D01*
X107217857Y-76143483D01*
X106954608Y-76406273D01*
X106811962Y-76749801D01*
X106811903Y-76817907D01*
X106069205Y-77560605D01*
X105907710Y-77802301D01*
X105850999Y-78087400D01*
X105851000Y-78087405D01*
X105851000Y-78179402D01*
X105748235Y-78199843D01*
X105538191Y-78340191D01*
X105429405Y-78503000D01*
X104578671Y-78503000D01*
X104368415Y-78188330D01*
X103882234Y-77863474D01*
X103308745Y-77749400D01*
X102939255Y-77749400D01*
X102365766Y-77863474D01*
X101879585Y-78188330D01*
X101554729Y-78674511D01*
X101440655Y-79248000D01*
X101554729Y-79821489D01*
X101879585Y-80307670D01*
X102194366Y-80518000D01*
X101879585Y-80728330D01*
X101554729Y-81214511D01*
X101440655Y-81788000D01*
X101554729Y-82361489D01*
X101879585Y-82847670D01*
X102194366Y-83058000D01*
X101879585Y-83268330D01*
X101554729Y-83754511D01*
X101440655Y-84328000D01*
X101554729Y-84901489D01*
X101879585Y-85387670D01*
X102194366Y-85598000D01*
X101879585Y-85808330D01*
X101554729Y-86294511D01*
X101440655Y-86868000D01*
X101554729Y-87441489D01*
X101879585Y-87927670D01*
X102194366Y-88138000D01*
X101879585Y-88348330D01*
X101554729Y-88834511D01*
X101440655Y-89408000D01*
X101554729Y-89981489D01*
X101879585Y-90467670D01*
X102194366Y-90678000D01*
X101879585Y-90888330D01*
X101554729Y-91374511D01*
X101440655Y-91948000D01*
X101554729Y-92521489D01*
X101879585Y-93007670D01*
X102194366Y-93218000D01*
X101879585Y-93428330D01*
X101554729Y-93914511D01*
X101440655Y-94488000D01*
X101554729Y-95061489D01*
X101879585Y-95547670D01*
X101901780Y-95562500D01*
X101748302Y-95626073D01*
X101569673Y-95804701D01*
X101473000Y-96038090D01*
X101473000Y-96742250D01*
X101631750Y-96901000D01*
X102997000Y-96901000D01*
X102997000Y-96881000D01*
X103251000Y-96881000D01*
X103251000Y-96901000D01*
X104616250Y-96901000D01*
X104775000Y-96742250D01*
X104775000Y-96038090D01*
X104678327Y-95804701D01*
X104499698Y-95626073D01*
X104346220Y-95562500D01*
X104368415Y-95547670D01*
X104693271Y-95061489D01*
X104807345Y-94488000D01*
X104693271Y-93914511D01*
X104368415Y-93428330D01*
X104053634Y-93218000D01*
X104368415Y-93007670D01*
X104693271Y-92521489D01*
X104807345Y-91948000D01*
X104743398Y-91626515D01*
X109011001Y-87358912D01*
X109011001Y-89003810D01*
X107677205Y-90337605D01*
X107538627Y-90545003D01*
X107445766Y-90563474D01*
X106959585Y-90888330D01*
X106634729Y-91374511D01*
X106520655Y-91948000D01*
X106634729Y-92521489D01*
X106959585Y-93007670D01*
X107274366Y-93218000D01*
X106959585Y-93428330D01*
X106634729Y-93914511D01*
X106520655Y-94488000D01*
X106634729Y-95061489D01*
X106959585Y-95547670D01*
X106981780Y-95562500D01*
X106828302Y-95626073D01*
X106649673Y-95804701D01*
X106553000Y-96038090D01*
X106553000Y-96742250D01*
X106711750Y-96901000D01*
X108077000Y-96901000D01*
X108077000Y-96881000D01*
X108331000Y-96881000D01*
X108331000Y-96901000D01*
X109696250Y-96901000D01*
X109855000Y-96742250D01*
X109855000Y-96038090D01*
X109758327Y-95804701D01*
X109579698Y-95626073D01*
X109426220Y-95562500D01*
X109448415Y-95547670D01*
X109773271Y-95061489D01*
X109887345Y-94488000D01*
X109773271Y-93914511D01*
X109448415Y-93428330D01*
X109133634Y-93218000D01*
X109448415Y-93007670D01*
X109773271Y-92521489D01*
X109887345Y-91948000D01*
X109773271Y-91374511D01*
X109448415Y-90888330D01*
X109319679Y-90802311D01*
X110282793Y-89839196D01*
X110282796Y-89839194D01*
X110444291Y-89597498D01*
X110478347Y-89426290D01*
X110501002Y-89312399D01*
X110501001Y-89312394D01*
X110501001Y-81244027D01*
X111042564Y-80702464D01*
X111082990Y-80800303D01*
X111475630Y-81193629D01*
X111683512Y-81279949D01*
X111477697Y-81364990D01*
X111084371Y-81757630D01*
X110871243Y-82270900D01*
X110870758Y-82826661D01*
X111082990Y-83340303D01*
X111475630Y-83733629D01*
X111683512Y-83819949D01*
X111477697Y-83904990D01*
X111084371Y-84297630D01*
X110871243Y-84810900D01*
X110870758Y-85366661D01*
X111082990Y-85880303D01*
X111475630Y-86273629D01*
X111683512Y-86359949D01*
X111477697Y-86444990D01*
X111084371Y-86837630D01*
X110871243Y-87350900D01*
X110870758Y-87906661D01*
X111082990Y-88420303D01*
X111475630Y-88813629D01*
X111683512Y-88899949D01*
X111477697Y-88984990D01*
X111084371Y-89377630D01*
X110871243Y-89890900D01*
X110870758Y-90446661D01*
X111082990Y-90960303D01*
X111475630Y-91353629D01*
X111683512Y-91439949D01*
X111477697Y-91524990D01*
X111084371Y-91917630D01*
X110871243Y-92430900D01*
X110870758Y-92986661D01*
X111082990Y-93500303D01*
X111475630Y-93893629D01*
X111683512Y-93979949D01*
X111477697Y-94064990D01*
X111084371Y-94457630D01*
X110871243Y-94970900D01*
X110870758Y-95526661D01*
X111082990Y-96040303D01*
X111475630Y-96433629D01*
X111988900Y-96646757D01*
X112544661Y-96647242D01*
X113058303Y-96435010D01*
X113451629Y-96042370D01*
X113537949Y-95834488D01*
X113622990Y-96040303D01*
X114015630Y-96433629D01*
X114528900Y-96646757D01*
X115084661Y-96647242D01*
X115598303Y-96435010D01*
X115991629Y-96042370D01*
X116077949Y-95834488D01*
X116162990Y-96040303D01*
X116555630Y-96433629D01*
X117068900Y-96646757D01*
X117624661Y-96647242D01*
X118138303Y-96435010D01*
X118343457Y-96230213D01*
X119087392Y-96230213D01*
X119156857Y-96472397D01*
X119680302Y-96659144D01*
X120235368Y-96631362D01*
X120619143Y-96472397D01*
X120688608Y-96230213D01*
X119888000Y-95429605D01*
X119087392Y-96230213D01*
X118343457Y-96230213D01*
X118531629Y-96042370D01*
X118611395Y-95850273D01*
X118665603Y-95981143D01*
X118907787Y-96050608D01*
X119708395Y-95250000D01*
X118907787Y-94449392D01*
X118665603Y-94518857D01*
X118615491Y-94659318D01*
X118533010Y-94459697D01*
X118343432Y-94269787D01*
X119087392Y-94269787D01*
X119888000Y-95070395D01*
X120688608Y-94269787D01*
X120619143Y-94027603D01*
X120095698Y-93840856D01*
X119540632Y-93868638D01*
X119156857Y-94027603D01*
X119087392Y-94269787D01*
X118343432Y-94269787D01*
X118140370Y-94066371D01*
X117627100Y-93853243D01*
X117071339Y-93852758D01*
X116557697Y-94064990D01*
X116164371Y-94457630D01*
X116078051Y-94665512D01*
X115993010Y-94459697D01*
X115600370Y-94066371D01*
X115087100Y-93853243D01*
X114718669Y-93852921D01*
X116198395Y-92373195D01*
X116359890Y-92131499D01*
X116416601Y-91846400D01*
X116416600Y-91846395D01*
X116416600Y-88028428D01*
X126282564Y-78162464D01*
X126322990Y-78260303D01*
X126715630Y-78653629D01*
X126923512Y-78739949D01*
X126717697Y-78824990D01*
X126324371Y-79217630D01*
X126111243Y-79730900D01*
X126110758Y-80286661D01*
X126322990Y-80800303D01*
X126715630Y-81193629D01*
X126923512Y-81279949D01*
X126717697Y-81364990D01*
X126324371Y-81757630D01*
X126111243Y-82270900D01*
X126110758Y-82826661D01*
X126322990Y-83340303D01*
X126715630Y-83733629D01*
X126923512Y-83819949D01*
X126717697Y-83904990D01*
X126324371Y-84297630D01*
X126111243Y-84810900D01*
X126110758Y-85366661D01*
X126322990Y-85880303D01*
X126715630Y-86273629D01*
X126923512Y-86359949D01*
X126717697Y-86444990D01*
X126324371Y-86837630D01*
X126111243Y-87350900D01*
X126110758Y-87906661D01*
X126322990Y-88420303D01*
X126715630Y-88813629D01*
X126923512Y-88899949D01*
X126717697Y-88984990D01*
X126324371Y-89377630D01*
X126111243Y-89890900D01*
X126110758Y-90446661D01*
X126322990Y-90960303D01*
X126715630Y-91353629D01*
X126923512Y-91439949D01*
X126717697Y-91524990D01*
X126324371Y-91917630D01*
X126111243Y-92430900D01*
X126110758Y-92986661D01*
X126322990Y-93500303D01*
X126715630Y-93893629D01*
X126923512Y-93979949D01*
X126717697Y-94064990D01*
X126324371Y-94457630D01*
X126238051Y-94665512D01*
X126153010Y-94459697D01*
X125760370Y-94066371D01*
X125247100Y-93853243D01*
X124691339Y-93852758D01*
X124177697Y-94064990D01*
X123784371Y-94457630D01*
X123698051Y-94665512D01*
X123613010Y-94459697D01*
X123220370Y-94066371D01*
X122707100Y-93853243D01*
X122151339Y-93852758D01*
X121637697Y-94064990D01*
X121244371Y-94457630D01*
X121164605Y-94649727D01*
X121110397Y-94518857D01*
X120868213Y-94449392D01*
X120067605Y-95250000D01*
X120868213Y-96050608D01*
X121110397Y-95981143D01*
X121160509Y-95840682D01*
X121242990Y-96040303D01*
X121635630Y-96433629D01*
X122148900Y-96646757D01*
X122704661Y-96647242D01*
X123218303Y-96435010D01*
X123611629Y-96042370D01*
X123697949Y-95834488D01*
X123782990Y-96040303D01*
X124175630Y-96433629D01*
X124688900Y-96646757D01*
X125244661Y-96647242D01*
X125758303Y-96435010D01*
X126151629Y-96042370D01*
X126237949Y-95834488D01*
X126322990Y-96040303D01*
X126715630Y-96433629D01*
X127228900Y-96646757D01*
X127784661Y-96647242D01*
X128298303Y-96435010D01*
X128691629Y-96042370D01*
X128904757Y-95529100D01*
X128905242Y-94973339D01*
X128693010Y-94459697D01*
X128300370Y-94066371D01*
X128092488Y-93980051D01*
X128298303Y-93895010D01*
X128691629Y-93502370D01*
X128904757Y-92989100D01*
X128905242Y-92433339D01*
X128693010Y-91919697D01*
X128300370Y-91526371D01*
X128092488Y-91440051D01*
X128298303Y-91355010D01*
X128691629Y-90962370D01*
X128904757Y-90449100D01*
X128905242Y-89893339D01*
X128693010Y-89379697D01*
X128300370Y-88986371D01*
X128092488Y-88900051D01*
X128298303Y-88815010D01*
X128691629Y-88422370D01*
X128904757Y-87909100D01*
X128905242Y-87353339D01*
X128693010Y-86839697D01*
X128300370Y-86446371D01*
X128092488Y-86360051D01*
X128298303Y-86275010D01*
X128691629Y-85882370D01*
X128904757Y-85369100D01*
X128905242Y-84813339D01*
X128693010Y-84299697D01*
X128300370Y-83906371D01*
X128092488Y-83820051D01*
X128298303Y-83735010D01*
X128691629Y-83342370D01*
X128904757Y-82829100D01*
X128905242Y-82273339D01*
X128885655Y-82225934D01*
X129106793Y-82004796D01*
X129106796Y-82004794D01*
X129268291Y-81763098D01*
X129325001Y-81477999D01*
X129325001Y-79496587D01*
X130011949Y-78809639D01*
X130035843Y-78929765D01*
X130176191Y-79139809D01*
X130338109Y-79248000D01*
X130176191Y-79356191D01*
X130035843Y-79566235D01*
X129986560Y-79814000D01*
X129986560Y-80714000D01*
X130035843Y-80961765D01*
X130176191Y-81171809D01*
X130386235Y-81312157D01*
X130424000Y-81319669D01*
X130424000Y-82430180D01*
X130315295Y-82451803D01*
X130105251Y-82592151D01*
X129964903Y-82802195D01*
X129915620Y-83049960D01*
X129915620Y-83949960D01*
X129964903Y-84197725D01*
X130105251Y-84407769D01*
X130315295Y-84548117D01*
X130353060Y-84555629D01*
X130353060Y-86910660D01*
X130414718Y-87220634D01*
X130503389Y-87353339D01*
X130590304Y-87483416D01*
X132071643Y-88964756D01*
X132165247Y-89027300D01*
X132334426Y-89140342D01*
X132346960Y-89142835D01*
X132346960Y-89408000D01*
X132396243Y-89655765D01*
X132536591Y-89865809D01*
X132746635Y-90006157D01*
X132994400Y-90055440D01*
X133048000Y-90055440D01*
X133048000Y-91046560D01*
X132994400Y-91046560D01*
X132746635Y-91095843D01*
X132536591Y-91236191D01*
X132396243Y-91446235D01*
X132346960Y-91694000D01*
X132346960Y-93726000D01*
X132396243Y-93973765D01*
X132536591Y-94183809D01*
X132746635Y-94324157D01*
X132994400Y-94373440D01*
X133048000Y-94373440D01*
X133048000Y-95364560D01*
X132994400Y-95364560D01*
X132746635Y-95413843D01*
X132536591Y-95554191D01*
X132396243Y-95764235D01*
X132346960Y-96012000D01*
X132346960Y-98044000D01*
X132396243Y-98291765D01*
X132536591Y-98501809D01*
X132746635Y-98642157D01*
X132994400Y-98691440D01*
X134223527Y-98691440D01*
X134898087Y-99366000D01*
X100786000Y-99366000D01*
X100786000Y-97313750D01*
X101473000Y-97313750D01*
X101473000Y-98017910D01*
X101569673Y-98251299D01*
X101748302Y-98429927D01*
X101981691Y-98526600D01*
X102838250Y-98526600D01*
X102997000Y-98367850D01*
X102997000Y-97155000D01*
X103251000Y-97155000D01*
X103251000Y-98367850D01*
X103409750Y-98526600D01*
X104266309Y-98526600D01*
X104499698Y-98429927D01*
X104678327Y-98251299D01*
X104775000Y-98017910D01*
X104775000Y-97313750D01*
X106553000Y-97313750D01*
X106553000Y-98017910D01*
X106649673Y-98251299D01*
X106828302Y-98429927D01*
X107061691Y-98526600D01*
X107918250Y-98526600D01*
X108077000Y-98367850D01*
X108077000Y-97155000D01*
X108331000Y-97155000D01*
X108331000Y-98367850D01*
X108489750Y-98526600D01*
X109346309Y-98526600D01*
X109579698Y-98429927D01*
X109758327Y-98251299D01*
X109855000Y-98017910D01*
X109855000Y-97313750D01*
X109696250Y-97155000D01*
X108331000Y-97155000D01*
X108077000Y-97155000D01*
X106711750Y-97155000D01*
X106553000Y-97313750D01*
X104775000Y-97313750D01*
X104616250Y-97155000D01*
X103251000Y-97155000D01*
X102997000Y-97155000D01*
X101631750Y-97155000D01*
X101473000Y-97313750D01*
X100786000Y-97313750D01*
X100786000Y-73945750D01*
X101625400Y-73945750D01*
X101625400Y-74802309D01*
X101722073Y-75035698D01*
X101900701Y-75214327D01*
X102134090Y-75311000D01*
X102838250Y-75311000D01*
X102997000Y-75152250D01*
X102997000Y-73787000D01*
X101784150Y-73787000D01*
X101625400Y-73945750D01*
X100786000Y-73945750D01*
X100786000Y-72517691D01*
X101625400Y-72517691D01*
X101625400Y-73374250D01*
X101784150Y-73533000D01*
X102997000Y-73533000D01*
X102997000Y-72167750D01*
X102838250Y-72009000D01*
X102134090Y-72009000D01*
X101900701Y-72105673D01*
X101722073Y-72284302D01*
X101625400Y-72517691D01*
X100786000Y-72517691D01*
X100786000Y-52018000D01*
X138126051Y-52018000D01*
X138037772Y-52076987D01*
G36*
X138193000Y-86937329D02*
X137878330Y-87147585D01*
X137671539Y-87457069D01*
X137300036Y-87041268D01*
X136772791Y-86787291D01*
X136757026Y-86784642D01*
X136525000Y-86905783D01*
X136525000Y-88265000D01*
X136545000Y-88265000D01*
X136545000Y-88519000D01*
X136525000Y-88519000D01*
X136525000Y-89878217D01*
X136757026Y-89999358D01*
X136772791Y-89996709D01*
X137300036Y-89742732D01*
X137671539Y-89326931D01*
X137878330Y-89636415D01*
X138284330Y-89907695D01*
X138201688Y-89990193D01*
X138059042Y-90333721D01*
X138058718Y-90705687D01*
X138193000Y-91030675D01*
X138193000Y-91255329D01*
X137878330Y-91465585D01*
X137671539Y-91775069D01*
X137300036Y-91359268D01*
X136772791Y-91105291D01*
X136757026Y-91102642D01*
X136525000Y-91223783D01*
X136525000Y-92583000D01*
X136545000Y-92583000D01*
X136545000Y-92837000D01*
X136525000Y-92837000D01*
X136525000Y-94196217D01*
X136757026Y-94317358D01*
X136772791Y-94314709D01*
X137300036Y-94060732D01*
X137671539Y-93644931D01*
X137878330Y-93954415D01*
X138364511Y-94279271D01*
X138938000Y-94393345D01*
X139336157Y-94314147D01*
X139337577Y-94315566D01*
X139187208Y-94465673D01*
X139044562Y-94809201D01*
X139044238Y-95181167D01*
X139127352Y-95382319D01*
X138938000Y-95344655D01*
X138364511Y-95458729D01*
X137878330Y-95783585D01*
X137671539Y-96093069D01*
X137300036Y-95677268D01*
X136772791Y-95423291D01*
X136757026Y-95420642D01*
X136525000Y-95541783D01*
X136525000Y-96901000D01*
X136545000Y-96901000D01*
X136545000Y-97155000D01*
X136525000Y-97155000D01*
X136525000Y-97175000D01*
X136271000Y-97175000D01*
X136271000Y-97155000D01*
X136251000Y-97155000D01*
X136251000Y-96901000D01*
X136271000Y-96901000D01*
X136271000Y-95541783D01*
X136038974Y-95420642D01*
X136023209Y-95423291D01*
X135495964Y-95677268D01*
X135337694Y-95854410D01*
X135319757Y-95764235D01*
X135179409Y-95554191D01*
X134969365Y-95413843D01*
X134721600Y-95364560D01*
X134668000Y-95364560D01*
X134668000Y-94373440D01*
X134721600Y-94373440D01*
X134969365Y-94324157D01*
X135179409Y-94183809D01*
X135319757Y-93973765D01*
X135337694Y-93883590D01*
X135495964Y-94060732D01*
X136023209Y-94314709D01*
X136038974Y-94317358D01*
X136271000Y-94196217D01*
X136271000Y-92837000D01*
X136251000Y-92837000D01*
X136251000Y-92583000D01*
X136271000Y-92583000D01*
X136271000Y-91223783D01*
X136038974Y-91102642D01*
X136023209Y-91105291D01*
X135495964Y-91359268D01*
X135337694Y-91536410D01*
X135319757Y-91446235D01*
X135179409Y-91236191D01*
X134969365Y-91095843D01*
X134721600Y-91046560D01*
X134668000Y-91046560D01*
X134668000Y-90055440D01*
X134721600Y-90055440D01*
X134969365Y-90006157D01*
X135179409Y-89865809D01*
X135319757Y-89655765D01*
X135337694Y-89565590D01*
X135495964Y-89742732D01*
X136023209Y-89996709D01*
X136038974Y-89999358D01*
X136271000Y-89878217D01*
X136271000Y-88519000D01*
X136251000Y-88519000D01*
X136251000Y-88265000D01*
X136271000Y-88265000D01*
X136271000Y-86905783D01*
X136038974Y-86784642D01*
X136023209Y-86787291D01*
X135495964Y-87041268D01*
X135337694Y-87218410D01*
X135319757Y-87128235D01*
X135179409Y-86918191D01*
X134969365Y-86777843D01*
X134721600Y-86728560D01*
X132994400Y-86728560D01*
X132746635Y-86777843D01*
X132536591Y-86918191D01*
X132448276Y-87050363D01*
X131973060Y-86575148D01*
X131973060Y-84555629D01*
X132010825Y-84548117D01*
X132220869Y-84407769D01*
X132263060Y-84344626D01*
X132305251Y-84407769D01*
X132515295Y-84548117D01*
X132763060Y-84597400D01*
X133963060Y-84597400D01*
X134183135Y-84553625D01*
X134906345Y-85276834D01*
X134906347Y-85276837D01*
X135110602Y-85413315D01*
X135148043Y-85438332D01*
X135433142Y-85495043D01*
X135433147Y-85495042D01*
X136558953Y-85495042D01*
X136558958Y-85495043D01*
X136844057Y-85438332D01*
X137085753Y-85276837D01*
X138193000Y-84169589D01*
X138193000Y-86937329D01*
X138193000Y-86937329D01*
G37*
X138193000Y-86937329D02*
X137878330Y-87147585D01*
X137671539Y-87457069D01*
X137300036Y-87041268D01*
X136772791Y-86787291D01*
X136757026Y-86784642D01*
X136525000Y-86905783D01*
X136525000Y-88265000D01*
X136545000Y-88265000D01*
X136545000Y-88519000D01*
X136525000Y-88519000D01*
X136525000Y-89878217D01*
X136757026Y-89999358D01*
X136772791Y-89996709D01*
X137300036Y-89742732D01*
X137671539Y-89326931D01*
X137878330Y-89636415D01*
X138284330Y-89907695D01*
X138201688Y-89990193D01*
X138059042Y-90333721D01*
X138058718Y-90705687D01*
X138193000Y-91030675D01*
X138193000Y-91255329D01*
X137878330Y-91465585D01*
X137671539Y-91775069D01*
X137300036Y-91359268D01*
X136772791Y-91105291D01*
X136757026Y-91102642D01*
X136525000Y-91223783D01*
X136525000Y-92583000D01*
X136545000Y-92583000D01*
X136545000Y-92837000D01*
X136525000Y-92837000D01*
X136525000Y-94196217D01*
X136757026Y-94317358D01*
X136772791Y-94314709D01*
X137300036Y-94060732D01*
X137671539Y-93644931D01*
X137878330Y-93954415D01*
X138364511Y-94279271D01*
X138938000Y-94393345D01*
X139336157Y-94314147D01*
X139337577Y-94315566D01*
X139187208Y-94465673D01*
X139044562Y-94809201D01*
X139044238Y-95181167D01*
X139127352Y-95382319D01*
X138938000Y-95344655D01*
X138364511Y-95458729D01*
X137878330Y-95783585D01*
X137671539Y-96093069D01*
X137300036Y-95677268D01*
X136772791Y-95423291D01*
X136757026Y-95420642D01*
X136525000Y-95541783D01*
X136525000Y-96901000D01*
X136545000Y-96901000D01*
X136545000Y-97155000D01*
X136525000Y-97155000D01*
X136525000Y-97175000D01*
X136271000Y-97175000D01*
X136271000Y-97155000D01*
X136251000Y-97155000D01*
X136251000Y-96901000D01*
X136271000Y-96901000D01*
X136271000Y-95541783D01*
X136038974Y-95420642D01*
X136023209Y-95423291D01*
X135495964Y-95677268D01*
X135337694Y-95854410D01*
X135319757Y-95764235D01*
X135179409Y-95554191D01*
X134969365Y-95413843D01*
X134721600Y-95364560D01*
X134668000Y-95364560D01*
X134668000Y-94373440D01*
X134721600Y-94373440D01*
X134969365Y-94324157D01*
X135179409Y-94183809D01*
X135319757Y-93973765D01*
X135337694Y-93883590D01*
X135495964Y-94060732D01*
X136023209Y-94314709D01*
X136038974Y-94317358D01*
X136271000Y-94196217D01*
X136271000Y-92837000D01*
X136251000Y-92837000D01*
X136251000Y-92583000D01*
X136271000Y-92583000D01*
X136271000Y-91223783D01*
X136038974Y-91102642D01*
X136023209Y-91105291D01*
X135495964Y-91359268D01*
X135337694Y-91536410D01*
X135319757Y-91446235D01*
X135179409Y-91236191D01*
X134969365Y-91095843D01*
X134721600Y-91046560D01*
X134668000Y-91046560D01*
X134668000Y-90055440D01*
X134721600Y-90055440D01*
X134969365Y-90006157D01*
X135179409Y-89865809D01*
X135319757Y-89655765D01*
X135337694Y-89565590D01*
X135495964Y-89742732D01*
X136023209Y-89996709D01*
X136038974Y-89999358D01*
X136271000Y-89878217D01*
X136271000Y-88519000D01*
X136251000Y-88519000D01*
X136251000Y-88265000D01*
X136271000Y-88265000D01*
X136271000Y-86905783D01*
X136038974Y-86784642D01*
X136023209Y-86787291D01*
X135495964Y-87041268D01*
X135337694Y-87218410D01*
X135319757Y-87128235D01*
X135179409Y-86918191D01*
X134969365Y-86777843D01*
X134721600Y-86728560D01*
X132994400Y-86728560D01*
X132746635Y-86777843D01*
X132536591Y-86918191D01*
X132448276Y-87050363D01*
X131973060Y-86575148D01*
X131973060Y-84555629D01*
X132010825Y-84548117D01*
X132220869Y-84407769D01*
X132263060Y-84344626D01*
X132305251Y-84407769D01*
X132515295Y-84548117D01*
X132763060Y-84597400D01*
X133963060Y-84597400D01*
X134183135Y-84553625D01*
X134906345Y-85276834D01*
X134906347Y-85276837D01*
X135110602Y-85413315D01*
X135148043Y-85438332D01*
X135433142Y-85495043D01*
X135433147Y-85495042D01*
X136558953Y-85495042D01*
X136558958Y-85495043D01*
X136844057Y-85438332D01*
X137085753Y-85276837D01*
X138193000Y-84169589D01*
X138193000Y-86937329D01*
G36*
X136210750Y-82225000D02*
X136787000Y-82225000D01*
X136787000Y-82205000D01*
X136840750Y-82205000D01*
X136860750Y-82225000D01*
X137034000Y-82225000D01*
X137034000Y-82479000D01*
X136860750Y-82479000D01*
X136840750Y-82499000D01*
X136787000Y-82499000D01*
X136787000Y-82479000D01*
X136210750Y-82479000D01*
X136052000Y-82637750D01*
X136052000Y-83028309D01*
X136148673Y-83261698D01*
X136327301Y-83440327D01*
X136560690Y-83537000D01*
X136628250Y-83537000D01*
X136759998Y-83405252D01*
X136759998Y-83495412D01*
X136250368Y-84005042D01*
X135741731Y-84005042D01*
X134709855Y-82973165D01*
X134577654Y-82884832D01*
X134561217Y-82802195D01*
X134420869Y-82592151D01*
X134210825Y-82451803D01*
X133963060Y-82402520D01*
X132763060Y-82402520D01*
X132515295Y-82451803D01*
X132305251Y-82592151D01*
X132263060Y-82655294D01*
X132220869Y-82592151D01*
X132044000Y-82473970D01*
X132044000Y-82186999D01*
X136172749Y-82186999D01*
X136210750Y-82225000D01*
X136210750Y-82225000D01*
G37*
X136210750Y-82225000D02*
X136787000Y-82225000D01*
X136787000Y-82205000D01*
X136840750Y-82205000D01*
X136860750Y-82225000D01*
X137034000Y-82225000D01*
X137034000Y-82479000D01*
X136860750Y-82479000D01*
X136840750Y-82499000D01*
X136787000Y-82499000D01*
X136787000Y-82479000D01*
X136210750Y-82479000D01*
X136052000Y-82637750D01*
X136052000Y-83028309D01*
X136148673Y-83261698D01*
X136327301Y-83440327D01*
X136560690Y-83537000D01*
X136628250Y-83537000D01*
X136759998Y-83405252D01*
X136759998Y-83495412D01*
X136250368Y-84005042D01*
X135741731Y-84005042D01*
X134709855Y-82973165D01*
X134577654Y-82884832D01*
X134561217Y-82802195D01*
X134420869Y-82592151D01*
X134210825Y-82451803D01*
X133963060Y-82402520D01*
X132763060Y-82402520D01*
X132515295Y-82451803D01*
X132305251Y-82592151D01*
X132263060Y-82655294D01*
X132220869Y-82592151D01*
X132044000Y-82473970D01*
X132044000Y-82186999D01*
X136172749Y-82186999D01*
X136210750Y-82225000D01*
G36*
X137989164Y-66258189D02*
X137995710Y-66291099D01*
X138157205Y-66532795D01*
X138607203Y-66982792D01*
X138607205Y-66982795D01*
X138767352Y-67089801D01*
X138848901Y-67144290D01*
X139134000Y-67201001D01*
X139134005Y-67201000D01*
X143875995Y-67201000D01*
X143876000Y-67201001D01*
X144161099Y-67144290D01*
X144402795Y-66982795D01*
X144502150Y-66883440D01*
X145296000Y-66883440D01*
X145543765Y-66834157D01*
X145753809Y-66693809D01*
X145796000Y-66630666D01*
X145838191Y-66693809D01*
X146048235Y-66834157D01*
X146086000Y-66841669D01*
X146086000Y-68286331D01*
X146048235Y-68293843D01*
X145838191Y-68434191D01*
X145796000Y-68497334D01*
X145753809Y-68434191D01*
X145543765Y-68293843D01*
X145296000Y-68244560D01*
X144096000Y-68244560D01*
X143848235Y-68293843D01*
X143638191Y-68434191D01*
X143497843Y-68644235D01*
X143481406Y-68726872D01*
X143349205Y-68815205D01*
X143349203Y-68815208D01*
X142860205Y-69304205D01*
X142698710Y-69545901D01*
X142641999Y-69831000D01*
X142642000Y-69831005D01*
X142642000Y-69892810D01*
X142580395Y-69831205D01*
X142372997Y-69692627D01*
X142354526Y-69599766D01*
X142029670Y-69113585D01*
X141543489Y-68788729D01*
X140970000Y-68674655D01*
X140396511Y-68788729D01*
X139910330Y-69113585D01*
X139700000Y-69428366D01*
X139489670Y-69113585D01*
X139003489Y-68788729D01*
X138430000Y-68674655D01*
X137856511Y-68788729D01*
X137370330Y-69113585D01*
X137163539Y-69423069D01*
X136792036Y-69007268D01*
X136264791Y-68753291D01*
X136249026Y-68750642D01*
X136017000Y-68871783D01*
X136017000Y-70231000D01*
X136037000Y-70231000D01*
X136037000Y-70485000D01*
X136017000Y-70485000D01*
X136017000Y-71844217D01*
X136249026Y-71965358D01*
X136264791Y-71962709D01*
X136792036Y-71708732D01*
X137163539Y-71292931D01*
X137370330Y-71602415D01*
X137856511Y-71927271D01*
X138430000Y-72041345D01*
X138828157Y-71962147D01*
X139521136Y-72655125D01*
X139521138Y-72655128D01*
X139762834Y-72816623D01*
X140047933Y-72873334D01*
X140047938Y-72873333D01*
X140365663Y-72873333D01*
X140365562Y-72989018D01*
X140342873Y-72988998D01*
X139999097Y-73131043D01*
X139735848Y-73393833D01*
X139593202Y-73737361D01*
X139593143Y-73805468D01*
X138960205Y-74438405D01*
X138798710Y-74680101D01*
X138741999Y-74965200D01*
X138742000Y-74965205D01*
X138742000Y-75467000D01*
X138709998Y-75467000D01*
X138709998Y-75554113D01*
X138634765Y-75503843D01*
X138610208Y-75498958D01*
X138578250Y-75467000D01*
X138510690Y-75467000D01*
X138490852Y-75475217D01*
X138387000Y-75454560D01*
X138130181Y-75454560D01*
X138063795Y-75355205D01*
X138063792Y-75355203D01*
X137923794Y-75215204D01*
X137682098Y-75053709D01*
X137396999Y-74996998D01*
X137396994Y-74996999D01*
X132292193Y-74996999D01*
X135100393Y-72188798D01*
X135100396Y-72188796D01*
X135261891Y-71947100D01*
X135262998Y-71941534D01*
X135281208Y-71849989D01*
X135515209Y-71962709D01*
X135530974Y-71965358D01*
X135763000Y-71844217D01*
X135763000Y-70485000D01*
X135743000Y-70485000D01*
X135743000Y-70231000D01*
X135763000Y-70231000D01*
X135763000Y-68871783D01*
X135530974Y-68750642D01*
X135517400Y-68752923D01*
X135517400Y-66962800D01*
X135844275Y-66962800D01*
X135844280Y-66962801D01*
X136129379Y-66906090D01*
X136226779Y-66841010D01*
X136630120Y-66841010D01*
X136630125Y-66841011D01*
X136915224Y-66784300D01*
X137156920Y-66622805D01*
X137708841Y-66070883D01*
X137989164Y-66258189D01*
X137989164Y-66258189D01*
G37*
X137989164Y-66258189D02*
X137995710Y-66291099D01*
X138157205Y-66532795D01*
X138607203Y-66982792D01*
X138607205Y-66982795D01*
X138767352Y-67089801D01*
X138848901Y-67144290D01*
X139134000Y-67201001D01*
X139134005Y-67201000D01*
X143875995Y-67201000D01*
X143876000Y-67201001D01*
X144161099Y-67144290D01*
X144402795Y-66982795D01*
X144502150Y-66883440D01*
X145296000Y-66883440D01*
X145543765Y-66834157D01*
X145753809Y-66693809D01*
X145796000Y-66630666D01*
X145838191Y-66693809D01*
X146048235Y-66834157D01*
X146086000Y-66841669D01*
X146086000Y-68286331D01*
X146048235Y-68293843D01*
X145838191Y-68434191D01*
X145796000Y-68497334D01*
X145753809Y-68434191D01*
X145543765Y-68293843D01*
X145296000Y-68244560D01*
X144096000Y-68244560D01*
X143848235Y-68293843D01*
X143638191Y-68434191D01*
X143497843Y-68644235D01*
X143481406Y-68726872D01*
X143349205Y-68815205D01*
X143349203Y-68815208D01*
X142860205Y-69304205D01*
X142698710Y-69545901D01*
X142641999Y-69831000D01*
X142642000Y-69831005D01*
X142642000Y-69892810D01*
X142580395Y-69831205D01*
X142372997Y-69692627D01*
X142354526Y-69599766D01*
X142029670Y-69113585D01*
X141543489Y-68788729D01*
X140970000Y-68674655D01*
X140396511Y-68788729D01*
X139910330Y-69113585D01*
X139700000Y-69428366D01*
X139489670Y-69113585D01*
X139003489Y-68788729D01*
X138430000Y-68674655D01*
X137856511Y-68788729D01*
X137370330Y-69113585D01*
X137163539Y-69423069D01*
X136792036Y-69007268D01*
X136264791Y-68753291D01*
X136249026Y-68750642D01*
X136017000Y-68871783D01*
X136017000Y-70231000D01*
X136037000Y-70231000D01*
X136037000Y-70485000D01*
X136017000Y-70485000D01*
X136017000Y-71844217D01*
X136249026Y-71965358D01*
X136264791Y-71962709D01*
X136792036Y-71708732D01*
X137163539Y-71292931D01*
X137370330Y-71602415D01*
X137856511Y-71927271D01*
X138430000Y-72041345D01*
X138828157Y-71962147D01*
X139521136Y-72655125D01*
X139521138Y-72655128D01*
X139762834Y-72816623D01*
X140047933Y-72873334D01*
X140047938Y-72873333D01*
X140365663Y-72873333D01*
X140365562Y-72989018D01*
X140342873Y-72988998D01*
X139999097Y-73131043D01*
X139735848Y-73393833D01*
X139593202Y-73737361D01*
X139593143Y-73805468D01*
X138960205Y-74438405D01*
X138798710Y-74680101D01*
X138741999Y-74965200D01*
X138742000Y-74965205D01*
X138742000Y-75467000D01*
X138709998Y-75467000D01*
X138709998Y-75554113D01*
X138634765Y-75503843D01*
X138610208Y-75498958D01*
X138578250Y-75467000D01*
X138510690Y-75467000D01*
X138490852Y-75475217D01*
X138387000Y-75454560D01*
X138130181Y-75454560D01*
X138063795Y-75355205D01*
X138063792Y-75355203D01*
X137923794Y-75215204D01*
X137682098Y-75053709D01*
X137396999Y-74996998D01*
X137396994Y-74996999D01*
X132292193Y-74996999D01*
X135100393Y-72188798D01*
X135100396Y-72188796D01*
X135261891Y-71947100D01*
X135262998Y-71941534D01*
X135281208Y-71849989D01*
X135515209Y-71962709D01*
X135530974Y-71965358D01*
X135763000Y-71844217D01*
X135763000Y-70485000D01*
X135743000Y-70485000D01*
X135743000Y-70231000D01*
X135763000Y-70231000D01*
X135763000Y-68871783D01*
X135530974Y-68750642D01*
X135517400Y-68752923D01*
X135517400Y-66962800D01*
X135844275Y-66962800D01*
X135844280Y-66962801D01*
X136129379Y-66906090D01*
X136226779Y-66841010D01*
X136630120Y-66841010D01*
X136630125Y-66841011D01*
X136915224Y-66784300D01*
X137156920Y-66622805D01*
X137708841Y-66070883D01*
X137989164Y-66258189D01*
G36*
X141639448Y-60456162D02*
X141733000Y-60230309D01*
X141733000Y-59627750D01*
X141574250Y-59469000D01*
X140775000Y-59469000D01*
X140775000Y-60580250D01*
X140933750Y-60739000D01*
X141224310Y-60739000D01*
X141450161Y-60645449D01*
X139396620Y-62698990D01*
X138197880Y-62698990D01*
X138197875Y-62698989D01*
X137912776Y-62755700D01*
X137671080Y-62917195D01*
X137671078Y-62917198D01*
X137104062Y-63484213D01*
X137046036Y-63419268D01*
X136518791Y-63165291D01*
X136503026Y-63162642D01*
X136271000Y-63283783D01*
X136271000Y-64643000D01*
X136291000Y-64643000D01*
X136291000Y-64897000D01*
X136271000Y-64897000D01*
X136271000Y-64917000D01*
X136017000Y-64917000D01*
X136017000Y-64897000D01*
X135997000Y-64897000D01*
X135997000Y-64643000D01*
X136017000Y-64643000D01*
X136017000Y-63283783D01*
X135784974Y-63162642D01*
X135769209Y-63165291D01*
X135241964Y-63419268D01*
X135083694Y-63596410D01*
X135065757Y-63506235D01*
X134956937Y-63343375D01*
X136961312Y-61339001D01*
X137256001Y-61339001D01*
X137565975Y-61277343D01*
X137828757Y-61101757D01*
X137913757Y-61016758D01*
X138026091Y-60848638D01*
X138089343Y-60753975D01*
X138151001Y-60444001D01*
X138151001Y-60229129D01*
X138752380Y-59627750D01*
X139563000Y-59627750D01*
X139563000Y-60230309D01*
X139659673Y-60463698D01*
X139838301Y-60642327D01*
X140071690Y-60739000D01*
X140362250Y-60739000D01*
X140521000Y-60580250D01*
X140521000Y-59469000D01*
X139721750Y-59469000D01*
X139563000Y-59627750D01*
X138752380Y-59627750D01*
X139330132Y-59049999D01*
X139563000Y-59049999D01*
X139563000Y-59056250D01*
X139721750Y-59215000D01*
X140521000Y-59215000D01*
X140521000Y-59195000D01*
X140775000Y-59195000D01*
X140775000Y-59215000D01*
X141574250Y-59215000D01*
X141733000Y-59056250D01*
X141733000Y-58964999D01*
X143130612Y-58964999D01*
X141639448Y-60456162D01*
X141639448Y-60456162D01*
G37*
X141639448Y-60456162D02*
X141733000Y-60230309D01*
X141733000Y-59627750D01*
X141574250Y-59469000D01*
X140775000Y-59469000D01*
X140775000Y-60580250D01*
X140933750Y-60739000D01*
X141224310Y-60739000D01*
X141450161Y-60645449D01*
X139396620Y-62698990D01*
X138197880Y-62698990D01*
X138197875Y-62698989D01*
X137912776Y-62755700D01*
X137671080Y-62917195D01*
X137671078Y-62917198D01*
X137104062Y-63484213D01*
X137046036Y-63419268D01*
X136518791Y-63165291D01*
X136503026Y-63162642D01*
X136271000Y-63283783D01*
X136271000Y-64643000D01*
X136291000Y-64643000D01*
X136291000Y-64897000D01*
X136271000Y-64897000D01*
X136271000Y-64917000D01*
X136017000Y-64917000D01*
X136017000Y-64897000D01*
X135997000Y-64897000D01*
X135997000Y-64643000D01*
X136017000Y-64643000D01*
X136017000Y-63283783D01*
X135784974Y-63162642D01*
X135769209Y-63165291D01*
X135241964Y-63419268D01*
X135083694Y-63596410D01*
X135065757Y-63506235D01*
X134956937Y-63343375D01*
X136961312Y-61339001D01*
X137256001Y-61339001D01*
X137565975Y-61277343D01*
X137828757Y-61101757D01*
X137913757Y-61016758D01*
X138026091Y-60848638D01*
X138089343Y-60753975D01*
X138151001Y-60444001D01*
X138151001Y-60229129D01*
X138752380Y-59627750D01*
X139563000Y-59627750D01*
X139563000Y-60230309D01*
X139659673Y-60463698D01*
X139838301Y-60642327D01*
X140071690Y-60739000D01*
X140362250Y-60739000D01*
X140521000Y-60580250D01*
X140521000Y-59469000D01*
X139721750Y-59469000D01*
X139563000Y-59627750D01*
X138752380Y-59627750D01*
X139330132Y-59049999D01*
X139563000Y-59049999D01*
X139563000Y-59056250D01*
X139721750Y-59215000D01*
X140521000Y-59215000D01*
X140521000Y-59195000D01*
X140775000Y-59195000D01*
X140775000Y-59215000D01*
X141574250Y-59215000D01*
X141733000Y-59056250D01*
X141733000Y-58964999D01*
X143130612Y-58964999D01*
X141639448Y-60456162D01*
G36*
X106807000Y-61690250D02*
X106965750Y-61849000D01*
X108331000Y-61849000D01*
X108331000Y-61829000D01*
X108585000Y-61829000D01*
X108585000Y-61849000D01*
X108605000Y-61849000D01*
X108605000Y-62103000D01*
X108585000Y-62103000D01*
X108585000Y-62123000D01*
X108331000Y-62123000D01*
X108331000Y-62103000D01*
X106965750Y-62103000D01*
X106807000Y-62261750D01*
X106807000Y-62412100D01*
X105464905Y-62412100D01*
X105464900Y-62412099D01*
X105179801Y-62468810D01*
X104938105Y-62630305D01*
X104938103Y-62630308D01*
X104113016Y-63455395D01*
X103799634Y-63246000D01*
X104114415Y-63035670D01*
X104358189Y-62670836D01*
X104391099Y-62664290D01*
X104632795Y-62502795D01*
X105588190Y-61547399D01*
X106807000Y-61547399D01*
X106807000Y-61690250D01*
X106807000Y-61690250D01*
G37*
X106807000Y-61690250D02*
X106965750Y-61849000D01*
X108331000Y-61849000D01*
X108331000Y-61829000D01*
X108585000Y-61829000D01*
X108585000Y-61849000D01*
X108605000Y-61849000D01*
X108605000Y-62103000D01*
X108585000Y-62103000D01*
X108585000Y-62123000D01*
X108331000Y-62123000D01*
X108331000Y-62103000D01*
X106965750Y-62103000D01*
X106807000Y-62261750D01*
X106807000Y-62412100D01*
X105464905Y-62412100D01*
X105464900Y-62412099D01*
X105179801Y-62468810D01*
X104938105Y-62630305D01*
X104938103Y-62630308D01*
X104113016Y-63455395D01*
X103799634Y-63246000D01*
X104114415Y-63035670D01*
X104358189Y-62670836D01*
X104391099Y-62664290D01*
X104632795Y-62502795D01*
X105588190Y-61547399D01*
X106807000Y-61547399D01*
X106807000Y-61690250D01*
M02*
