M48
;DRILL file {KiCad (2016-01-17 BZR 6493, Git da9ca2d)-product} date 19.01.2016 21.57.09
;FORMAT={-:-/ absolute / metric / decimal}
FMAT,2
METRIC,TZ
T1C0.400
T2C0.762
T3C1.016
%
G90
G05
M71
T1
X106.553Y-83.642
X107.747Y-76.937
X135.636Y-79.202
X136.058Y-84.14
X138.994Y-90.521
X139.527Y-80.061
X139.581Y-78.813
X139.979Y-94.996
X140.381Y-78.788
X140.528Y-73.924
X141.252Y-79.66
X141.301Y-72.87
X142.89Y-72.128
X143.518Y-94.823
X143.658Y-84.026
X145.633Y-82.489
X145.847Y-73.66
T2
X112.268Y-62.23
X112.268Y-64.77
X112.268Y-67.31
X112.268Y-69.85
X112.268Y-72.39
X112.268Y-74.93
X112.268Y-77.47
X112.268Y-80.01
X112.268Y-82.55
X112.268Y-85.09
X112.268Y-87.63
X112.268Y-90.17
X112.268Y-92.71
X112.268Y-95.25
X114.808Y-95.25
X117.348Y-95.25
X119.888Y-95.25
X122.428Y-95.25
X124.968Y-64.77
X124.968Y-69.85
X124.968Y-72.39
X124.968Y-74.93
X124.968Y-95.25
X127.508Y-62.23
X127.508Y-64.77
X127.508Y-67.31
X127.508Y-69.85
X127.508Y-72.39
X127.508Y-74.93
X127.508Y-77.47
X127.508Y-80.01
X127.508Y-82.55
X127.508Y-85.09
X127.508Y-87.63
X127.508Y-90.17
X127.508Y-92.71
X127.508Y-95.25
T3
X102.87Y-54.356
X102.87Y-56.896
X102.87Y-59.436
X102.87Y-61.976
X102.87Y-64.516
X102.87Y-67.056
X103.124Y-73.66
X103.124Y-79.248
X103.124Y-81.788
X103.124Y-84.328
X103.124Y-86.868
X103.124Y-89.408
X103.124Y-91.948
X103.124Y-94.488
X103.124Y-97.028
X105.664Y-73.66
X108.204Y-73.66
X108.204Y-91.948
X108.204Y-94.488
X108.204Y-97.028
X108.458Y-61.976
X108.458Y-64.516
X108.458Y-67.056
X109.982Y-54.864
X112.522Y-54.864
X133.35Y-70.358
X133.604Y-64.77
X133.858Y-88.392
X133.858Y-92.71
X133.858Y-97.028
X135.89Y-70.358
X136.144Y-64.77
X136.398Y-88.392
X136.398Y-92.71
X136.398Y-97.028
X138.43Y-70.358
X138.684Y-64.77
X138.938Y-88.392
X138.938Y-92.71
X138.938Y-97.028
X140.97Y-70.358
X141.224Y-64.77
X141.478Y-88.392
X141.478Y-92.71
X141.478Y-97.028
T0
M30
